<svg width="440" height="525" viewBox="0 0 440 525" fill="none" xmlns="http://www.w3.org/2000/svg">
<path d="M271 493.404L219.671 463.769V404.5L271 374.865L322.329 404.5V463.769L271 493.404Z" fill="#F9F3F5"/>
<path d="M322.329 404.5L271 374.865L219.671 404.5L271 434.135V493.404L322.329 463.769V404.5H322.329Z" fill="white"/>
<path d="M322.329 404.5L271 434.135V493.404L322.329 463.77V404.5H322.329Z" fill="#EBEBEB"/>
<path d="M303 232.156L267.513 211.668V170.691L303 150.203L338.487 170.691V211.668L303 232.156Z" fill="#F9F3F5"/>
<path d="M338.486 170.691L303 150.203L267.513 170.691L303 191.18V232.156L338.486 211.668V170.691H338.486Z" fill="white"/>
<path d="M338.486 170.691L303 191.18V232.156L338.487 211.668V170.691H338.486Z" fill="#EBEBEB"/>
<path d="M403.999 57.9573L381.187 44.7864V18.4444L403.999 5.27344L426.812 18.4444V44.7863L403.999 57.9573Z" fill="#F9F3F5"/>
<path d="M426.813 18.4444L404 5.27344L381.187 18.4444L404 31.6155V57.9573L426.813 44.7864V18.4444H426.813Z" fill="white"/>
<path d="M426.813 18.4443L404 31.6154V57.9573L426.813 44.7864V18.4443H426.813Z" fill="#EBEBEB"/>
<g filter="url(#filter0_d_195_2)">
<circle cx="47" cy="70" r="22" fill="white"/>
</g>
<defs>
<filter id="filter0_d_195_2" x="0" y="23" width="94" height="94" filterUnits="userSpaceOnUse" color-interpolation-filters="sRGB">
<feFlood flood-opacity="0" result="BackgroundImageFix"/>
<feColorMatrix in="SourceAlpha" type="matrix" values="0 0 0 0 0 0 0 0 0 0 0 0 0 0 0 0 0 0 127 0" result="hardAlpha"/>
<feOffset/>
<feGaussianBlur stdDeviation="12.5"/>
<feColorMatrix type="matrix" values="0 0 0 0 0 0 0 0 0 0 0 0 0 0 0 0 0 0 0.03 0"/>
<feBlend mode="normal" in2="BackgroundImageFix" result="effect1_dropShadow_195_2"/>
<feBlend mode="normal" in="SourceGraphic" in2="effect1_dropShadow_195_2" result="shape"/>
</filter>
</defs>
</svg>
