<svg width="82" height="70" viewBox="0 0 82 70" fill="none" xmlns="http://www.w3.org/2000/svg">
<path d="M70.7422 3.74091C71.33 3.74091 71.8066 3.32015 71.8066 2.80112C71.8066 2.28209 71.33 1.86133 70.7422 1.86133C70.1543 1.86133 69.6777 2.28209 69.6777 2.80112C69.6777 3.32015 70.1543 3.74091 70.7422 3.74091Z" fill="#F1BC19"/>
<path d="M77.1288 8.43971C79.4803 8.43971 81.3865 6.75668 81.3865 4.68055C81.3865 2.60442 79.4803 0.921387 77.1288 0.921387C74.7773 0.921387 72.8711 2.60442 72.8711 4.68055C72.8711 6.75668 74.7773 8.43971 77.1288 8.43971Z" fill="#F1BC19"/>
<path d="M2.6186 15.9584C3.79433 15.9584 4.74745 15.1169 4.74745 14.0788C4.74745 13.0407 3.79433 12.1992 2.6186 12.1992C1.44287 12.1992 0.489746 13.0407 0.489746 14.0788C0.489746 15.1169 1.44287 15.9584 2.6186 15.9584Z" fill="#EE3E54"/>
<path d="M70.7421 63.8876C71.9179 63.8876 72.871 63.0461 72.871 62.008C72.871 60.9699 71.9179 60.1284 70.7421 60.1284C69.5664 60.1284 68.6133 60.9699 68.6133 62.008C68.6133 63.0461 69.5664 63.8876 70.7421 63.8876Z" fill="#FBCD59"/>
<path d="M5.8119 66.7068C8.16337 66.7068 10.0696 65.0238 10.0696 62.9476C10.0696 60.8715 8.16337 59.1885 5.8119 59.1885C3.46044 59.1885 1.5542 60.8715 1.5542 62.9476C1.5542 65.0238 3.46044 66.7068 5.8119 66.7068Z" fill="#FBCD59"/>
<path d="M13.2631 69.5263C14.4389 69.5263 15.392 68.6847 15.392 67.6467C15.392 66.6086 14.4389 65.7671 13.2631 65.7671C12.0874 65.7671 11.1343 66.6086 11.1343 67.6467C11.1343 68.6847 12.0874 69.5263 13.2631 69.5263Z" fill="#EE3E54"/>
<path d="M58.5009 65.7673C59.9706 65.7673 61.162 64.7154 61.162 63.4178C61.162 62.1203 59.9706 61.0684 58.5009 61.0684C57.0312 61.0684 55.8398 62.1203 55.8398 63.4178C55.8398 64.7154 57.0312 65.7673 58.5009 65.7673Z" fill="white"/>
<path d="M4.74753 35.6935C5.3354 35.6935 5.81196 35.2728 5.81196 34.7538C5.81196 34.2347 5.3354 33.814 4.74753 33.814C4.15967 33.814 3.68311 34.2347 3.68311 34.7538C3.68311 35.2728 4.15967 35.6935 4.74753 35.6935Z" fill="white"/>
<path d="M79.2573 19.7175C79.8452 19.7175 80.3217 19.2967 80.3217 18.7777C80.3217 18.2586 79.8452 17.8379 79.2573 17.8379C78.6694 17.8379 78.1929 18.2586 78.1929 18.7777C78.1929 19.2967 78.6694 19.7175 79.2573 19.7175Z" fill="#F1BC19"/>
<path d="M72.871 53.5497C74.0468 53.5497 74.9999 52.7082 74.9999 51.6701C74.9999 50.632 74.0468 49.7905 72.871 49.7905C71.6953 49.7905 70.7422 50.632 70.7422 51.6701C70.7422 52.7082 71.6953 53.5497 72.871 53.5497Z" fill="white"/>
</svg>
