<svg width="669" height="615" viewBox="0 0 669 615" fill="none" xmlns="http://www.w3.org/2000/svg">
<path d="M334.5 598.948C498.918 598.948 632.205 528.207 632.205 440.942C632.205 353.678 498.918 282.937 334.5 282.937C170.082 282.937 36.7949 353.678 36.7949 440.942C36.7949 528.207 170.082 598.948 334.5 598.948Z" fill="#F5F5F5"/>
<path d="M127.886 472.296C146.087 472.296 160.841 464.465 160.841 454.805C160.841 445.145 146.087 437.314 127.886 437.314C109.686 437.314 94.9312 445.145 94.9312 454.805C94.9312 464.465 109.686 472.296 127.886 472.296Z" fill="#E6E6E6"/>
<path d="M381.678 361.042L165.082 476.01C164.246 476.436 163.548 477.059 163.063 477.816C162.577 478.573 162.321 479.436 162.321 480.315C162.321 481.194 162.577 482.057 163.063 482.814C163.548 483.571 164.246 484.195 165.082 484.62L292.38 552.184C295.579 553.882 299.208 554.776 302.903 554.776C306.597 554.776 310.227 553.882 313.426 552.184L530.022 437.228C530.858 436.803 531.556 436.179 532.041 435.422C532.527 434.665 532.783 433.802 532.783 432.923C532.783 432.044 532.527 431.182 532.041 430.424C531.556 429.667 530.858 429.044 530.022 428.618L402.738 361.042C399.537 359.342 395.905 358.446 392.208 358.446C388.511 358.446 384.879 359.342 381.678 361.042Z" fill="#E6E6E6"/>
<path d="M316.638 362.161L229.935 408.188C228.193 409.11 226.745 410.438 225.739 412.038C224.733 413.638 224.203 415.454 224.203 417.302C224.203 419.15 224.733 420.966 225.739 422.566C226.745 424.166 228.193 425.494 229.935 426.416L273.594 449.59C276.484 451.119 279.76 451.924 283.094 451.924C286.428 451.924 289.704 451.119 292.594 449.59L379.31 403.563C381.049 402.638 382.493 401.309 383.497 399.71C384.5 398.11 385.029 396.296 385.029 394.449C385.029 392.602 384.5 390.787 383.497 389.188C382.493 387.588 381.049 386.259 379.31 385.334L335.637 362.161C332.75 360.626 329.473 359.817 326.138 359.817C322.802 359.817 319.525 360.626 316.638 362.161Z" fill="#E6E6E6"/>
<path d="M129.625 409.59C129.625 409.59 109.261 391.3 120.848 360.673C127.337 343.515 148.866 330.907 161.122 329.727C157.064 334.159 153.827 339.174 151.542 344.573L136.101 354.007L150.297 349.923L147.274 361.092C147.274 361.092 134.081 368.472 132.127 370.021L146.35 366.54C146.35 366.54 145.253 398.176 129.625 409.59Z" fill="#FF4C60"/>
<path opacity="0.4" d="M129.625 409.59C129.625 409.59 109.261 391.3 120.848 360.673C127.337 343.515 148.866 330.907 161.122 329.727C157.064 334.159 153.827 339.174 151.542 344.573L136.101 354.007L150.297 349.923L147.274 361.092C147.274 361.092 134.081 368.472 132.127 370.021L146.35 366.54C146.35 366.54 145.253 398.176 129.625 409.59Z" fill="black"/>
<path d="M129.625 409.59C129.625 409.59 119.082 371.325 134.683 349.013C134.683 348.964 116.406 368.656 129.625 409.59Z" fill="white"/>
<path d="M152.933 414.719L128.006 414.424H127.752L102.838 414.719C102.838 414.719 102.557 442.935 112.017 454.411C114.693 457.474 120.754 459.614 127.886 459.614C135.017 459.614 141.159 457.462 143.768 454.399C153.201 442.911 152.933 414.719 152.933 414.719Z" fill="#37474F"/>
<path d="M127.886 427.081C141.719 427.081 152.933 421.547 152.933 414.72C152.933 407.893 141.719 402.358 127.886 402.358C114.052 402.358 102.838 407.893 102.838 414.72C102.838 421.547 114.052 427.081 127.886 427.081Z" fill="#455A64"/>
<path d="M127.886 411.436C136.503 411.436 143.795 413.982 146.364 417.499C146.997 416.688 147.347 415.718 147.367 414.72C147.367 409.8 138.643 405.876 127.886 405.876C117.128 405.876 108.378 409.837 108.378 414.72C108.4 415.716 108.745 416.684 109.368 417.499C111.964 413.982 119.269 411.436 127.886 411.436Z" fill="#263238"/>
<path d="M127.886 423.563C138.091 423.563 146.364 420.848 146.364 417.499C146.364 414.15 138.091 411.436 127.886 411.436C117.681 411.436 109.408 414.15 109.408 417.499C109.408 420.848 117.681 423.563 127.886 423.563Z" fill="#E0E0E0"/>
<path d="M128.194 419.024C128.194 419.024 118.533 418.68 110.264 406.896C106.839 402.038 105.193 399.516 105.193 399.516L118.573 398.594L103.507 395.138L96.3893 385.125L108.9 384.264C108.9 384.264 99.5336 381.263 92.9373 381.226C92.9373 381.226 81.3903 362.493 78.0186 359.824C86.7442 360.317 95.2738 362.413 103.104 365.987C110.933 369.562 117.904 374.543 123.604 380.636C142.631 401.214 131.003 419.553 128.194 419.024Z" fill="#FF4C60"/>
<path d="M128.194 419.025C128.194 419.025 134.228 385.593 95.707 365.495C95.707 365.495 135.686 383.146 128.194 419.025Z" fill="white"/>
<path d="M128.193 419.024C128.193 419.024 136.931 419.541 145.587 409.627C149.16 405.544 150.939 403.379 150.939 403.379L138.897 401.386L152.839 399.566L160.292 391.14L149.093 389.283C149.093 389.283 157.803 387.389 163.811 387.93C163.811 387.93 176.147 372.014 179.466 369.898C171.542 369.591 163.632 370.746 156.202 373.296C148.772 375.846 141.974 379.738 136.208 384.744C116.981 401.706 125.598 419.258 128.193 419.024Z" fill="#FF4C60"/>
<path opacity="0.2" d="M128.193 419.024C128.193 419.024 136.931 419.541 145.587 409.627C149.16 405.544 150.939 403.379 150.939 403.379L138.897 401.386L152.839 399.566L160.292 391.14L149.093 389.283C149.093 389.283 157.803 387.389 163.811 387.93C163.811 387.93 176.147 372.014 179.466 369.898C171.542 369.591 163.632 370.746 156.202 373.296C148.772 375.846 141.974 379.738 136.208 384.744C116.981 401.706 125.598 419.258 128.193 419.024Z" fill="black"/>
<path d="M128.194 419.025C128.194 419.025 126.16 388.348 162.982 373.515C162.982 373.539 125.103 386.011 128.194 419.025Z" fill="white"/>
<path d="M172.482 146.862V207.969L114.908 238.522V177.416L172.482 146.862Z" fill="#FAFAFA"/>
<path d="M166.247 150.17V204.659L114.907 231.904V177.415L166.247 150.17ZM169.364 145.25L111.83 175.804V236.91L114.948 238.57L172.482 208.017V146.862L169.364 145.201V145.25Z" fill="#E0E0E0"/>
<path d="M169.364 151.819V206.308L118.025 233.553V179.064L169.364 151.819ZM172.482 146.899L114.948 177.452V238.559L172.482 208.006V146.862V146.899Z" fill="#EBEBEB"/>
<path d="M164.026 193.983L120.474 217.095L133.345 186.333L142.256 196.05L151.368 184.131L164.026 193.983Z" fill="#E0E0E0"/>
<path d="M148.92 174.783C148.841 176.055 148.437 177.292 147.739 178.393C147.041 179.493 146.07 180.427 144.906 181.117C142.711 182.274 140.892 181.339 140.892 179.002C140.972 177.732 141.378 176.497 142.075 175.399C142.773 174.3 143.742 173.369 144.906 172.68C147.18 171.511 148.92 172.458 148.92 174.783Z" fill="#E0E0E0"/>
<path d="M191.682 70.7861V119.457L145.829 143.799V95.1155L191.682 70.7861Z" fill="#FAFAFA"/>
<path d="M186.718 73.4186V116.85L145.842 138.535V95.1158L186.731 73.4186H186.718ZM189.22 69.458L143.34 93.7997V142.483L145.829 143.799L191.682 119.458V70.7741L189.206 69.458H189.22Z" fill="#E0E0E0"/>
<path d="M189.206 74.735V118.142L148.304 139.851V96.4322L189.206 74.735ZM191.682 70.7744L145.842 95.1161V143.8L191.695 119.458V70.7744H191.682Z" fill="#EBEBEB"/>
<path d="M184.952 108.326L150.257 126.74L160.506 102.226L167.611 109.975L174.863 100.467L184.952 108.326Z" fill="#E0E0E0"/>
<path d="M172.923 93.025C172.864 94.0358 172.546 95.0196 171.995 95.8961C171.444 96.7725 170.676 97.5167 169.752 98.068C167.999 99.0028 166.594 98.2402 166.594 96.3952C166.65 95.3852 166.966 94.4017 167.515 93.5252C168.063 92.6487 168.83 91.9041 169.752 91.3522C171.505 90.4174 172.923 91.18 172.923 93.025Z" fill="#E0E0E0"/>
<path d="M289.208 352.185L307.82 456.6C307.957 457.364 308.384 458.058 309.027 458.558C309.669 459.058 310.484 459.332 311.326 459.331C311.824 459.33 312.316 459.233 312.77 459.046C313.224 458.859 313.631 458.586 313.963 458.244C314.295 457.903 314.545 457.502 314.697 457.066C314.849 456.63 314.899 456.17 314.845 455.715L301.786 347.991L289.208 352.185Z" fill="#263238"/>
<path d="M353.459 317.069L372.084 421.484C372.218 422.247 372.643 422.94 373.283 423.441C373.923 423.941 374.736 424.216 375.577 424.215C376.076 424.214 376.569 424.117 377.025 423.929C377.48 423.741 377.887 423.467 378.219 423.124C378.551 422.782 378.801 422.379 378.952 421.941C379.103 421.504 379.152 421.042 379.096 420.586L366.037 312.875L353.459 317.069Z" fill="#263238"/>
<path d="M260.642 327.771L242.271 417.745C242.148 418.376 241.787 418.946 241.251 419.356C240.715 419.766 240.038 419.988 239.341 419.984C238.912 419.982 238.489 419.896 238.099 419.732C237.709 419.567 237.362 419.327 237.082 419.029C236.802 418.73 236.594 418.38 236.474 418.001C236.354 417.623 236.323 417.225 236.384 416.835L249.952 333.441L260.642 327.771Z" fill="#263238"/>
<path d="M325.615 294.203L307.352 383.624C307.229 384.255 306.867 384.826 306.331 385.235C305.795 385.645 305.118 385.867 304.421 385.863C303.994 385.861 303.571 385.776 303.183 385.612C302.794 385.448 302.448 385.209 302.168 384.912C301.888 384.615 301.68 384.266 301.559 383.889C301.437 383.512 301.405 383.116 301.464 382.726L314.925 299.861L325.615 294.203Z" fill="#263238"/>
<path d="M320.317 287.39C316.106 285.677 312.464 282.967 309.763 279.538C307.062 276.109 305.399 272.082 304.943 267.87C301.986 240.465 291.483 184.008 255.919 202.803C212.006 226 227.727 293.368 234.11 314.966C235.528 319.832 238.294 324.278 242.138 327.869C250.072 335.249 266.489 347.869 294.427 358.619C297.854 359.935 301.665 360.143 305.238 359.209C319.113 355.581 355.359 344.449 373.476 323.17C374.501 321.964 374.967 320.434 374.772 318.914C374.576 317.394 373.735 316.006 372.432 315.052C365.113 309.714 348.562 298.976 320.317 287.39Z" fill="#FF4C60"/>
<path opacity="0.5" d="M320.317 287.39C316.106 285.677 312.464 282.967 309.763 279.538C307.062 276.109 305.399 272.082 304.943 267.87C301.986 240.465 291.483 184.008 255.919 202.803C212.006 226 227.727 293.368 234.11 314.966C235.528 319.832 238.294 324.278 242.138 327.869C250.072 335.249 266.489 347.869 294.427 358.619C297.854 359.935 301.665 360.143 305.238 359.209C319.113 355.581 355.359 344.449 373.476 323.17C374.501 321.964 374.967 320.434 374.772 318.914C374.576 317.394 373.735 316.006 372.432 315.052C365.113 309.714 348.562 298.976 320.317 287.39Z" fill="black"/>
<path d="M374.787 319.32C374.865 320.714 374.39 322.087 373.449 323.182C372.486 324.326 371.455 325.421 370.398 326.503C369.81 327.094 369.221 327.672 368.606 328.238C368.003 328.803 367.388 329.357 366.759 329.91L364.859 331.534C364.204 332.063 363.521 332.592 362.866 333.108C352.603 341.017 340.12 347.044 329.054 351.386L326.994 352.186L326.78 352.26L324.88 352.973L324.545 353.084L322.779 353.723L322.378 353.871L320.732 354.437L320.25 354.597L318.725 355.113L318.176 355.298L316.771 355.753L316.196 355.937L314.858 356.343L314.229 356.54L313.052 356.897L312.383 357.106L311.326 357.413L310.603 357.622L309.693 357.893L308.917 358.102L308.155 358.323L307.205 358.582L306.723 358.705C306.268 358.84 305.813 358.951 305.385 359.061C301.813 359.995 298.001 359.787 294.574 358.471C266.637 347.709 250.219 335.101 242.285 327.721C238.442 324.13 235.676 319.684 234.257 314.818C227.875 293.22 212.153 225.852 256.066 202.655C256.842 202.253 257.605 201.884 258.354 201.548L258.849 201.326C259.599 201.006 260.321 200.711 261.044 200.453L261.258 200.379C261.94 200.145 262.596 199.936 263.292 199.764L263.599 199.678C264.322 199.494 265.031 199.346 265.727 199.223H265.914C267.3 198.995 268.708 198.904 270.115 198.952H270.196C271.553 198.999 272.9 199.189 274.21 199.518C267.199 196.677 258.635 196.8 250.126 201.289C206.213 224.487 221.934 291.854 228.316 313.453L229.4 317.143C231.578 324.64 236.396 331.262 243.101 335.974L254.501 343.982C266.745 352.563 280.142 359.657 294.36 365.088C297.796 366.419 301.623 366.636 305.211 365.703C319.073 362.075 355.346 350.943 373.449 329.664C374.231 328.759 374.697 327.657 374.787 326.503V319.308V319.32Z" fill="#FF4C60"/>
<path opacity="0.6" d="M374.787 319.32C374.865 320.714 374.39 322.087 373.449 323.182C372.486 324.326 371.455 325.421 370.398 326.503C369.81 327.094 369.221 327.672 368.606 328.238C368.003 328.803 367.388 329.357 366.759 329.91L364.859 331.534C364.204 332.063 363.521 332.592 362.866 333.108C352.603 341.017 340.12 347.044 329.054 351.386L326.994 352.186L326.78 352.26L324.88 352.973L324.545 353.084L322.779 353.723L322.378 353.871L320.732 354.437L320.25 354.597L318.725 355.113L318.176 355.298L316.771 355.753L316.196 355.937L314.858 356.343L314.229 356.54L313.052 356.897L312.383 357.106L311.326 357.413L310.603 357.622L309.693 357.893L308.917 358.102L308.155 358.323L307.205 358.582L306.723 358.705C306.268 358.84 305.813 358.951 305.385 359.061C301.813 359.995 298.001 359.787 294.574 358.471C266.637 347.709 250.219 335.101 242.285 327.721C238.442 324.13 235.676 319.684 234.257 314.818C227.875 293.22 212.153 225.852 256.066 202.655C256.842 202.253 257.605 201.884 258.354 201.548L258.849 201.326C259.599 201.006 260.321 200.711 261.044 200.453L261.258 200.379C261.94 200.145 262.596 199.936 263.292 199.764L263.599 199.678C264.322 199.494 265.031 199.346 265.727 199.223H265.914C267.3 198.995 268.708 198.904 270.115 198.952H270.196C271.553 198.999 272.9 199.189 274.21 199.518C267.199 196.677 258.635 196.8 250.126 201.289C206.213 224.487 221.934 291.854 228.316 313.453L229.4 317.143C231.578 324.64 236.396 331.262 243.101 335.974L254.501 343.982C266.745 352.563 280.142 359.657 294.36 365.088C297.796 366.419 301.623 366.636 305.211 365.703C319.073 362.075 355.346 350.943 373.449 329.664C374.231 328.759 374.697 327.657 374.787 326.503V319.308V319.32Z" fill="black"/>
<path d="M399.005 396.404C396.008 378.828 392.168 350.734 389.973 334.129C389.831 333.039 389.63 331.956 389.371 330.882C388.216 326.299 386.052 321.982 383.012 318.198C379.972 314.413 376.121 311.241 371.696 308.878L326.659 284.278L296.086 269.518C296.086 269.518 287.951 291.19 297.424 304.45C305.291 315.52 340.026 329.148 350.355 333.76C360.685 338.373 360.899 339.615 360.685 345.778C360.471 351.94 360.457 359.787 373.141 384.363C376.794 391.423 379.336 396.663 381.102 400.759C387.434 401.209 393.744 399.674 399.005 396.404Z" fill="#FF4C60"/>
<path opacity="0.7" d="M399.005 396.405C396.008 378.828 392.168 350.735 389.973 334.13C389.758 332.499 389.419 330.883 388.957 329.296C386.322 320.707 380.156 313.398 371.763 308.915L326.659 284.229L296.086 269.469C296.086 269.469 287.951 291.141 297.424 304.401C305.291 315.471 340.026 329.099 350.355 333.712C360.685 338.324 360.899 339.566 360.685 345.729C360.471 351.891 360.457 359.738 373.141 384.314C376.794 391.374 379.336 396.614 381.102 400.71C387.428 401.174 393.737 399.657 399.005 396.405Z" fill="black"/>
<path d="M385.076 415.014C385.057 415.743 385.246 416.464 385.625 417.105C387.42 419.893 389.708 422.387 392.395 424.485C398.47 429.515 418.58 449.208 425.644 436.982C425.644 436.982 404.865 418.692 402.122 411.152C400.763 406.293 399.722 401.365 399.005 396.392C393.727 399.64 387.407 401.149 381.076 400.672C384.969 409.59 385.143 412.48 385.076 415.014Z" fill="#FFA8A7"/>
<path d="M406.752 413.809L406.176 412.222C405.945 411.64 405.483 411.159 404.883 410.876C404.282 410.593 403.588 410.529 402.938 410.697L394.522 413.083C393.994 413.234 393.532 413.536 393.204 413.945C392.877 414.355 392.701 414.851 392.703 415.359V416.134C392.699 416.5 392.538 416.851 392.255 417.109C391.972 417.367 391.589 417.511 391.191 417.511C389.409 417.512 387.682 416.943 386.307 415.9L385.13 415.015V412.309C384.371 412.764 383.755 413.394 383.344 414.137C382.933 414.879 382.741 415.708 382.788 416.54C382.895 418.372 382.989 420.611 382.908 421.46C382.775 423.083 381.129 429.848 383.096 431.853C385.063 433.858 389.478 434.092 394.937 433.551C400.396 433.009 406.364 437.942 411.421 439.774C416.479 441.607 437.432 445.543 437.379 433.231C437.379 430.094 433.993 428.815 430.688 427.708C427.384 426.601 415.422 422.727 412.358 420.402C411.127 419.46 409.985 418.423 408.946 417.302C407.971 416.283 407.225 415.095 406.752 413.809Z" fill="#455A64"/>
<path d="M411.368 439.811C406.311 437.979 400.343 433.046 394.884 433.588C389.425 434.129 385.01 433.895 383.043 431.89C382.412 431.058 382.085 430.063 382.106 429.049C382.012 430.943 382.173 432.739 383.043 433.649C385.01 435.654 389.425 435.888 394.884 435.346C400.343 434.805 406.311 439.75 411.368 441.57C416.426 443.391 437.379 447.339 437.325 435.027C437.312 434.849 437.285 434.672 437.245 434.498C435.934 445.26 416.252 441.57 411.368 439.811Z" fill="#263238"/>
<path d="M358.102 417.733C355.092 400.168 351.265 372.075 349.057 355.458C347.904 346.726 343.212 338.715 335.918 333.023L281.876 290.785L252.989 290.28C252.989 290.28 247.035 312.42 256.481 325.667C264.362 336.737 299.083 350.378 309.412 354.978C319.742 359.578 319.956 360.845 319.742 366.995C319.527 373.145 319.514 381.005 332.212 405.58C335.851 412.653 338.393 417.88 340.159 421.976C346.49 422.461 352.812 420.966 358.102 417.733Z" fill="#FF4C60"/>
<path opacity="0.7" d="M358.102 417.733C355.092 400.168 351.265 372.075 349.057 355.458C347.904 346.726 343.212 338.715 335.918 333.023L281.876 290.785L252.989 290.28C252.989 290.28 247.035 312.42 256.481 325.667C264.362 336.737 299.083 350.378 309.412 354.978C319.742 359.578 319.956 360.845 319.742 366.995C319.527 373.145 319.514 381.005 332.212 405.58C335.851 412.653 338.393 417.88 340.159 421.976C346.49 422.461 352.812 420.966 358.102 417.733Z" fill="black"/>
<path d="M344.147 434.756C344.147 435.494 343.598 437.671 344.709 438.446C346.127 439.418 347.479 442.53 351.493 445.826C357.554 450.857 363.963 440.02 361.206 432.505C359.854 427.646 358.818 422.717 358.102 417.745C352.818 420.991 346.494 422.5 340.16 422.025C344.067 430.906 344.227 432.235 344.147 434.756Z" fill="#FFA8A7"/>
<path d="M308.436 198.669C312.57 198.065 316.803 198.829 320.382 200.825C323.961 202.82 326.655 205.918 327.984 209.567C329.892 214.836 331.118 220.294 331.636 225.828C333.202 242.863 333.63 251.375 333.63 251.375L352.242 259.136C352.242 259.136 342.193 259.579 342.876 272.666L319.688 267.291L308.436 198.669Z" fill="#FFA8A7"/>
<path d="M334.312 241.079C331.57 222.629 330.486 212.974 328.131 208.398C326.515 204.978 323.693 202.158 320.119 200.393C316.546 198.628 312.43 198.02 308.436 198.669L315.447 249.345L316.343 249.271C322.552 248.708 328.4 246.328 333.028 242.482L334.312 241.079Z" fill="#FF4C60"/>
<path opacity="0.2" d="M334.312 241.079C331.57 222.629 330.486 212.974 328.131 208.398C326.515 204.978 323.693 202.158 320.119 200.393C316.546 198.628 312.43 198.02 308.436 198.669L315.447 249.345L316.343 249.271C322.552 248.708 328.4 246.328 333.028 242.482L334.312 241.079Z" fill="black"/>
<path d="M333.63 251.375C331.539 251.966 329.646 253.037 328.131 254.487C328.131 254.487 330.379 250.563 333.483 249.346L333.63 251.375Z" fill="#F28F8F"/>
<path d="M263.72 213.614L284.539 204.34L301.692 198.891C301.692 198.891 315.447 194.869 318.952 211.708C321.856 225.545 322.231 278.128 322.231 278.128L321.923 283.872C321.923 283.872 313.988 304.314 285.636 306.012C257.284 307.709 251.758 296.713 251.758 296.713C251.758 296.713 248.868 227.132 263.72 213.614Z" fill="#FF4C60"/>
<path d="M329.322 157.439C329.322 157.439 335.757 172.605 326.873 179.284C317.989 185.963 321.12 159.075 321.12 159.075L329.322 157.439Z" fill="#263238"/>
<path d="M385.09 244.143L187.32 349.111V371.853V482.369C187.329 482.807 187.475 483.234 187.741 483.598C188.007 483.962 188.381 484.249 188.818 484.423C189.949 484.954 191.201 485.231 192.471 485.231C193.741 485.231 194.993 484.954 196.124 484.423C196.559 484.247 196.93 483.96 197.193 483.596C197.457 483.232 197.601 482.806 197.609 482.369V377.327L304.836 434.19V545.788C304.848 546.224 304.996 546.648 305.261 547.01C305.527 547.372 305.899 547.656 306.335 547.83C307.466 548.361 308.718 548.638 309.988 548.638C311.258 548.638 312.509 548.361 313.64 547.83C314.076 547.656 314.449 547.372 314.714 547.01C314.98 546.648 315.127 546.224 315.139 545.788V434.19L497.415 337.45V443.23C497.43 443.668 497.582 444.092 497.852 444.452C498.123 444.812 498.5 445.092 498.94 445.26C500.071 445.791 501.323 446.068 502.593 446.068C503.863 446.068 505.115 445.791 506.245 445.26C506.682 445.088 507.056 444.803 507.321 444.441C507.587 444.079 507.734 443.655 507.744 443.218V309.259L385.09 244.143Z" fill="#455A64"/>
<path d="M313.641 547.855C312.51 548.386 311.258 548.663 309.988 548.663C308.718 548.663 307.466 548.386 306.335 547.855C304.315 546.784 304.315 545.05 306.335 543.98C307.466 543.449 308.718 543.172 309.988 543.172C311.258 543.172 312.51 543.449 313.641 543.98C315.661 545.05 315.661 546.784 313.641 547.855Z" fill="#455A64"/>
<path d="M315.166 431.472H304.836V545.812H315.166V431.472Z" fill="#37474F"/>
<path d="M192.498 485.235C195.351 485.235 197.663 484.007 197.663 482.492C197.663 480.977 195.351 479.749 192.498 479.749C189.646 479.749 187.333 480.977 187.333 482.492C187.333 484.007 189.646 485.235 192.498 485.235Z" fill="#455A64"/>
<path d="M197.663 368.053H187.333V482.394H197.663V368.053Z" fill="#263238"/>
<path d="M506.246 445.26C505.115 445.791 503.863 446.068 502.593 446.068C501.323 446.068 500.071 445.791 498.94 445.26C496.92 444.19 496.92 442.455 498.94 441.385C500.071 440.854 501.323 440.577 502.593 440.577C503.863 440.577 505.115 440.854 506.246 441.385C508.266 442.468 508.266 444.202 506.246 445.26Z" fill="#455A64"/>
<path d="M507.771 328.89H497.441V443.23H507.771V328.89Z" fill="#37474F"/>
<path d="M379.992 358.742C378.976 359.215 377.853 359.462 376.714 359.462C375.575 359.462 374.452 359.215 373.436 358.742C371.629 357.782 371.629 356.282 373.436 355.273C374.45 354.794 375.574 354.544 376.714 354.544C377.854 354.544 378.978 354.794 379.992 355.273C381.745 356.232 381.745 357.782 379.992 358.742Z" fill="#455A64"/>
<path d="M381.303 261.498H372.031V356.921H381.303V261.498Z" fill="#455A64"/>
<path d="M187.32 349.11V371.853L310.001 436.969V414.214L187.32 349.11Z" fill="#263238"/>
<path d="M507.771 309.259L310.001 414.215V436.97L507.771 332.002V309.259Z" fill="#37474F"/>
<path d="M385.09 244.143L187.32 349.111L310.001 414.215L507.771 309.259L385.09 244.143Z" fill="#455A64"/>
<path d="M285.877 314.978L330.861 338.852L405.641 299.086L360.671 274.732L285.877 314.978Z" fill="#EBEBEB"/>
<path d="M326.017 308.176L342.889 299.222L332.319 293.613L315.447 302.568L326.017 308.176Z" fill="#E0E0E0"/>
<path d="M332.774 332.887L310.041 320.587L354.463 295.864L332.774 332.887Z" fill="#E0E0E0"/>
<path d="M345.498 256.185L363.494 263.946C368.871 265.193 374.172 266.7 379.376 268.46C379.376 268.46 391.9 273.159 392.475 276.246C393.051 279.333 383.109 286.775 374.319 283.158C372.021 282.027 369.562 281.199 367.013 280.698C364.672 280.465 357.647 279.468 352.63 275.028L331.636 270.01C331.636 270.01 330.593 258.103 345.498 256.185Z" fill="#FFA8A7"/>
<path d="M357.152 279.21C359.226 281.264 365.18 286.442 366.518 287.943C367.856 289.443 370.88 285.593 365.515 279.849C360.87 278.286 356.501 276.102 352.549 273.367C353.919 275.42 355.458 277.373 357.152 279.21Z" fill="#FFA8A7"/>
<path d="M305.894 180.576H284.539V204.34H305.894V180.576Z" fill="#FFA8A7"/>
<path d="M305.907 204.34C301.552 202.845 297.571 200.554 294.206 197.605C290.842 194.656 288.163 191.11 286.332 187.181V180.576H305.96L305.907 204.34Z" fill="#F28F8F"/>
<path d="M313.092 149.198C313.092 149.198 332.52 151.351 328.064 181.867C326.004 195.975 321.896 203.109 310.068 201.904C296.688 200.526 278.13 190.957 281.007 166.775C283.883 142.593 313.092 149.198 313.092 149.198Z" fill="#FFA8A7"/>
<path d="M314.176 176.406L313.48 186.947L320.317 185.434L314.176 176.406Z" fill="#F28F8F"/>
<path d="M304.007 175.459C303.979 175.885 304.088 176.308 304.321 176.676C304.555 177.044 304.902 177.34 305.318 177.526C305.735 177.713 306.202 177.781 306.661 177.724C307.12 177.666 307.55 177.484 307.897 177.202C308.244 176.919 308.492 176.548 308.609 176.136C308.726 175.724 308.708 175.29 308.557 174.887C308.405 174.485 308.127 174.132 307.758 173.875C307.389 173.618 306.945 173.467 306.482 173.442C305.863 173.409 305.255 173.602 304.791 173.98C304.327 174.358 304.045 174.89 304.007 175.459Z" fill="#263238"/>
<path d="M319.461 174.832C319.433 175.257 319.542 175.68 319.775 176.047C320.008 176.415 320.354 176.71 320.77 176.897C321.186 177.084 321.652 177.153 322.111 177.096C322.57 177.039 323 176.859 323.347 176.578C323.694 176.296 323.942 175.927 324.061 175.516C324.18 175.105 324.163 174.67 324.014 174.268C323.865 173.865 323.589 173.512 323.221 173.254C322.854 172.995 322.411 172.843 321.95 172.815C321.642 172.797 321.333 172.834 321.042 172.926C320.75 173.018 320.481 173.161 320.249 173.349C320.018 173.536 319.83 173.763 319.694 174.018C319.559 174.273 319.48 174.549 319.461 174.832Z" fill="#263238"/>
<path d="M324.946 170.65L320.544 167.895C320.544 167.895 322.404 166.321 324.09 167.428C324.569 167.823 324.907 168.342 325.06 168.917C325.213 169.492 325.173 170.096 324.946 170.65Z" fill="#263238"/>
<path d="M305.626 170.17L300.876 172.36C300.876 172.36 300.287 170.096 302.147 169.297C302.755 169.102 303.413 169.081 304.034 169.237C304.655 169.393 305.21 169.718 305.626 170.17Z" fill="#263238"/>
<path d="M313.814 191.228C311.14 191.252 308.535 190.45 306.415 188.952C306.415 188.952 305.666 192.568 308.93 193.442C312.195 194.315 313.814 191.228 313.814 191.228Z" fill="#F28F8F"/>
<path d="M284.311 176.16C284.311 176.16 287.295 181.88 289.142 181.683C290.988 181.486 289.142 159.777 292.968 159.642C296.795 159.506 314.858 167.747 330.82 157.108C336.962 153.024 338.179 142.594 334.5 143.578C330.82 144.562 325.856 147.526 319.153 147.108C312.449 146.69 288.981 136.677 283.161 150.798C283.161 150.798 270.182 149.826 275.052 173.516C276.27 179.408 280.097 193.995 284.539 195.435L284.311 176.16Z" fill="#263238"/>
<path d="M285.368 181.376C285.442 179.587 285.081 177.805 284.311 176.161C283.926 175.148 283.229 174.26 282.305 173.605C281.381 172.95 280.27 172.556 279.106 172.471C273.112 172.323 272.296 177.637 272.416 179.519C272.631 184.439 277.006 189.851 285.141 190.06L285.368 181.376Z" fill="#FFA8A7"/>
<path d="M287.215 287.71L302.522 298.89C305.139 299.117 307.733 299.528 310.282 300.12C313.212 300.92 320.893 303.515 322.926 303.921C324.96 304.327 322.338 307.611 317.012 306.381C317.012 306.381 328.171 313.404 328.024 316.528C327.877 319.653 316.424 324.991 308.69 319.751C306.697 318.22 304.487 316.946 302.12 315.963C299.873 315.286 293.276 312.937 289.356 307.623L275.976 301.215C275.976 301.215 272.203 286.689 287.215 287.71Z" fill="#FFA8A7"/>
<path d="M270.517 210.588C270.517 210.588 279.441 216.947 273.956 236.713C268.47 256.479 265.54 273.515 265.54 273.515L287.215 287.709C284.248 288.903 281.659 290.772 279.693 293.138C277.727 295.505 276.448 298.293 275.976 301.239C275.976 301.239 241.803 288.939 241.108 280.956C240.412 272.973 248.239 238.706 249.43 232.396C250.621 226.086 256.695 213.577 270.517 210.588Z" fill="#FFA8A7"/>
<path d="M265.539 273.515C262.837 273.028 260.055 273.053 257.364 273.589C259.929 272.309 262.808 271.653 265.727 271.683L265.539 273.515Z" fill="#F28F8F"/>
<path d="M416.118 253.54L408.29 300.588C408.302 300.615 408.302 300.646 408.29 300.674L330.486 342.088C330.466 342.097 330.445 342.101 330.423 342.099C330.402 342.098 330.381 342.091 330.363 342.08C330.345 342.069 330.331 342.053 330.322 342.035C330.313 342.017 330.309 341.997 330.312 341.977L337.898 296.344C338.059 295.371 338.449 294.443 339.041 293.623C339.632 292.803 340.411 292.111 341.323 291.596L412.585 251.425C412.959 251.199 413.397 251.079 413.844 251.078C414.291 251.078 414.729 251.197 415.104 251.421C415.478 251.646 415.774 251.966 415.954 252.342C416.134 252.718 416.191 253.135 416.118 253.54Z" fill="#FAFAFA"/>
<path d="M330.486 342.087L289.008 319.947C288.052 319.437 287.258 318.705 286.706 317.824C286.154 316.943 285.864 315.945 285.863 314.929L330.847 338.803L330.486 342.087Z" fill="#E0E0E0"/>
<path d="M371.121 298.89C371.121 302.26 373.69 303.613 376.848 301.94C378.518 300.941 379.908 299.594 380.905 298.008C381.903 296.422 382.479 294.643 382.588 292.814C382.588 289.444 380.019 288.091 376.848 289.763C375.182 290.765 373.795 292.114 372.801 293.699C371.806 295.284 371.23 297.063 371.121 298.89Z" fill="#E0E0E0"/>
<path d="M285.221 157.698C285.221 157.698 281.689 152.901 283.883 151.351C286.078 149.801 287.67 154.733 285.221 157.698Z" fill="#263238"/>
<path d="M285.81 158.67C285.81 158.67 279.575 157.957 279.722 155.448C279.869 152.938 284.994 155.054 285.81 158.67Z" fill="#263238"/>
<path d="M284.539 204.34C284.539 204.34 289.128 215.41 299.699 214.032C310.269 212.655 305.907 204.34 305.907 204.34H284.539Z" fill="#FFA8A7"/>
<path d="M270.517 210.588C270.517 210.588 277.474 213.651 276.404 226.516C275.333 239.382 269.807 265.311 269.807 265.311C269.807 265.311 244.907 274.585 242.526 261.51C241.923 258.127 248.199 226.848 253.564 220.231C255.534 217.654 258.052 215.47 260.965 213.813C263.879 212.155 267.128 211.058 270.517 210.588Z" fill="#FF4C60"/>
<path opacity="0.2" d="M270.517 210.588C270.517 210.588 277.474 213.651 276.404 226.516C275.333 239.382 269.807 265.311 269.807 265.311C269.807 265.311 244.907 274.585 242.526 261.51C241.923 258.127 248.199 226.848 253.564 220.231C255.534 217.654 258.052 215.47 260.965 213.813C263.879 212.155 267.128 211.058 270.517 210.588Z" fill="black"/>
<path d="M344.709 435.42C345.643 436.722 347.076 437.653 348.723 438.028C350.235 438.249 347.184 434.645 350.824 433.194C354.463 431.742 362.799 429.762 363.548 432.64L364.471 436.232C365.341 439.627 367.106 442.774 369.609 445.395C372.038 448.099 374.805 450.53 377.851 452.64C382.614 455.457 390.442 462.283 380.393 468.101C370.345 473.919 358.009 468.999 355.587 462.394C353.165 455.789 350.609 453.87 349.325 452.775C346.619 451.03 344.689 448.444 343.893 445.494C343.24 442.571 342.793 439.613 342.555 436.638C342.504 436.037 342.632 435.435 342.924 434.896C343.216 434.357 343.662 433.9 344.214 433.575L344.709 435.42Z" fill="#455A64"/>
<path d="M380.447 468.077C370.398 473.882 358.062 468.975 355.64 462.369C353.218 455.764 350.663 453.846 349.378 452.751C347.11 451.243 345.367 449.162 344.361 446.761C344.361 446.933 344.361 447.13 344.361 447.302C344.749 453.021 348.562 454.362 349.847 455.469C351.131 456.576 353.245 458.372 355.667 464.989C358.089 471.607 370.826 475.715 380.861 469.909C385.745 467.093 386.401 464.03 385.25 461.299C385.491 463.526 384.26 465.875 380.447 468.077Z" fill="#263238"/>
<path d="M332.172 380.267L300.167 397.29L259.759 375.839L291.871 358.815C292.292 358.598 292.767 358.483 293.249 358.483C293.732 358.483 294.207 358.598 294.628 358.815L332.212 378.766C332.351 378.847 332.466 378.959 332.543 379.092C332.621 379.226 332.66 379.376 332.656 379.527C332.652 379.678 332.605 379.826 332.52 379.956C332.435 380.085 332.315 380.192 332.172 380.267Z" fill="#FF4C60"/>
<path opacity="0.7" d="M332.172 380.267L300.167 397.29L259.759 375.839L291.871 358.815C292.292 358.598 292.767 358.483 293.249 358.483C293.732 358.483 294.207 358.598 294.628 358.815L332.212 378.766C332.351 378.847 332.466 378.959 332.543 379.092C332.621 379.226 332.66 379.376 332.656 379.527C332.652 379.678 332.605 379.826 332.52 379.956C332.435 380.085 332.315 380.192 332.172 380.267Z" fill="black"/>
<path d="M329.951 379.652L300.167 395.457L262.556 375.507L292.406 359.664C292.793 359.453 293.235 359.342 293.684 359.342C294.134 359.342 294.575 359.453 294.962 359.664L329.951 378.225C330.087 378.297 330.2 378.401 330.278 378.527C330.357 378.652 330.398 378.794 330.398 378.938C330.398 379.083 330.357 379.225 330.278 379.35C330.2 379.475 330.087 379.579 329.951 379.652Z" fill="white"/>
<path d="M300.167 395.458V392.37L330.406 376.331V378.951L300.167 395.458Z" fill="white"/>
<path d="M300.167 395.457V392.37L262.556 372.419V375.506L300.167 395.457Z" fill="#E0E0E0"/>
<path d="M332.172 375.384L300.167 392.37L259.759 370.931L291.871 353.908C292.292 353.691 292.767 353.576 293.249 353.576C293.732 353.576 294.207 353.691 294.628 353.908L332.172 373.92C332.304 374 332.413 374.108 332.489 374.236C332.564 374.364 332.603 374.507 332.603 374.652C332.603 374.798 332.564 374.941 332.489 375.068C332.413 375.196 332.304 375.305 332.172 375.384Z" fill="#FF4C60"/>
<path opacity="0.5" d="M332.172 375.384L300.167 392.37L259.759 370.931L291.871 353.908C292.292 353.691 292.767 353.576 293.249 353.576C293.732 353.576 294.207 353.691 294.628 353.908L332.172 373.92C332.304 374 332.413 374.108 332.489 374.236C332.564 374.364 332.603 374.507 332.603 374.652C332.603 374.798 332.564 374.941 332.489 375.068C332.413 375.196 332.304 375.305 332.172 375.384Z" fill="black"/>
<path d="M295.979 395.039C295.887 395.081 295.786 395.103 295.684 395.103C295.582 395.103 295.481 395.081 295.39 395.039C295.274 394.982 295.176 394.897 295.108 394.793C295.04 394.689 295.003 394.57 295.002 394.449V391.632C295.008 391.002 295.19 390.385 295.53 389.838C295.869 389.291 296.355 388.833 296.942 388.508L297.062 388.434C297.118 388.406 297.18 388.392 297.243 388.393C297.306 388.394 297.368 388.411 297.422 388.44C297.476 388.47 297.521 388.513 297.552 388.563C297.583 388.614 297.598 388.671 297.598 388.729C297.598 388.883 297.664 389.03 297.782 389.138C297.9 389.246 298.06 389.307 298.226 389.307C298.393 389.307 298.553 389.246 298.671 389.138C298.789 389.03 298.855 388.883 298.855 388.729C298.858 388.467 298.784 388.208 298.64 387.981C298.496 387.753 298.289 387.566 298.039 387.438C297.795 387.302 297.515 387.23 297.23 387.23C296.944 387.23 296.664 387.302 296.42 387.438L296.3 387.499C295.522 387.924 294.877 388.526 294.429 389.249C293.981 389.971 293.745 390.788 293.744 391.62V394.412C293.744 394.742 293.841 395.066 294.025 395.35C294.209 395.633 294.472 395.866 294.788 396.023C295.076 396.164 295.398 396.236 295.724 396.232C296.12 396.235 296.507 396.128 296.835 395.925C296.956 395.849 297.041 395.735 297.076 395.605L295.979 395.039Z" fill="white"/>
<path d="M289.998 391.866C289.907 391.908 289.806 391.93 289.704 391.93C289.602 391.93 289.501 391.908 289.409 391.866C289.293 391.808 289.196 391.723 289.127 391.619C289.059 391.516 289.022 391.397 289.021 391.275V388.483C289.026 387.852 289.206 387.231 289.546 386.682C289.886 386.133 290.373 385.673 290.961 385.347H291.082C291.137 385.319 291.199 385.304 291.263 385.304C291.326 385.304 291.388 385.319 291.443 385.347C291.496 385.376 291.54 385.418 291.57 385.467C291.601 385.517 291.617 385.573 291.617 385.63C291.617 385.783 291.683 385.93 291.801 386.038C291.919 386.147 292.079 386.208 292.246 386.208C292.413 386.208 292.573 386.147 292.691 386.038C292.809 385.93 292.875 385.783 292.875 385.63C292.866 385.377 292.786 385.132 292.643 384.916C292.5 384.7 292.299 384.523 292.059 384.4C291.814 384.264 291.534 384.192 291.249 384.192C290.964 384.192 290.684 384.264 290.44 384.4L290.319 384.461C289.541 384.886 288.897 385.488 288.449 386.211C288.001 386.933 287.765 387.75 287.764 388.582V391.374C287.764 391.704 287.861 392.028 288.044 392.311C288.228 392.595 288.492 392.828 288.807 392.985C289.095 393.126 289.418 393.198 289.744 393.194C290.139 393.197 290.526 393.09 290.854 392.887C290.975 392.811 291.061 392.697 291.095 392.567L289.998 391.866Z" fill="white"/>
<path d="M284.017 388.68C283.925 388.72 283.825 388.74 283.723 388.74C283.621 388.74 283.521 388.72 283.428 388.68C283.312 388.623 283.215 388.538 283.146 388.434C283.078 388.33 283.042 388.211 283.04 388.09V385.298C283.045 384.666 283.225 384.046 283.565 383.497C283.905 382.947 284.392 382.488 284.981 382.161L285.101 382.1C285.156 382.072 285.218 382.057 285.282 382.057C285.345 382.057 285.407 382.072 285.462 382.1C285.515 382.129 285.559 382.171 285.589 382.22C285.62 382.27 285.636 382.326 285.636 382.383C285.636 382.536 285.702 382.683 285.82 382.791C285.938 382.9 286.098 382.961 286.265 382.961C286.432 382.961 286.592 382.9 286.71 382.791C286.828 382.683 286.894 382.536 286.894 382.383C286.885 382.13 286.805 381.884 286.662 381.669C286.519 381.453 286.318 381.276 286.078 381.153C285.833 381.017 285.554 380.945 285.268 380.945C284.983 380.945 284.703 381.017 284.459 381.153L284.338 381.214C283.56 381.638 282.916 382.241 282.468 382.964C282.02 383.686 281.784 384.503 281.783 385.335V388.127C281.783 388.457 281.88 388.781 282.063 389.064C282.247 389.348 282.511 389.581 282.826 389.738C283.114 389.879 283.437 389.951 283.763 389.947C284.158 389.95 284.545 389.842 284.873 389.64C284.994 389.564 285.08 389.45 285.114 389.32L284.017 388.68Z" fill="white"/>
<path d="M278.036 385.519C277.944 385.559 277.844 385.579 277.742 385.579C277.64 385.579 277.54 385.559 277.447 385.519C277.331 385.462 277.234 385.377 277.165 385.273C277.097 385.169 277.061 385.05 277.059 384.929V382.137C277.064 381.505 277.244 380.885 277.584 380.336C277.924 379.786 278.411 379.327 279 379L279.12 378.939C279.175 378.911 279.237 378.896 279.301 378.896C279.364 378.896 279.426 378.911 279.481 378.939C279.534 378.968 279.578 379.01 279.608 379.059C279.639 379.109 279.655 379.165 279.655 379.221C279.655 379.375 279.721 379.522 279.839 379.63C279.957 379.739 280.117 379.8 280.284 379.8C280.451 379.8 280.611 379.739 280.729 379.63C280.847 379.522 280.913 379.375 280.913 379.221C280.904 378.969 280.824 378.723 280.681 378.508C280.538 378.292 280.337 378.114 280.097 377.991C279.852 377.856 279.573 377.784 279.287 377.784C279.002 377.784 278.722 377.856 278.478 377.991L278.357 378.053C277.579 378.477 276.935 379.08 276.487 379.803C276.039 380.525 275.803 381.342 275.802 382.173V384.966C275.802 385.296 275.899 385.62 276.082 385.903C276.266 386.187 276.53 386.42 276.845 386.577C277.133 386.718 277.456 386.79 277.782 386.786C278.177 386.788 278.564 386.681 278.893 386.478C279.013 386.403 279.099 386.289 279.133 386.159L278.036 385.519Z" fill="white"/>
<path d="M272.055 382.345C271.963 382.385 271.863 382.405 271.761 382.405C271.659 382.405 271.559 382.385 271.467 382.345C271.35 382.288 271.253 382.203 271.185 382.099C271.116 381.995 271.08 381.876 271.079 381.755V378.963C271.083 378.331 271.263 377.711 271.603 377.162C271.943 376.612 272.43 376.153 273.019 375.826H273.139C273.194 375.798 273.256 375.784 273.32 375.784C273.383 375.784 273.445 375.798 273.5 375.826C273.553 375.856 273.597 375.897 273.627 375.947C273.658 375.996 273.674 376.052 273.674 376.109C273.674 376.263 273.74 376.41 273.858 376.518C273.976 376.626 274.136 376.687 274.303 376.687C274.47 376.687 274.63 376.626 274.748 376.518C274.866 376.41 274.932 376.263 274.932 376.109C274.923 375.857 274.843 375.611 274.7 375.395C274.557 375.18 274.356 375.002 274.116 374.879C273.872 374.744 273.592 374.672 273.306 374.672C273.021 374.672 272.741 374.744 272.497 374.879L272.376 374.941C271.598 375.365 270.954 375.968 270.506 376.69C270.058 377.413 269.822 378.23 269.821 379.061V381.853C269.821 382.183 269.918 382.507 270.101 382.791C270.285 383.075 270.549 383.307 270.864 383.465C271.155 383.6 271.475 383.672 271.801 383.674C272.196 383.676 272.583 383.569 272.912 383.366C273.032 383.291 273.118 383.177 273.152 383.046L272.055 382.345Z" fill="white"/>
<path d="M266.074 379.172C265.982 379.212 265.882 379.232 265.78 379.232C265.678 379.232 265.578 379.212 265.486 379.172C265.369 379.115 265.272 379.03 265.204 378.926C265.135 378.822 265.099 378.703 265.098 378.582V375.765C265.102 375.133 265.282 374.513 265.622 373.964C265.962 373.415 266.449 372.955 267.038 372.629L267.158 372.567C267.213 372.539 267.276 372.524 267.339 372.524C267.402 372.524 267.464 372.539 267.519 372.567C267.574 372.595 267.62 372.636 267.65 372.686C267.681 372.736 267.696 372.793 267.693 372.85C267.693 373.003 267.76 373.15 267.877 373.259C267.995 373.367 268.155 373.428 268.322 373.428C268.489 373.428 268.649 373.367 268.767 373.259C268.885 373.15 268.951 373.003 268.951 372.85C268.937 372.594 268.852 372.346 268.704 372.129C268.557 371.912 268.351 371.734 268.107 371.61C267.863 371.487 267.588 371.423 267.31 371.425C267.031 371.427 266.758 371.494 266.516 371.62L266.395 371.694C265.617 372.118 264.973 372.721 264.525 373.443C264.077 374.166 263.841 374.983 263.84 375.814V378.606C263.84 378.936 263.937 379.26 264.12 379.544C264.304 379.828 264.568 380.06 264.883 380.218C265.174 380.353 265.494 380.425 265.82 380.427C266.215 380.429 266.602 380.322 266.931 380.119C267.051 380.044 267.137 379.93 267.171 379.799L266.074 379.172Z" fill="white"/>
<path d="M336.293 367.708L301.692 386.072L256.655 362.173L291.269 343.81L336.293 367.708Z" fill="#E6E6E6"/>
<path d="M338.287 367.106L302.134 382.751L259.425 355.458L295.591 339.824L338.287 367.106Z" fill="#FAFAFA"/>
<path d="M257.565 318.263H228.196L230.872 346.836C231.046 347.741 231.455 348.594 232.066 349.323C232.676 350.051 233.469 350.632 234.377 351.018C237.022 352.254 239.947 352.899 242.914 352.899C245.881 352.899 248.806 352.254 251.45 351.018C252.356 350.63 253.148 350.048 253.758 349.32C254.368 348.592 254.779 347.74 254.956 346.836L257.565 318.263Z" fill="#FF4C60"/>
<path d="M259.438 316.701V314.438H258.863C257.913 312.754 256.423 311.38 254.595 310.502C248.132 307.07 237.642 307.07 231.18 310.502C229.348 311.376 227.857 312.751 226.911 314.438H226.323V316.725C226.323 318.964 227.942 321.215 231.18 322.937C237.642 326.368 248.132 326.368 254.595 322.937C257.833 321.215 259.452 318.952 259.438 316.701Z" fill="#E0E0E0"/>
<path d="M254.595 320.784C248.132 324.215 237.642 324.215 231.18 320.784C224.717 317.352 224.704 311.792 231.18 308.361C237.655 304.929 248.132 304.917 254.595 308.361C261.057 311.805 261.057 317.34 254.595 320.784Z" fill="#EBEBEB"/>
<path d="M256.16 313.65V311.842H255.691C254.93 310.493 253.733 309.394 252.266 308.693C249.364 307.339 246.155 306.634 242.9 306.634C239.645 306.634 236.437 307.339 233.534 308.693C232.063 309.388 230.865 310.489 230.109 311.842H229.641V313.65C229.641 315.458 230.979 317.266 233.534 318.632C236.437 319.985 239.645 320.691 242.9 320.691C246.155 320.691 249.364 319.985 252.266 318.632C254.862 317.242 256.16 315.434 256.16 313.65Z" fill="#E0E0E0"/>
<path d="M252.266 316.897C249.364 318.251 246.155 318.956 242.9 318.956C239.645 318.956 236.437 318.251 233.534 316.897C228.343 314.154 228.343 309.689 233.534 306.946C236.437 305.592 239.645 304.887 242.9 304.887C246.155 304.887 249.364 305.592 252.266 306.946C257.444 309.689 257.444 314.154 252.266 316.897Z" fill="#F5F5F5"/>
<path d="M250.099 315.445C247.861 316.488 245.388 317.032 242.88 317.032C240.372 317.032 237.899 316.488 235.662 315.445C231.795 313.404 231.648 310.132 235.26 308.065C235.388 307.979 235.522 307.901 235.662 307.832C236.537 307.373 237.472 307.018 238.445 306.774C242.336 305.765 246.497 306.143 250.099 307.832C254.099 309.96 254.099 313.33 250.099 315.445Z" fill="#F0F0F0"/>
<path d="M235.662 308.878C237.899 307.829 240.375 307.282 242.887 307.282C245.399 307.282 247.874 307.829 250.112 308.878C250.836 309.189 251.476 309.646 251.983 310.214C252.49 310.782 252.852 311.448 253.042 312.162C253.35 310.6 252.36 308.976 250.112 307.783C247.871 306.745 245.396 306.204 242.887 306.204C240.377 306.204 237.903 306.745 235.662 307.783C233.4 309.013 232.424 310.6 232.718 312.162C232.91 311.447 233.274 310.78 233.784 310.212C234.293 309.644 234.935 309.188 235.662 308.878Z" fill="#E0E0E0"/>
<path d="M241.121 309.234L238.164 310.968L235.274 309.062V308.016C235.402 307.93 235.536 307.851 235.675 307.782C236.551 307.324 237.486 306.969 238.458 306.725V307.5L241.121 309.234Z" fill="#E0E0E0"/>
<path d="M589.871 141.45L423.316 52.9888C422.615 52.5134 421.766 52.2568 420.895 52.2568C420.023 52.2568 419.174 52.5134 418.473 52.9888L412.706 56.6788L416.64 61.156V184.587C416.64 189.113 419.637 194.427 423.33 196.321L588.238 283.848L588.546 288.657L594.621 284.832C595.318 284.229 595.856 283.488 596.194 282.665C596.533 281.843 596.663 280.96 596.574 280.084V153.123C596.561 148.597 593.563 143.345 589.871 141.45Z" fill="#FF4C60"/>
<path opacity="0.3" d="M589.871 141.45L423.316 52.9888C422.615 52.5134 421.766 52.2568 420.895 52.2568C420.023 52.2568 419.174 52.5134 418.473 52.9888L412.706 56.6788L416.64 61.156V184.587C416.64 189.113 419.637 194.427 423.33 196.321L588.238 283.848L588.546 288.657L594.621 284.832C595.318 284.229 595.856 283.488 596.194 282.665C596.533 281.843 596.663 280.96 596.574 280.084V153.123C596.561 148.597 593.563 143.345 589.871 141.45Z" fill="black"/>
<path d="M584.197 288.312L417.643 199.912C413.964 197.957 410.953 192.704 410.953 188.178V61.2174C410.953 56.7033 413.95 54.6246 417.643 56.5803L584.197 144.98C587.89 146.936 590.887 152.188 590.887 156.715V283.663C590.887 288.189 587.89 290.28 584.197 288.312Z" fill="#FF4C60"/>
<path d="M584.197 288.312L417.643 199.912C413.964 197.957 410.953 192.704 410.953 188.178V61.2174C410.953 56.7033 413.95 54.6246 417.643 56.5803L584.197 144.98C587.89 146.936 590.887 152.188 590.887 156.715V283.663C590.887 288.189 587.89 290.28 584.197 288.312Z" fill="#FF4C60"/>
<path d="M584.197 144.98L417.643 56.5803C413.964 54.6246 410.953 56.7033 410.953 61.2174V67.3674L590.874 162.852V156.702C590.887 152.188 587.89 146.936 584.197 144.98Z" fill="#455A64"/>
<path d="M414.994 57.0728C415.696 57.1031 416.378 57.2979 416.974 57.6386L583.529 146.039C586.793 147.773 589.55 152.656 589.55 156.715V283.663C589.55 286.123 588.493 287.821 586.874 287.821C586.166 287.79 585.479 287.591 584.88 287.243L418.312 198.843C415.061 197.121 412.305 192.225 412.305 188.178V61.2179C412.305 58.6964 413.362 57.0728 414.981 57.0728H414.994ZM414.981 55.8428C412.613 55.8428 410.967 57.8477 410.967 61.2179V188.191C410.967 192.717 413.964 197.969 417.657 199.925L584.198 288.313C585.003 288.772 585.926 289.027 586.874 289.051C589.242 289.051 590.888 287.034 590.888 283.663V156.715C590.888 152.189 587.891 146.875 584.198 144.981L417.643 56.5808C416.84 56.118 415.915 55.8631 414.967 55.8428H414.981Z" fill="#FF4C60"/>
<path d="M488.183 123C487.934 123.005 487.688 122.945 487.474 122.828L424.066 89.2245C423.769 89.0395 423.559 88.7578 423.478 88.4361C423.398 88.1144 423.453 87.7767 423.633 87.4911C423.813 87.2055 424.104 86.9933 424.448 86.8973C424.791 86.8012 425.162 86.8285 425.484 86.9736L488.892 120.626C489.178 120.763 489.405 120.985 489.536 121.256C489.666 121.527 489.692 121.831 489.61 122.118C489.527 122.404 489.341 122.656 489.081 122.832C488.822 123.008 488.505 123.098 488.183 123.086V123Z" fill="white"/>
<path d="M577.387 170.405C577.137 170.406 576.891 170.342 576.678 170.221L529.714 145.301C529.388 145.128 529.15 144.843 529.052 144.508C528.954 144.174 529.005 143.817 529.193 143.517C529.381 143.217 529.691 142.998 530.055 142.908C530.418 142.818 530.806 142.865 531.133 143.038L578.096 167.97C578.383 168.106 578.61 168.328 578.74 168.599C578.871 168.871 578.897 169.174 578.814 169.461C578.731 169.747 578.545 170 578.286 170.176C578.026 170.352 577.71 170.441 577.387 170.43V170.405Z" fill="white"/>
<path d="M520.241 140.073C519.993 140.07 519.749 140.011 519.532 139.901L500.412 129.766C500.237 129.687 500.082 129.576 499.956 129.44C499.83 129.304 499.735 129.145 499.679 128.974C499.622 128.803 499.604 128.623 499.627 128.445C499.649 128.268 499.711 128.096 499.808 127.941C499.906 127.787 500.037 127.652 500.193 127.546C500.35 127.439 500.529 127.364 500.718 127.324C500.908 127.284 501.105 127.28 501.296 127.313C501.487 127.346 501.669 127.415 501.83 127.515L520.91 137.638C521.196 137.774 521.423 137.997 521.554 138.268C521.684 138.539 521.71 138.843 521.628 139.129C521.545 139.416 521.359 139.668 521.099 139.844C520.84 140.02 520.523 140.11 520.201 140.098L520.241 140.073Z" fill="white"/>
<path d="M488.183 204.685C487.934 204.684 487.69 204.625 487.474 204.513L424.066 170.86C423.769 170.675 423.559 170.394 423.478 170.072C423.398 169.75 423.453 169.412 423.633 169.127C423.813 168.841 424.104 168.629 424.448 168.533C424.791 168.437 425.162 168.464 425.484 168.609L488.892 202.25C489.217 202.424 489.453 202.71 489.548 203.045C489.643 203.379 489.59 203.735 489.4 204.033C489.283 204.235 489.108 204.403 488.893 204.519C488.677 204.634 488.432 204.691 488.183 204.685Z" fill="white"/>
<path d="M577.387 252.028C577.138 252.032 576.893 251.972 576.678 251.855L529.714 226.936C529.388 226.763 529.15 226.478 529.052 226.143C528.954 225.809 529.005 225.452 529.193 225.152C529.381 224.852 529.691 224.633 530.055 224.543C530.418 224.453 530.806 224.499 531.133 224.672L578.096 249.604C578.42 249.777 578.656 250.06 578.754 250.391C578.851 250.723 578.803 251.077 578.618 251.376C578.493 251.573 578.313 251.738 578.097 251.852C577.881 251.966 577.636 252.027 577.387 252.028Z" fill="white"/>
<path d="M520.241 221.696C519.992 221.7 519.746 221.641 519.532 221.524L500.412 211.401C500.237 211.322 500.082 211.211 499.956 211.075C499.83 210.939 499.735 210.78 499.679 210.609C499.622 210.438 499.604 210.258 499.627 210.08C499.649 209.902 499.711 209.731 499.808 209.576C499.906 209.421 500.037 209.287 500.193 209.18C500.35 209.074 500.529 208.999 500.718 208.959C500.908 208.919 501.105 208.915 501.296 208.948C501.487 208.981 501.669 209.049 501.83 209.15L520.91 219.273C521.233 219.445 521.47 219.728 521.567 220.06C521.665 220.391 521.616 220.745 521.432 221.044C521.31 221.236 521.136 221.397 520.928 221.511C520.72 221.625 520.483 221.689 520.241 221.696Z" fill="white"/>
<path d="M488.182 223.861C487.933 223.865 487.688 223.805 487.473 223.688L424.065 190.048C423.739 189.875 423.501 189.59 423.403 189.255C423.305 188.921 423.356 188.565 423.544 188.264C423.732 187.964 424.042 187.745 424.406 187.655C424.769 187.565 425.157 187.612 425.484 187.785L488.892 221.401C489.178 221.537 489.405 221.759 489.535 222.03C489.666 222.301 489.692 222.605 489.609 222.892C489.527 223.178 489.34 223.43 489.081 223.607C488.822 223.783 488.505 223.872 488.182 223.861Z" fill="white"/>
<path d="M557.397 260.613C557.148 260.617 556.903 260.558 556.688 260.441L529.714 246.123C529.539 246.045 529.384 245.934 529.258 245.798C529.132 245.661 529.037 245.503 528.981 245.332C528.924 245.161 528.906 244.981 528.929 244.803C528.951 244.625 529.013 244.454 529.11 244.299C529.208 244.144 529.339 244.009 529.496 243.903C529.652 243.797 529.831 243.721 530.021 243.681C530.21 243.641 530.407 243.638 530.598 243.671C530.789 243.703 530.971 243.772 531.133 243.872L558.107 258.19C558.268 258.274 558.41 258.387 558.523 258.521C558.637 258.656 558.721 258.811 558.769 258.975C558.818 259.14 558.83 259.312 558.806 259.481C558.782 259.65 558.722 259.813 558.628 259.961C558.503 260.159 558.323 260.323 558.107 260.437C557.891 260.551 557.647 260.612 557.397 260.613Z" fill="white"/>
<path d="M520.241 240.896C519.993 240.893 519.75 240.834 519.532 240.724L500.412 230.601C500.086 230.428 499.847 230.143 499.749 229.808C499.652 229.474 499.702 229.117 499.89 228.817C500.078 228.517 500.388 228.298 500.752 228.208C501.116 228.118 501.504 228.165 501.83 228.337L520.91 238.46C521.197 238.597 521.424 238.819 521.554 239.09C521.684 239.361 521.711 239.665 521.628 239.952C521.545 240.238 521.359 240.49 521.1 240.666C520.84 240.842 520.523 240.932 520.201 240.92L520.241 240.896Z" fill="white"/>
<path d="M456.566 116.42C456.315 116.421 456.07 116.357 455.857 116.236L424.066 99.3724C423.821 99.1712 423.659 98.8979 423.609 98.5993C423.558 98.3007 423.622 97.9952 423.79 97.7352C423.957 97.4751 424.218 97.2767 424.527 97.1737C424.836 97.0707 425.174 97.0697 425.484 97.1707L457.275 114.034C457.6 114.209 457.836 114.495 457.931 114.829C458.026 115.163 457.973 115.519 457.784 115.818C457.66 116.01 457.481 116.168 457.266 116.275C457.051 116.381 456.809 116.431 456.566 116.42Z" fill="white"/>
<path d="M548.125 165.018C547.877 165.015 547.633 164.955 547.416 164.845L500.412 139.913C500.237 139.835 500.082 139.724 499.956 139.588C499.83 139.451 499.735 139.293 499.679 139.122C499.622 138.951 499.604 138.771 499.627 138.593C499.649 138.415 499.711 138.244 499.808 138.089C499.906 137.934 500.037 137.799 500.193 137.693C500.35 137.587 500.529 137.511 500.718 137.471C500.908 137.431 501.105 137.428 501.296 137.461C501.487 137.494 501.669 137.562 501.83 137.662L548.794 162.582C549.08 162.719 549.307 162.941 549.438 163.212C549.568 163.483 549.594 163.787 549.512 164.073C549.429 164.36 549.243 164.612 548.983 164.788C548.724 164.964 548.407 165.054 548.085 165.042L548.125 165.018Z" fill="white"/>
<path d="M488.624 133.431C488.375 133.435 488.129 133.376 487.915 133.259L468.835 123.136C468.509 122.963 468.27 122.678 468.172 122.343C468.074 122.009 468.125 121.652 468.313 121.352C468.501 121.052 468.811 120.833 469.175 120.743C469.539 120.653 469.927 120.7 470.253 120.873L489.333 130.995C489.658 131.17 489.894 131.456 489.989 131.79C490.084 132.125 490.031 132.48 489.842 132.779C489.725 132.981 489.549 133.149 489.334 133.264C489.119 133.379 488.873 133.437 488.624 133.431Z" fill="white"/>
<path d="M488.183 143.345C487.932 143.346 487.686 143.282 487.473 143.16L424.066 109.471C423.811 109.272 423.64 108.997 423.585 108.694C423.529 108.391 423.592 108.08 423.761 107.815C423.931 107.55 424.196 107.349 424.512 107.247C424.827 107.145 425.171 107.148 425.484 107.257L488.892 140.91C489.216 141.084 489.452 141.37 489.548 141.705C489.643 142.039 489.59 142.395 489.4 142.693C489.283 142.895 489.107 143.063 488.892 143.178C488.677 143.293 488.431 143.351 488.183 143.345Z" fill="white"/>
<path d="M542.934 172.397C542.684 172.402 542.439 172.342 542.225 172.225L529.714 165.583C529.539 165.505 529.384 165.394 529.258 165.258C529.132 165.121 529.037 164.963 528.981 164.792C528.924 164.621 528.906 164.441 528.929 164.263C528.951 164.085 529.013 163.913 529.11 163.759C529.208 163.604 529.339 163.469 529.496 163.363C529.652 163.257 529.831 163.181 530.021 163.141C530.21 163.101 530.407 163.098 530.598 163.131C530.789 163.163 530.971 163.232 531.133 163.332L543.643 169.974C543.966 170.147 544.202 170.43 544.3 170.761C544.398 171.093 544.349 171.447 544.165 171.746C544.039 171.943 543.859 172.107 543.643 172.222C543.427 172.336 543.183 172.397 542.934 172.397Z" fill="white"/>
<path d="M462.814 140.023C462.566 140.02 462.322 139.961 462.105 139.851L449.568 133.209C449.406 133.123 449.265 133.009 449.151 132.873C449.037 132.737 448.954 132.582 448.905 132.417C448.857 132.251 448.844 132.078 448.868 131.908C448.893 131.738 448.953 131.574 449.046 131.426C449.139 131.277 449.263 131.147 449.411 131.042C449.559 130.938 449.728 130.861 449.908 130.816C450.088 130.772 450.276 130.76 450.461 130.782C450.646 130.805 450.825 130.86 450.986 130.946L463.497 137.588C463.783 137.724 464.01 137.946 464.14 138.218C464.271 138.489 464.297 138.792 464.214 139.079C464.132 139.366 463.945 139.618 463.686 139.794C463.426 139.97 463.11 140.059 462.787 140.048L462.814 140.023Z" fill="white"/>
<path d="M520.241 160.356C519.993 160.353 519.75 160.294 519.532 160.183L500.412 150.061C500.251 149.975 500.109 149.861 499.995 149.725C499.881 149.589 499.798 149.434 499.749 149.268C499.701 149.103 499.688 148.93 499.713 148.76C499.737 148.59 499.797 148.426 499.89 148.277C499.983 148.128 500.108 147.998 500.255 147.894C500.403 147.789 500.572 147.712 500.752 147.668C500.932 147.623 501.12 147.612 501.305 147.634C501.49 147.656 501.669 147.712 501.83 147.797L520.91 157.92C521.197 158.057 521.424 158.279 521.554 158.55C521.684 158.821 521.711 159.125 521.628 159.411C521.545 159.698 521.359 159.95 521.1 160.126C520.84 160.302 520.523 160.392 520.201 160.38L520.241 160.356Z" fill="white"/>
<path d="M445.099 130.614C444.85 130.619 444.604 130.559 444.39 130.442L424.066 119.655C423.769 119.47 423.559 119.188 423.478 118.867C423.398 118.545 423.453 118.207 423.633 117.922C423.813 117.636 424.104 117.424 424.448 117.328C424.791 117.232 425.162 117.259 425.484 117.404L445.808 128.191C446.109 128.318 446.351 128.539 446.492 128.814C446.633 129.089 446.664 129.401 446.579 129.696C446.495 129.99 446.3 130.247 446.029 130.422C445.758 130.596 445.429 130.678 445.099 130.651V130.614Z" fill="white"/>
<path d="M488.624 153.75C488.375 153.755 488.13 153.695 487.915 153.578L468.835 143.418C468.661 143.34 468.505 143.229 468.379 143.093C468.253 142.956 468.159 142.798 468.102 142.627C468.045 142.455 468.028 142.275 468.05 142.098C468.072 141.92 468.134 141.748 468.232 141.594C468.329 141.439 468.46 141.304 468.617 141.198C468.773 141.092 468.952 141.016 469.142 140.976C469.331 140.936 469.528 140.933 469.719 140.966C469.911 140.998 470.092 141.067 470.254 141.167L489.333 151.29C489.62 151.427 489.847 151.649 489.977 151.92C490.108 152.191 490.134 152.495 490.051 152.781C489.968 153.068 489.782 153.32 489.523 153.496C489.263 153.672 488.947 153.762 488.624 153.75Z" fill="white"/>
<path d="M488.183 164.365C487.934 164.369 487.688 164.31 487.474 164.193L424.066 130.54C423.769 130.355 423.559 130.073 423.478 129.752C423.398 129.43 423.453 129.092 423.633 128.807C423.813 128.521 424.104 128.309 424.448 128.213C424.791 128.117 425.162 128.144 425.484 128.289L488.892 161.929C489.217 162.104 489.453 162.39 489.548 162.724C489.643 163.059 489.59 163.415 489.4 163.713C489.283 163.915 489.108 164.083 488.893 164.198C488.677 164.313 488.432 164.371 488.183 164.365Z" fill="white"/>
<path d="M577.387 211.708C577.141 211.72 576.895 211.669 576.678 211.56L529.714 186.641C529.388 186.468 529.15 186.183 529.052 185.848C528.954 185.514 529.005 185.157 529.193 184.857C529.381 184.557 529.691 184.338 530.055 184.248C530.418 184.158 530.806 184.205 531.133 184.377L578.096 209.31C578.42 209.482 578.656 209.765 578.754 210.096C578.851 210.428 578.803 210.782 578.618 211.081C578.489 211.274 578.308 211.433 578.092 211.543C577.877 211.653 577.634 211.71 577.387 211.708Z" fill="white"/>
<path d="M520.241 181.376C519.992 181.381 519.746 181.321 519.532 181.204L500.412 171.081C500.237 171.003 500.082 170.892 499.956 170.756C499.83 170.619 499.735 170.461 499.679 170.29C499.622 170.119 499.604 169.939 499.627 169.761C499.649 169.583 499.711 169.412 499.808 169.257C499.906 169.102 500.037 168.967 500.193 168.861C500.35 168.755 500.529 168.679 500.718 168.639C500.908 168.599 501.105 168.596 501.296 168.629C501.487 168.661 501.669 168.73 501.83 168.83L520.91 178.953C521.234 179.128 521.471 179.413 521.568 179.747C521.666 180.08 521.617 180.436 521.432 180.737C521.306 180.925 521.132 181.083 520.924 181.194C520.716 181.306 520.482 181.368 520.241 181.376Z" fill="white"/>
<path d="M456.566 157.723C456.316 157.727 456.071 157.668 455.856 157.551L424.065 140.688C423.739 140.515 423.501 140.23 423.403 139.895C423.305 139.561 423.356 139.204 423.544 138.904C423.732 138.604 424.042 138.385 424.406 138.295C424.769 138.205 425.157 138.251 425.484 138.424L457.275 155.3C457.561 155.437 457.788 155.659 457.918 155.93C458.049 156.201 458.075 156.505 457.992 156.791C457.91 157.078 457.723 157.33 457.464 157.506C457.205 157.682 456.888 157.772 456.566 157.76V157.723Z" fill="white"/>
<path d="M548.125 206.333C547.875 206.334 547.629 206.27 547.416 206.148L500.412 181.229C500.086 181.056 499.847 180.771 499.749 180.436C499.652 180.102 499.702 179.745 499.89 179.445C500.078 179.145 500.388 178.926 500.752 178.836C501.116 178.746 501.504 178.792 501.83 178.965L548.794 203.897C549.08 204.034 549.307 204.256 549.438 204.527C549.568 204.798 549.594 205.102 549.512 205.389C549.429 205.675 549.243 205.927 548.984 206.103C548.724 206.279 548.407 206.369 548.085 206.357L548.125 206.333Z" fill="white"/>
<path d="M488.624 174.746C488.376 174.743 488.133 174.684 487.915 174.574L468.835 164.439C468.661 164.36 468.505 164.249 468.379 164.113C468.253 163.977 468.159 163.818 468.102 163.647C468.045 163.476 468.028 163.296 468.05 163.118C468.072 162.941 468.134 162.769 468.232 162.614C468.329 162.459 468.46 162.325 468.617 162.219C468.773 162.112 468.952 162.037 469.142 161.997C469.331 161.957 469.528 161.953 469.719 161.986C469.911 162.019 470.092 162.088 470.254 162.188L489.333 172.311C489.658 172.485 489.894 172.771 489.989 173.106C490.085 173.44 490.032 173.796 489.842 174.094C489.725 174.296 489.549 174.464 489.334 174.579C489.119 174.695 488.873 174.752 488.624 174.746Z" fill="white"/>
<path d="M488.183 184.648C487.934 184.653 487.688 184.593 487.474 184.476L424.066 150.823C423.769 150.638 423.559 150.356 423.478 150.035C423.398 149.713 423.453 149.375 423.633 149.09C423.813 148.804 424.104 148.592 424.448 148.496C424.791 148.4 425.162 148.427 425.484 148.572L488.892 182.225C489.178 182.362 489.405 182.584 489.536 182.855C489.666 183.126 489.692 183.43 489.61 183.716C489.527 184.003 489.341 184.255 489.081 184.431C488.822 184.607 488.505 184.697 488.183 184.685V184.648Z" fill="white"/>
<path d="M542.934 213.713C542.686 213.71 542.442 213.651 542.225 213.541L529.714 206.899C529.539 206.82 529.384 206.709 529.258 206.573C529.132 206.437 529.037 206.278 528.981 206.107C528.924 205.936 528.906 205.756 528.929 205.578C528.951 205.401 529.013 205.229 529.11 205.074C529.208 204.919 529.339 204.785 529.496 204.678C529.652 204.572 529.831 204.497 530.021 204.457C530.21 204.417 530.407 204.413 530.598 204.446C530.789 204.479 530.971 204.548 531.133 204.648L543.643 211.277C543.929 211.414 544.156 211.636 544.286 211.907C544.417 212.178 544.443 212.482 544.36 212.769C544.278 213.055 544.091 213.307 543.832 213.483C543.573 213.66 543.256 213.749 542.934 213.737V213.713Z" fill="white"/>
<path d="M462.814 181.34C462.564 181.34 462.318 181.276 462.105 181.155L449.568 174.525C449.241 174.353 449.003 174.068 448.905 173.733C448.807 173.399 448.858 173.042 449.046 172.742C449.234 172.442 449.544 172.223 449.908 172.133C450.272 172.043 450.66 172.089 450.986 172.262L463.497 178.904C463.783 179.041 464.01 179.263 464.14 179.534C464.271 179.805 464.297 180.109 464.214 180.395C464.132 180.682 463.945 180.934 463.686 181.11C463.426 181.286 463.11 181.376 462.787 181.364L462.814 181.34Z" fill="white"/>
<path d="M520.241 201.72C519.993 201.717 519.75 201.658 519.532 201.548L500.412 191.376C500.086 191.203 499.847 190.918 499.749 190.584C499.652 190.249 499.702 189.893 499.89 189.593C500.078 189.292 500.388 189.073 500.752 188.983C501.116 188.893 501.504 188.94 501.83 189.113L520.95 199.26C521.237 199.397 521.464 199.619 521.594 199.89C521.725 200.161 521.751 200.465 521.668 200.752C521.585 201.038 521.399 201.29 521.14 201.466C520.88 201.642 520.564 201.732 520.241 201.72Z" fill="white"/>
<path d="M445.099 171.929C444.85 171.934 444.604 171.874 444.39 171.757L424.066 160.97C423.734 160.797 423.491 160.51 423.389 160.172C423.287 159.834 423.336 159.473 423.524 159.168C423.712 158.863 424.024 158.639 424.392 158.546C424.759 158.452 425.152 158.497 425.484 158.67L445.808 169.445C446.095 169.581 446.322 169.803 446.452 170.075C446.582 170.346 446.609 170.649 446.526 170.936C446.443 171.222 446.257 171.475 445.998 171.651C445.738 171.827 445.421 171.916 445.099 171.905V171.929Z" fill="white"/>
<path d="M488.624 195.03C488.375 195.034 488.129 194.974 487.915 194.857L468.835 184.734C468.509 184.562 468.27 184.277 468.172 183.942C468.074 183.608 468.125 183.251 468.313 182.951C468.501 182.651 468.811 182.432 469.175 182.342C469.539 182.252 469.927 182.298 470.253 182.471L489.333 192.606C489.619 192.743 489.846 192.965 489.977 193.236C490.107 193.507 490.133 193.811 490.051 194.098C489.968 194.384 489.782 194.636 489.522 194.812C489.263 194.988 488.946 195.078 488.624 195.066V195.03Z" fill="white"/>
<path d="M462.814 200.773C462.565 200.778 462.319 200.718 462.105 200.601L449.595 193.959C449.42 193.881 449.265 193.77 449.138 193.634C449.012 193.497 448.918 193.339 448.861 193.168C448.805 192.996 448.787 192.816 448.809 192.639C448.831 192.461 448.893 192.289 448.991 192.135C449.088 191.98 449.22 191.845 449.376 191.739C449.533 191.633 449.711 191.557 449.901 191.517C450.091 191.477 450.287 191.474 450.479 191.507C450.67 191.539 450.852 191.608 451.013 191.708L463.523 198.35C463.824 198.477 464.066 198.698 464.207 198.973C464.348 199.248 464.379 199.561 464.294 199.855C464.21 200.149 464.015 200.406 463.744 200.581C463.473 200.755 463.144 200.837 462.814 200.81V200.773Z" fill="white"/>
<path d="M445.099 191.376C444.851 191.373 444.607 191.314 444.39 191.204L424.065 180.417C423.739 180.244 423.501 179.959 423.403 179.625C423.305 179.29 423.356 178.934 423.544 178.634C423.732 178.333 424.042 178.114 424.406 178.024C424.769 177.934 425.157 177.981 425.484 178.154L445.808 188.941C446.094 189.077 446.321 189.3 446.452 189.571C446.582 189.842 446.608 190.146 446.526 190.432C446.443 190.719 446.257 190.971 445.997 191.147C445.738 191.323 445.421 191.413 445.099 191.401V191.376Z" fill="white"/>
<path d="M488.624 214.476C488.376 214.473 488.132 214.414 487.915 214.304L468.835 204.181C468.509 204.008 468.27 203.723 468.172 203.388C468.074 203.054 468.125 202.697 468.313 202.397C468.501 202.097 468.811 201.878 469.175 201.788C469.539 201.698 469.927 201.745 470.253 201.918L489.333 212.04C489.658 212.215 489.894 212.501 489.989 212.835C490.084 213.17 490.031 213.525 489.842 213.824C489.725 214.026 489.549 214.194 489.334 214.309C489.119 214.424 488.873 214.482 488.624 214.476Z" fill="white"/>
<path d="M437.325 101.882V149.04C437.325 149.803 437.031 150.27 436.563 150.479L434.596 151.475V149.864L434.315 101.377L436.884 100.147C437.171 100.688 437.322 101.28 437.325 101.882Z" fill="#263238"/>
<path d="M436.884 100.184L434.315 101.414L372.111 67.8469L370.626 67.0597L372.673 66.0019H372.74C372.931 65.9083 373.147 65.8667 373.362 65.882C373.578 65.8972 373.785 65.9687 373.958 66.088L435.506 98.6707C436.117 99.0395 436.596 99.5658 436.884 100.184Z" fill="#37474F"/>
<path d="M435.104 102.902V149.753C435.132 150.004 435.093 150.257 434.99 150.491C434.888 150.724 434.725 150.931 434.516 151.094H434.395C434.21 151.163 434.008 151.188 433.809 151.166C433.611 151.145 433.421 151.078 433.258 150.971L372.111 118.585C371.549 118.217 371.089 117.732 370.768 117.17C370.448 116.608 370.275 115.985 370.265 115.35V68.5732C370.237 68.3285 370.274 68.0813 370.372 67.8522C370.469 67.6232 370.625 67.4191 370.827 67.2571C370.881 67.2127 370.945 67.1791 371.014 67.1587C371.195 67.0989 371.39 67.08 371.581 67.1036C371.772 67.1271 371.953 67.1924 372.111 67.294L433.258 99.6307C433.851 99.9869 434.316 100.496 434.596 101.094C434.913 101.654 435.087 102.272 435.104 102.902Z" fill="#455A64"/>
<path d="M415.461 102.307L420.817 127.64L423.795 129.214L418.439 103.881L415.461 102.307Z" fill="#FAFAFA"/>
<path d="M371.134 67.2075C371.334 67.2128 371.528 67.2681 371.696 67.3674L433.244 99.9501C433.786 100.28 434.213 100.745 434.475 101.291C434.758 101.797 434.909 102.357 434.917 102.927V150.06C434.948 150.255 434.928 150.454 434.858 150.64C434.788 150.827 434.671 150.995 434.515 151.13H434.408C434.321 151.15 434.229 151.15 434.141 151.13C433.943 151.116 433.751 151.061 433.579 150.97L372.031 118.375C371.52 118.032 371.102 117.584 370.81 117.068C370.517 116.552 370.358 115.981 370.345 115.399V68.3883C370.323 68.1909 370.348 67.9914 370.42 67.8042C370.492 67.6171 370.608 67.4468 370.76 67.3059H370.88C370.959 67.2886 371.042 67.2886 371.121 67.3059L371.134 67.2075ZM371.121 66.9861C370.992 66.9856 370.864 67.0108 370.746 67.0599L370.559 67.1583C370.361 67.3247 370.208 67.5316 370.112 67.7624C370.017 67.9931 369.982 68.2412 370.01 68.4867V115.51C370.023 116.147 370.196 116.773 370.517 117.339C370.837 117.905 371.296 118.394 371.857 118.769L433.405 151.352C433.623 151.474 433.872 151.542 434.127 151.549C434.27 151.55 434.411 151.525 434.542 151.475L434.663 151.413C434.873 151.249 435.037 151.04 435.139 150.804C435.242 150.568 435.28 150.313 435.251 150.06V102.927C435.235 102.311 435.07 101.706 434.77 101.155C434.483 100.558 434.019 100.047 433.432 99.6795L371.884 67.0968C371.662 66.9699 371.409 66.8978 371.148 66.8877L371.121 66.9861Z" fill="#37474F"/>
<path d="M427.437 68.4257C427.437 69.7664 426.407 70.3076 425.149 69.6557C424.474 69.2542 423.914 68.7094 423.516 68.0672C423.118 67.4251 422.893 66.7043 422.861 65.9657C422.861 64.625 423.878 64.0838 425.149 64.7357C425.82 65.1417 426.377 65.6875 426.774 66.3288C427.172 66.97 427.399 67.6885 427.437 68.4257Z" fill="white"/>
<path d="M435.947 73.2465C435.947 74.5872 434.917 75.1407 433.646 74.4765C432.973 74.0728 432.415 73.5274 432.017 72.8858C431.619 72.2441 431.393 71.5245 431.358 70.7865C431.358 69.4458 432.388 68.8923 433.646 69.5565C434.321 69.9589 434.882 70.5036 435.282 71.1454C435.683 71.7872 435.911 72.5075 435.947 73.2465Z" fill="white"/>
<path d="M444.444 78.081C444.444 79.4217 443.427 79.9629 442.156 79.311C441.485 78.905 440.928 78.3592 440.531 77.718C440.133 77.0767 439.906 76.3582 439.868 75.621C439.868 74.2803 440.898 73.7391 442.156 74.391C442.831 74.7925 443.391 75.3373 443.789 75.9795C444.187 76.6217 444.412 77.3424 444.444 78.081Z" fill="white"/>
</svg>
