<svg width="86" height="73" viewBox="0 0 86 73" fill="none" xmlns="http://www.w3.org/2000/svg">
<path d="M42.9999 45.9898C29.2399 45.9898 18.9199 41.9018 18.9199 36.4998C18.9199 31.0978 29.2399 27.0098 42.9999 27.0098C56.7599 27.0098 67.0799 31.0978 67.0799 36.4998C67.0799 41.9018 56.7599 45.9898 42.9999 45.9898ZM42.9999 29.8568C30.7019 29.8568 22.1019 33.3608 22.1019 36.4998C22.1019 39.6388 30.7019 43.1428 42.9999 43.1428C55.2979 43.1428 63.8979 39.6388 63.8979 36.4998C63.8979 33.3608 55.2979 29.8568 42.9999 29.8568Z" fill="#77CBD2"/>
<path d="M42.9999 46.501C28.8959 46.501 18.3179 42.194 18.3179 36.5C18.3179 30.806 28.8959 26.499 42.9999 26.499C57.1039 26.499 67.6819 30.806 67.6819 36.5C67.6819 42.194 57.1039 46.501 42.9999 46.501ZM42.9999 27.521C29.5839 27.521 19.5219 31.39 19.5219 36.5C19.5219 41.61 29.5839 45.479 42.9999 45.479C56.4159 45.479 66.4779 41.61 66.4779 36.5C66.4779 31.39 56.4159 27.521 42.9999 27.521ZM42.9999 43.654C30.1859 43.654 21.4999 39.931 21.4999 36.5C21.4999 33.069 30.0999 29.346 42.9999 29.346C55.8999 29.346 64.4999 33.069 64.4999 36.5C64.4999 39.931 55.8139 43.654 42.9999 43.654ZM42.9999 30.368C30.4439 30.368 22.7039 33.945 22.7039 36.5C22.7039 39.055 30.4439 42.632 42.9999 42.632C55.5559 42.632 63.2959 39.055 63.2959 36.5C63.2959 33.945 55.5559 30.368 42.9999 30.368Z" fill="#472B29"/>
<path d="M33.9701 54.8961C32.8521 54.8961 31.9061 54.6771 31.0461 54.2391C25.8001 51.6111 26.9181 42.0481 33.7121 31.9011C38.4421 24.8201 44.8061 19.4911 49.9661 18.3231C51.8581 17.8851 53.5781 18.0311 54.9541 18.6881C60.2001 21.3161 59.0821 30.8791 52.2881 41.0261C47.5581 48.1071 41.1941 53.4361 36.0341 54.6041C35.3461 54.8231 34.6581 54.8961 33.9701 54.8961ZM52.0301 20.8051C51.6861 20.8051 51.2561 20.8781 50.7401 20.9511C46.5261 21.9001 40.7641 26.8641 36.4641 33.2151C30.5301 42.0481 29.5841 50.2971 32.5941 51.8301C33.1961 52.1221 34.0561 52.1951 35.1741 51.9761C39.3881 51.0271 45.1501 46.0631 49.4501 39.7121C55.3841 30.8791 56.3301 22.6301 53.3201 21.0971C52.9761 20.9511 52.5461 20.8051 52.0301 20.8051Z" fill="#77CBD2"/>
<path d="M33.97 55.4068C32.766 55.4068 31.648 55.1878 30.702 54.6768C25.112 51.9028 26.144 41.9748 33.11 31.6088C37.926 24.3818 44.462 18.9798 49.708 17.8118C51.772 17.3738 53.664 17.5198 55.212 18.2498C60.802 21.0238 59.77 30.9518 52.804 41.3178C47.988 48.5448 41.452 53.9468 36.206 55.1148C35.432 55.3338 34.744 55.4068 33.97 55.4068ZM52.03 18.6148C51.428 18.6148 50.74 18.6878 50.138 18.8338C45.15 19.9288 38.958 25.1848 34.314 32.1198C27.778 41.8288 26.574 51.3188 31.476 53.8008C32.68 54.3848 34.314 54.5308 36.034 54.1658C41.022 53.0708 47.214 47.8148 51.858 40.8798C58.394 31.1708 59.684 21.6808 54.696 19.2718C53.836 18.8338 52.976 18.6148 52.03 18.6148ZM33.97 52.7058C33.368 52.7058 32.852 52.5598 32.336 52.3408C28.552 50.5158 30.272 41.4638 35.948 32.9958C40.334 26.4988 46.182 21.4618 50.568 20.5128C51.772 20.2208 52.804 20.2938 53.578 20.6588C57.362 22.4838 55.642 31.5358 49.966 40.0038C45.58 46.5008 39.732 51.5378 35.346 52.4868C34.916 52.6328 34.4 52.7058 33.97 52.7058ZM52.03 21.3158C51.686 21.3158 51.342 21.3888 50.912 21.4618C46.784 22.4108 41.194 27.2288 36.98 33.5068C30.874 42.6318 30.444 50.2238 32.938 51.4648C33.454 51.6838 34.142 51.7568 35.002 51.5378C39.13 50.5888 44.72 45.7708 48.934 39.4928C55.04 30.3678 55.47 22.7758 52.976 21.5348C52.718 21.3888 52.374 21.3158 52.03 21.3158Z" fill="#472B29"/>
<path d="M52.0301 54.8959C51.3421 54.8959 50.6541 54.8229 49.9661 54.6769C44.8921 53.5089 38.5281 48.1799 33.7121 41.0989C26.9181 30.9519 25.8001 21.3889 31.0461 18.7609C32.4221 18.1039 34.1421 17.9579 36.0341 18.3959C41.1081 19.5639 47.4721 24.8929 52.2881 31.9739C59.0821 42.1209 60.2001 51.6839 54.9541 54.3119C54.0941 54.6769 53.0621 54.8959 52.0301 54.8959ZM33.9701 20.8049C33.4541 20.8049 33.0241 20.8779 32.6801 21.0969C29.5841 22.6299 30.6161 30.9519 36.5501 39.7119C40.8501 46.0629 46.5261 51.0269 50.8261 51.9759C51.8581 52.1949 52.7181 52.1949 53.4061 51.8299C56.5021 50.2969 55.4701 41.9749 49.5361 33.2149C45.2361 26.8639 39.5601 21.8999 35.2601 20.9509C34.7441 20.8779 34.4001 20.8049 33.9701 20.8049Z" fill="#77CBD2"/>
<path d="M52.03 55.4072C51.342 55.4072 50.568 55.3342 49.794 55.1152C44.548 53.9472 38.0119 48.4722 33.1959 41.3182C26.2299 30.9522 25.1979 21.0242 30.7879 18.2502C32.3359 17.5202 34.228 17.3012 36.292 17.8122C41.538 18.9802 48.074 24.4552 52.89 31.6092C59.856 41.9752 60.888 51.9032 55.298 54.6772C54.266 55.1882 53.234 55.4072 52.03 55.4072ZM33.97 18.6152C33.024 18.6152 32.078 18.8342 31.304 19.1992C26.402 21.6082 27.692 31.1712 34.142 40.8072C38.786 47.7422 45.064 52.9982 49.966 54.0932C51.686 54.4582 53.234 54.3852 54.524 53.7282C59.426 51.3192 58.136 41.7562 51.686 32.0472C47.0419 25.1122 40.764 19.8562 35.862 18.7612C35.26 18.6882 34.572 18.6152 33.97 18.6152ZM52.03 52.7062C51.6 52.7062 51.17 52.6332 50.654 52.5602C46.268 51.5382 40.42 46.5012 36.034 40.0772C30.358 31.6092 28.638 22.6302 32.422 20.7322C33.196 20.3672 34.228 20.2942 35.432 20.5862C39.818 21.6082 45.666 26.6452 50.052 33.0692C55.728 41.5372 57.448 50.5162 53.664 52.4142C53.148 52.5602 52.632 52.7062 52.03 52.7062ZM33.97 21.3162C33.54 21.3162 33.1959 21.3892 32.9379 21.5352C30.5299 22.7762 30.874 30.3682 36.98 39.4932C41.194 45.7712 46.784 50.5892 50.912 51.5382C51.772 51.7572 52.5459 51.6842 52.9759 51.4652C55.3839 50.2242 55.04 42.6322 48.934 33.5072C44.72 27.2292 39.2159 22.4112 35.0879 21.4622C34.6579 21.3892 34.314 21.3162 33.97 21.3162Z" fill="#472B29"/>
<path d="M43 40.5154C45.6123 40.5154 47.73 38.7178 47.73 36.5004C47.73 34.2829 45.6123 32.4854 43 32.4854C40.3877 32.4854 38.27 34.2829 38.27 36.5004C38.27 38.7178 40.3877 40.5154 43 40.5154Z" fill="#77CBD2"/>
<path d="M42.9998 40.8801C40.1618 40.8801 37.8398 38.9091 37.8398 36.5001C37.8398 34.0911 40.1618 32.1201 42.9998 32.1201C45.8378 32.1201 48.1598 34.0911 48.1598 36.5001C48.1598 38.9091 45.8378 40.8801 42.9998 40.8801ZM42.9998 32.8501C40.5918 32.8501 38.6998 34.4561 38.6998 36.5001C38.6998 38.5441 40.5918 40.1501 42.9998 40.1501C45.4078 40.1501 47.2998 38.5441 47.2998 36.5001C47.2998 34.4561 45.4078 32.8501 42.9998 32.8501Z" fill="#472B29"/>
<path d="M43.0002 39.274C42.9142 39.274 42.7422 39.201 42.7422 39.055C42.7422 38.909 42.8282 38.836 43.0002 38.836C43.3442 38.836 43.6022 38.763 43.9462 38.69C44.3762 38.544 44.7202 38.325 45.0642 38.106C45.1502 38.033 45.3222 38.033 45.4082 38.106C45.4942 38.179 45.4942 38.325 45.4082 38.398C45.0642 38.69 44.6342 38.982 44.1182 39.128C43.7742 39.201 43.3442 39.274 43.0002 39.274Z" fill="#472B29"/>
<path d="M45.6661 37.814H45.5801C45.4941 37.741 45.4081 37.668 45.4941 37.595C45.6661 37.303 45.7521 36.938 45.7521 36.573C45.7521 35.624 45.1501 34.821 44.2041 34.456C44.1181 34.383 44.0321 34.31 44.1181 34.237C44.2041 34.164 44.2901 34.091 44.3761 34.164C45.4941 34.602 46.1821 35.551 46.1821 36.646C46.1821 37.084 46.0961 37.449 45.8381 37.887C45.8381 37.741 45.7521 37.814 45.6661 37.814Z" fill="#472B29"/>
<path d="M41.3658 34.5288C41.2798 34.5288 41.1938 34.5288 41.1938 34.4558C41.1078 34.3828 41.1938 34.2368 41.2798 34.2368C41.7958 33.9448 42.3978 33.7988 42.9998 33.7988C43.0858 33.7988 43.2578 33.8718 43.2578 34.0178C43.2578 34.1638 43.1718 34.2368 42.9998 34.2368C42.4838 34.2368 41.9678 34.3828 41.4518 34.6018C41.4518 34.5288 41.4518 34.5288 41.3658 34.5288Z" fill="#472B29"/>
<path d="M46.0101 26.8639C45.9241 26.8639 45.9241 26.8639 45.8381 26.7909C42.6561 23.4329 39.6461 21.2429 36.8941 20.2939C36.8081 20.2209 36.7221 20.1479 36.8081 20.0749C36.8941 20.0019 36.9801 19.9289 37.0661 20.0019C39.9041 21.0239 42.9141 23.2869 46.1821 26.6449C46.2681 26.7179 46.2681 26.8639 46.1821 26.9369C46.0961 26.7909 46.0961 26.8639 46.0101 26.8639Z" fill="#472B29"/>
<path d="M31.3898 20.2939C31.3038 20.2939 31.3038 20.2939 31.2178 20.2209C31.1318 20.1479 31.1318 20.0019 31.2178 19.9289C31.4758 19.7829 32.8518 18.9799 35.3458 19.4179C35.4318 19.4179 35.5178 19.5639 35.5178 19.6369C35.5178 19.7099 35.3458 19.7829 35.2598 19.7829C32.9378 19.3449 31.7338 20.0749 31.5618 20.2209C31.4758 20.2209 31.4758 20.2939 31.3898 20.2939Z" fill="#472B29"/>
<path d="M63.0378 40.5148C62.9518 40.5148 62.9518 40.5148 62.8658 40.4418C62.7798 40.3688 62.7798 40.2228 62.8658 40.1498C64.8438 38.7628 65.6178 37.1568 65.1878 35.3318C65.1878 35.2588 65.2738 35.1128 65.3598 35.1128C65.4458 35.1128 65.6178 35.1858 65.6178 35.2588C66.1338 37.1568 65.2738 38.9818 63.1238 40.4418C63.1238 40.5148 63.0378 40.5148 63.0378 40.5148Z" fill="#472B29"/>
<path d="M59.34 42.2668C59.254 42.2668 59.168 42.1938 59.168 42.1208C59.168 42.0478 59.168 41.9018 59.34 41.9018C59.34 41.9018 60.544 41.5368 61.834 40.8798C61.92 40.8068 62.092 40.8798 62.092 40.9528C62.178 41.0258 62.092 41.1718 62.006 41.1718C60.63 41.9018 59.426 42.1938 59.34 42.2668Z" fill="#472B29"/>
<path d="M33.6262 53.7281C31.3042 53.6551 29.8422 52.1951 29.3262 49.5671C29.3262 49.4941 29.4122 49.3481 29.4982 49.3481C29.5842 49.3481 29.7562 49.4211 29.7562 49.4941C30.2722 51.9761 31.5622 53.2901 33.6262 53.3631C33.7122 53.3631 33.7982 53.4361 33.7982 53.5821C33.8842 53.6551 33.7982 53.7281 33.6262 53.7281Z" fill="#472B29"/>
<path d="M29.3258 47.961C29.2399 47.961 29.154 47.888 29.0681 47.815C28.9822 46.136 29.2399 44.676 29.3258 44.457C29.3258 44.384 29.4977 44.311 29.5836 44.311C29.6695 44.311 29.7555 44.457 29.7555 44.53C29.7555 44.603 29.4118 46.063 29.4977 47.742C29.5836 47.888 29.4977 47.961 29.3258 47.961Z" fill="#472B29"/>
</svg>
