<svg width="507" height="389" viewBox="0 0 507 389" fill="none" xmlns="http://www.w3.org/2000/svg">
<path d="M468.042 236.683L459.173 236.901L454.671 236.987C453.163 237.025 451.649 236.987 450.142 237.033H449.844V236.683L449.804 227.954V227.565H450.142L459.092 227.612C462.08 227.612 465.061 227.697 468.042 227.736H468.231V227.954C468.231 229.432 468.177 230.903 468.144 232.357L468.042 236.683ZM468.042 236.683L467.948 232.287C467.914 230.84 467.873 229.409 467.86 227.977L468.042 228.195C465.061 228.234 462.08 228.32 459.092 228.32L450.142 228.366L450.48 227.977V236.683L450.176 236.341C451.649 236.341 453.123 236.341 454.603 236.38L459.004 236.512L468.042 236.683Z" fill="#EBEBEB"/>
<path d="M458.057 247.661L449.188 247.879L444.679 247.964C443.179 247.964 441.664 247.964 440.157 248.011H439.859V247.661V238.955V238.566H440.197L449.148 238.62C452.129 238.62 455.117 238.706 458.098 238.745H458.287V238.955C458.287 240.433 458.233 241.904 458.199 243.358L458.057 247.661ZM458.057 247.661L457.963 243.265C457.929 241.818 457.888 240.386 457.875 238.955L458.057 239.173C455.076 239.212 452.088 239.297 449.107 239.297L440.157 239.344L440.495 238.955V247.661L440.191 247.318C441.664 247.318 443.138 247.318 444.618 247.357L449.06 247.451L458.057 247.661Z" fill="#EBEBEB"/>
<path d="M478.027 247.661L469.157 247.879L464.655 247.964C463.148 247.964 461.634 247.964 460.126 248.011H459.829V247.661L459.788 238.955V238.566H460.126L469.076 238.62C472.064 238.62 475.045 238.706 478.027 238.745H478.216V238.955C478.216 240.433 478.155 241.904 478.128 243.358L478.027 247.661ZM478.027 247.661L477.932 243.265C477.932 241.818 477.858 240.386 477.844 238.955L478.027 239.173C475.045 239.212 472.064 239.297 469.076 239.297L460.126 239.344L460.464 238.955V247.661L460.16 247.318C461.64 247.318 463.107 247.318 464.588 247.357L469.036 247.451L478.027 247.661Z" fill="#EBEBEB"/>
<path d="M212.798 133.093L203.929 133.311L199.427 133.396C197.919 133.396 196.405 133.396 194.898 133.396H194.6V133.046L194.56 124.34V123.951H194.898L203.848 123.998C206.836 123.998 209.817 124.083 212.798 124.122H212.987V124.332C212.987 125.811 212.926 127.273 212.893 128.728L212.798 133.093ZM212.798 133.093L212.703 128.689C212.703 127.242 212.629 125.811 212.616 124.387L212.798 124.597C209.817 124.597 206.836 124.721 203.848 124.721L194.898 124.776L195.236 124.387L195.202 133.093L194.898 132.743C196.371 132.743 197.845 132.743 199.325 132.789L203.773 132.875L212.798 133.093Z" fill="#EBEBEB"/>
<path d="M202.8 144.07L193.931 144.288L189.422 144.374C187.921 144.374 186.407 144.374 184.899 144.413H184.602V144.063L184.548 135.372V134.983H184.886L193.836 135.03C196.817 135.03 199.805 135.116 202.786 135.155H202.976V135.372C202.976 136.851 202.922 138.313 202.888 139.768L202.8 144.07ZM202.8 144.07L202.705 139.667C202.671 138.22 202.631 136.788 202.617 135.365L202.8 135.575C199.819 135.614 196.831 135.699 193.85 135.699L184.899 135.754L185.237 135.365L185.224 144.07L184.92 143.72C186.393 143.72 187.867 143.72 189.347 143.767L193.789 143.853L202.8 144.07Z" fill="#EBEBEB"/>
<path d="M222.782 144.07L213.913 144.288L209.411 144.374C207.904 144.374 206.396 144.374 204.882 144.413H204.585V144.063L204.544 135.372V134.983H204.882L213.832 135.03C216.82 135.03 219.801 135.116 222.782 135.155H222.972V135.372C222.972 136.851 222.911 138.313 222.884 139.768L222.782 144.07ZM222.782 144.07L222.688 139.667C222.688 138.22 222.613 136.788 222.6 135.365L222.782 135.575C219.801 135.614 216.82 135.699 213.832 135.699L204.882 135.754L205.22 135.365L205.186 144.07L204.882 143.72C206.362 143.72 207.829 143.72 209.31 143.767L213.758 143.853L222.782 144.07Z" fill="#EBEBEB"/>
<path d="M66.8428 190.696L57.9736 190.914L53.4647 190.999C51.964 190.999 50.4498 190.999 48.9423 191.038H48.6719V190.688V181.982V181.593H49.0099L57.9601 181.64C60.9413 181.64 63.9292 181.726 66.9104 181.764H67.0996V181.974C67.0996 183.453 67.0456 184.915 67.0118 186.37L66.8428 190.696ZM66.8428 190.696L66.7481 186.292C66.7481 184.845 66.6738 183.414 66.6602 181.99L66.8428 182.2C63.8616 182.239 60.8737 182.325 57.8925 182.325L48.9423 182.379L49.2803 181.99L49.2465 190.696L48.9423 190.346C50.416 190.346 51.8896 190.346 53.3701 190.392L57.8114 190.478L66.8428 190.696Z" fill="#EBEBEB"/>
<path d="M363.593 133.085L354.724 133.303L350.222 133.388C348.714 133.427 347.2 133.388 345.692 133.427H345.395V133.077L345.354 124.371V123.982H345.692L354.643 124.029C357.631 124.029 360.612 124.122 363.593 124.161H363.782V124.371C363.782 125.85 363.728 127.32 363.694 128.767L363.593 133.085ZM363.593 133.085L363.498 128.689C363.465 127.234 363.424 125.803 363.41 124.379L363.593 124.589C360.612 124.628 357.631 124.714 354.643 124.722L345.692 124.768L346.03 124.379L345.997 133.085L345.692 132.735C347.166 132.735 348.64 132.735 350.12 132.782L354.568 132.867L363.593 133.085Z" fill="#EBEBEB"/>
<path d="M467.008 48.5318L458.138 48.7497L453.629 48.8353C452.129 48.8353 450.614 48.8353 449.107 48.8819H448.81V48.5318V39.826V39.437H449.148L458.098 39.4837C461.079 39.4837 464.067 39.5771 467.048 39.616H467.237V39.826C467.237 41.3042 467.183 42.7746 467.149 44.2217L467.008 48.5318ZM467.008 48.5318L466.913 44.1361C466.879 42.6813 466.839 41.2498 466.825 39.826L467.008 40.0361C464.026 40.0361 461.038 40.1606 458.057 40.1683L449.107 40.215L449.445 39.826L449.411 48.5318L449.107 48.1817C450.581 48.1817 452.054 48.1817 453.535 48.2284L457.976 48.314L467.008 48.5318Z" fill="#EBEBEB"/>
<path d="M476.992 59.5093L468.123 59.7272L463.621 59.8128C462.114 59.8517 460.599 59.8128 459.092 59.8517H458.794V59.5016L458.754 50.7957V50.4067H459.092L468.042 50.4534C471.03 50.4534 474.011 50.5468 476.992 50.5857H477.182V50.7957C477.182 52.2739 477.121 53.7444 477.087 55.1914L476.992 59.5093ZM476.992 59.5093L476.898 55.1136C476.898 53.6588 476.823 52.2273 476.81 50.8035L476.992 51.0136C474.011 51.0525 471.03 51.1381 468.042 51.1458L459.092 51.1925L459.43 50.8035V59.5093L459.126 59.1592C460.599 59.1592 462.073 59.1592 463.553 59.2059L468.002 59.2915L476.992 59.5093Z" fill="#EBEBEB"/>
<path d="M46.8736 48.5396L37.9977 48.7575L33.4956 48.8431C31.9949 48.8431 30.4806 48.8431 28.9731 48.8897H28.6689V48.5396V39.8338V39.4448H29.0137L37.9639 39.4993C40.9451 39.4993 43.9263 39.5849 46.9142 39.6238H47.0967V39.8338C47.0967 41.312 47.0359 42.7824 47.0088 44.2373L46.8736 48.5396ZM46.8736 48.5396L46.7722 44.1439C46.7722 42.6891 46.6979 41.2576 46.6843 39.8338L46.8736 40.0439C43.8857 40.0906 40.9045 40.1684 37.9234 40.1761L28.9731 40.2228L29.3111 39.8338L29.2706 48.5396L28.9731 48.2362C30.4468 48.2362 31.9137 48.2362 33.3942 48.2362L37.8423 48.3218L46.8736 48.5396Z" fill="#EBEBEB"/>
<path d="M41.4318 113.316C41.7143 113.115 42.0396 113.009 42.3714 113.009C42.7033 113.009 43.0286 113.115 43.3111 113.316L43.7978 113.635C43.96 113.736 44.129 113.837 44.298 113.923C44.6003 114.081 44.8583 114.333 45.0433 114.65C45.2283 114.968 45.3331 115.338 45.3458 115.72L45.4202 118.38L52.9644 118.116L52.8968 115.447C52.8852 115.064 52.9679 114.685 53.1354 114.353C53.3028 114.021 53.5481 113.751 53.8432 113.572C54.1724 113.369 54.4907 113.143 54.7963 112.896C55.067 112.676 55.385 112.547 55.7154 112.522C56.0459 112.497 56.3758 112.578 56.6688 112.756L58.6968 114.016L62.2661 106.353L60.2381 105.092C59.9477 104.911 59.7067 104.64 59.542 104.311C59.3772 103.981 59.2953 103.605 59.3052 103.225C59.3121 102.794 59.2986 102.363 59.2647 101.934C59.2343 101.553 59.2958 101.17 59.4425 100.826C59.5892 100.483 59.8154 100.193 60.0962 99.9886L62.0701 98.5804L58.0884 91.1972L56.1078 92.6209C55.8265 92.8214 55.5023 92.9276 55.1715 92.9276C54.8407 92.9276 54.5165 92.8214 54.2352 92.6209C54.073 92.512 53.9175 92.4031 53.7485 92.3019L53.255 92.0141C52.952 91.8561 52.693 91.6045 52.5068 91.2872C52.3207 90.9699 52.2146 90.5994 52.2005 90.2169L52.1329 87.5483L44.6158 87.8051L44.6901 90.4658C44.697 90.8482 44.6123 91.2254 44.4454 91.5561C44.2784 91.8868 44.0357 92.1582 43.7437 92.3408C43.4112 92.545 43.0906 92.7737 42.7838 93.0255C42.5118 93.2452 42.1921 93.3739 41.8604 93.3973C41.5287 93.4206 41.1978 93.3377 40.9045 93.1577L38.8765 91.9051L35.2734 99.584L37.3014 100.844C37.5918 101.023 37.8338 101.29 38.0007 101.617C38.1677 101.944 38.2532 102.317 38.2478 102.696C38.2387 103.129 38.25 103.563 38.2816 103.995C38.3128 104.376 38.2517 104.76 38.1049 105.103C37.9581 105.446 37.7315 105.736 37.4502 105.94L35.483 107.364L39.4646 114.747L41.4318 113.316ZM43.3246 99.584C43.9023 98.345 44.7862 97.331 45.8646 96.6701C46.9429 96.0091 48.1674 95.731 49.3831 95.8708C50.5988 96.0106 51.7512 96.562 52.6946 97.4554C53.638 98.3488 54.3301 99.544 54.6835 100.89C55.0368 102.236 55.0354 103.672 54.6796 105.018C54.3238 106.363 53.6294 107.556 52.6843 108.447C51.7392 109.338 50.5858 109.887 49.3698 110.024C48.1539 110.16 46.93 109.879 45.8528 109.216C45.137 108.775 44.5037 108.176 43.9892 107.453C43.4747 106.73 43.089 105.897 42.8542 105.003C42.6194 104.108 42.5401 103.169 42.6208 102.24C42.7015 101.31 42.9407 100.407 43.3246 99.584Z" fill="#EBEBEB"/>
<path d="M402.132 276.883C402.332 277.018 402.496 277.215 402.604 277.451C402.713 277.688 402.762 277.954 402.747 278.221C402.747 278.376 402.747 278.524 402.747 278.672C402.747 278.82 402.747 278.976 402.747 279.123C402.762 279.39 402.713 279.657 402.604 279.893C402.496 280.129 402.332 280.326 402.132 280.462L400.726 281.395L403.369 286.67L404.775 285.736C404.981 285.595 405.218 285.525 405.458 285.535C405.698 285.545 405.93 285.633 406.127 285.791C406.345 285.954 406.571 286.105 406.803 286.242C407.007 286.364 407.179 286.548 407.298 286.774C407.417 287.001 407.48 287.261 407.479 287.526V289.416H412.772V287.549C412.772 287.284 412.835 287.025 412.954 286.798C413.073 286.572 413.244 286.388 413.448 286.265C413.681 286.132 413.907 285.981 414.124 285.814C414.321 285.657 414.553 285.568 414.793 285.558C415.033 285.549 415.27 285.619 415.476 285.76L416.882 286.693L419.525 281.418L418.112 280.477C417.914 280.342 417.752 280.146 417.644 279.911C417.537 279.676 417.488 279.412 417.504 279.147C417.504 278.999 417.504 278.843 417.504 278.695C417.504 278.548 417.504 278.4 417.504 278.244C417.488 277.977 417.538 277.711 417.646 277.475C417.755 277.238 417.919 277.041 418.119 276.906L419.525 275.972L416.882 270.698L415.483 271.631C415.277 271.772 415.039 271.842 414.8 271.833C414.56 271.823 414.328 271.734 414.131 271.577C413.908 271.413 413.678 271.266 413.455 271.126C413.251 271.003 413.08 270.819 412.961 270.592C412.842 270.366 412.779 270.106 412.779 269.842V267.975H407.486V269.842C407.486 270.107 407.424 270.367 407.305 270.593C407.185 270.82 407.014 271.004 406.81 271.126C406.578 271.262 406.352 271.413 406.134 271.577C405.936 271.734 405.704 271.823 405.465 271.833C405.225 271.842 404.988 271.772 404.782 271.631L403.376 270.698L400.732 275.972L402.132 276.883ZM410.115 273.685C410.972 273.685 411.81 273.978 412.523 274.526C413.235 275.074 413.791 275.852 414.119 276.764C414.447 277.675 414.532 278.678 414.365 279.645C414.198 280.612 413.785 281.501 413.179 282.198C412.573 282.896 411.801 283.371 410.961 283.563C410.12 283.756 409.249 283.657 408.457 283.279C407.665 282.902 406.988 282.263 406.512 281.443C406.036 280.623 405.782 279.658 405.782 278.672C405.782 277.349 406.239 276.081 407.051 275.146C407.864 274.211 408.966 273.685 410.115 273.685Z" fill="#EBEBEB"/>
<path d="M425.63 240.013C425.634 244.701 426.845 249.282 429.111 253.177C431.377 257.072 434.595 260.107 438.359 261.898C442.123 263.688 446.264 264.154 450.258 263.237C454.253 262.32 457.921 260.06 460.8 256.744C463.678 253.428 465.638 249.204 466.431 244.606C467.224 240.008 466.815 235.243 465.255 230.913C463.696 226.582 461.056 222.881 457.669 220.278C454.282 217.674 450.301 216.284 446.228 216.284C443.521 216.285 440.842 216.9 438.342 218.093C435.842 219.286 433.57 221.034 431.658 223.238C429.745 225.441 428.228 228.057 427.194 230.935C426.16 233.814 425.628 236.898 425.63 240.013ZM436.608 240.013C436.605 237.821 437.168 235.677 438.224 233.853C439.281 232.029 440.784 230.607 442.543 229.766C444.302 228.925 446.238 228.704 448.107 229.13C449.975 229.557 451.691 230.611 453.039 232.161C454.386 233.711 455.304 235.685 455.675 237.835C456.047 239.985 455.856 242.214 455.127 244.239C454.398 246.264 453.163 247.995 451.579 249.212C449.995 250.429 448.132 251.078 446.228 251.076C443.678 251.074 441.233 249.908 439.43 247.834C437.627 245.76 436.612 242.947 436.608 240.013Z" fill="#EBEBEB"/>
<path d="M442.266 217.288H450.189L449.749 210.831H442.706L442.266 217.288Z" fill="#EBEBEB"/>
<path d="M457.348 220.361L462.945 226.803L466.602 221.886L461.62 216.152L457.348 220.361Z" fill="#EBEBEB"/>
<path d="M466.122 234.801V243.919L471.726 243.413V235.307L466.122 234.801Z" fill="#EBEBEB"/>
<path d="M463.452 252.15L457.848 258.6L462.127 262.808L467.109 257.075L463.452 252.15Z" fill="#EBEBEB"/>
<path d="M450.898 262.249H442.982L443.422 268.706H450.466L450.898 262.249Z" fill="#EBEBEB"/>
<path d="M435.824 259.175L430.22 252.733L426.569 257.65L431.551 263.384L435.824 259.175Z" fill="#EBEBEB"/>
<path d="M427.049 244.736V235.618L421.445 236.123V244.23L427.049 244.736Z" fill="#EBEBEB"/>
<path d="M429.72 227.386L435.324 220.937L431.045 216.728L426.062 222.461L429.72 227.386Z" fill="#EBEBEB"/>
<path d="M432.511 86.3583C430.767 86.8095 429.415 85.5803 429.415 83.6975C429.399 83.1202 429.543 82.5521 429.827 82.0752C430.11 81.5983 430.517 81.2373 430.99 81.0446C436.452 79.0996 437.243 77.0923 437.243 72.6888C437.243 71.3896 437.128 69.2578 437.128 67.8963C437.128 62.8393 439.21 60.4431 442.983 59.0194C439.265 57.6579 437.128 55.1916 437.128 50.1424C437.128 48.7809 437.243 46.6414 437.243 45.3499C437.243 40.9464 436.452 38.9314 430.99 36.9942C430.517 36.7989 430.11 36.4363 429.827 35.9583C429.544 35.4803 429.4 34.9115 429.415 34.3334C429.415 32.4584 430.767 31.2214 432.511 31.6804C441.238 33.8822 443.544 37.9044 443.544 44.1829C443.544 45.1554 443.429 47.7462 443.429 48.8509C443.429 53.6512 444.896 55.7207 448.722 55.9152C450.527 56.0474 451.595 57.2767 451.595 59.0272C451.595 60.7777 450.527 62.0069 448.722 62.1392C444.896 62.2714 443.429 64.4109 443.429 69.1412C443.429 70.2381 443.544 72.8289 443.544 73.8092C443.544 80.1343 441.238 84.1254 432.511 86.3583Z" fill="#EBEBEB"/>
<path d="M421.594 31.6492C423.338 31.1902 424.684 32.4272 424.684 34.3022C424.7 34.8893 424.551 35.4667 424.257 35.9469C423.963 36.4271 423.541 36.7838 423.054 36.9629C417.646 38.9002 416.862 40.9152 416.862 45.3187C416.862 46.6101 416.977 48.7496 416.977 50.1111C416.977 55.1604 414.895 57.5644 411.123 58.9881C414.834 60.3496 416.977 62.8081 416.977 67.8651C416.977 69.2266 416.862 71.3583 416.862 72.6576C416.862 77.0611 417.653 79.0683 423.054 81.0133C423.54 81.1909 423.962 81.5462 424.256 82.0251C424.55 82.5039 424.7 83.0802 424.684 83.6663C424.684 85.549 423.332 86.7783 421.594 86.327C412.867 84.1253 410.555 80.103 410.555 73.7546C410.555 72.7821 410.67 70.1913 410.67 69.0866C410.67 64.3563 409.149 62.2168 405.323 62.0846C403.579 61.9601 402.511 60.7308 402.511 58.9726C402.511 57.2143 403.579 55.9928 405.323 55.8606C409.149 55.6661 410.67 53.5966 410.67 48.7963C410.67 47.6993 410.555 45.1086 410.555 44.1283C410.555 37.8654 412.867 33.8509 421.594 31.6492Z" fill="#EBEBEB"/>
<path d="M64.4156 179.983C64.7399 180.349 64.9624 180.818 65.0547 181.33C65.147 181.842 65.105 182.374 64.934 182.858C64.763 183.342 64.4708 183.757 64.0944 184.05C63.7181 184.343 63.2746 184.501 62.8203 184.503C62.1955 184.5 61.5955 184.222 61.1438 183.725L50.9159 171.814C50.8683 171.793 50.8263 171.759 50.7942 171.714C50.7621 171.669 50.7411 171.615 50.7334 171.557C50.697 171.525 50.6586 171.496 50.6185 171.471C50.5707 171.365 50.5344 171.253 50.5103 171.137C50.4816 171.122 50.4566 171.1 50.4377 171.071C50.4187 171.043 50.4065 171.009 50.4021 170.973C50.4021 170.888 50.4021 170.763 50.3278 170.717C50.2534 170.67 50.2534 170.553 50.2534 170.507V170.219C50.2534 170.133 50.2534 170.094 50.2534 169.97C50.2534 169.845 50.2534 169.799 50.2534 169.76V169.464C50.2534 169.378 50.3278 169.34 50.3278 169.293C50.3278 169.246 50.3683 169.091 50.4021 168.958C50.4359 168.826 50.4021 168.958 50.4021 168.881C50.4569 168.75 50.5179 168.622 50.5847 168.499C50.5847 168.477 50.5925 168.455 50.6064 168.439C50.6204 168.423 50.6393 168.414 50.659 168.414C50.7094 168.296 50.7865 168.197 50.8821 168.126L61.11 156.184C61.5495 155.697 62.1359 155.425 62.7459 155.425C63.3559 155.425 63.9423 155.697 64.3818 156.184C64.5985 156.43 64.7705 156.723 64.8879 157.046C65.0053 157.369 65.0658 157.716 65.0658 158.066C65.0658 158.417 65.0053 158.763 64.8879 159.087C64.7705 159.41 64.5985 159.703 64.3818 159.949L55.7899 169.97L64.4156 179.983Z" fill="#EBEBEB"/>
<path d="M73.6837 181.321L82.6069 156.891C82.8208 156.326 83.2202 155.882 83.7179 155.654C84.2156 155.427 84.7712 155.435 85.2636 155.678C85.7407 155.917 86.116 156.364 86.3073 156.921C86.4987 157.478 86.4904 158.1 86.2843 158.65L77.3611 183.126C77.2003 183.538 76.939 183.887 76.609 184.131C76.279 184.376 75.8945 184.505 75.5021 184.503C75.2536 184.509 75.0069 184.453 74.7788 184.339C74.5316 184.228 74.3063 184.061 74.1165 183.848C73.9266 183.635 73.7761 183.38 73.6739 183.098C73.5717 182.816 73.5198 182.513 73.5215 182.208C73.5232 181.903 73.5784 181.601 73.6837 181.321Z" fill="#EBEBEB"/>
<path d="M103.901 171.472V171.518C103.822 171.624 103.736 171.723 103.644 171.814L93.4162 183.756C92.9769 184.25 92.388 184.529 91.7736 184.534C91.1609 184.531 90.5737 184.251 90.1376 183.756C89.9208 183.509 89.7486 183.216 89.6311 182.892C89.5136 182.568 89.4531 182.22 89.4531 181.87C89.4531 181.519 89.5136 181.171 89.6311 180.847C89.7486 180.523 89.9208 180.23 90.1376 179.983L98.7634 169.97L90.1376 159.949C89.921 159.703 89.749 159.41 89.6316 159.087C89.5142 158.764 89.4537 158.417 89.4537 158.067C89.4537 157.716 89.5142 157.369 89.6316 157.046C89.749 156.723 89.921 156.43 90.1376 156.184C90.5783 155.696 91.1658 155.424 91.7769 155.424C92.3881 155.424 92.9756 155.696 93.4162 156.184L103.644 168.126C103.739 168.21 103.826 168.307 103.901 168.414V168.5C103.969 168.622 104.03 168.749 104.084 168.881C104.084 168.92 104.124 168.92 104.124 168.959C104.147 169.089 104.181 169.217 104.225 169.34C104.225 169.379 104.266 169.379 104.266 169.464V169.76C104.266 169.799 104.307 169.923 104.307 169.97C104.307 170.017 104.266 170.133 104.266 170.172V170.507C104.266 170.553 104.225 170.553 104.225 170.592C104.158 170.764 104.158 170.888 104.124 170.974C104.09 171.059 104.084 171.013 104.084 171.098C104.084 171.184 103.975 171.308 103.901 171.472Z" fill="#EBEBEB"/>
<path d="M34.2866 347.96L89.0899 347.774L143.893 347.704L253.5 347.571L363.107 347.704L417.91 347.774L472.713 347.96L417.91 348.155L363.107 348.225L253.5 348.349L143.893 348.217L89.0899 348.155L34.2866 347.96Z" fill="#263238"/>
<path d="M458.673 330.759H48.3203V347.96H458.673V330.759Z" fill="#C7C7C7"/>
<path d="M416.28 80.1338H90.7256V330.767H416.28V80.1338Z" fill="#DBDBDB"/>
<path d="M413.915 83.1914H93.0918V327.709H413.915V83.1914Z" fill="#37474F"/>
<path d="M399.705 98.9067H107.294V311.985H399.705V98.9067Z" fill="#263238"/>
<path d="M399.705 98.9067H107.294V107.107H399.705V98.9067Z" fill="#FF4C60"/>
<path d="M114 103.007C114 103.315 113.921 103.616 113.773 103.872C113.624 104.128 113.413 104.327 113.166 104.445C112.919 104.563 112.647 104.593 112.385 104.533C112.122 104.473 111.881 104.325 111.692 104.107C111.503 103.89 111.375 103.613 111.322 103.311C111.27 103.009 111.297 102.696 111.399 102.412C111.502 102.127 111.675 101.884 111.897 101.713C112.12 101.542 112.381 101.451 112.648 101.451C113.007 101.451 113.351 101.615 113.604 101.907C113.858 102.199 114 102.594 114 103.007Z" fill="#C7C7C7"/>
<path d="M119.51 103.007C119.51 103.315 119.43 103.616 119.282 103.872C119.133 104.128 118.922 104.327 118.675 104.445C118.428 104.563 118.156 104.593 117.894 104.533C117.632 104.473 117.391 104.325 117.202 104.107C117.013 103.89 116.884 103.613 116.832 103.311C116.779 103.009 116.806 102.696 116.909 102.412C117.011 102.127 117.184 101.884 117.407 101.713C117.629 101.542 117.89 101.451 118.158 101.451C118.516 101.451 118.86 101.615 119.114 101.907C119.367 102.199 119.51 102.594 119.51 103.007Z" fill="white"/>
<path d="M125.013 103.007C125.013 103.315 124.933 103.616 124.785 103.872C124.636 104.128 124.425 104.327 124.178 104.445C123.931 104.563 123.659 104.593 123.397 104.533C123.135 104.473 122.894 104.325 122.705 104.107C122.516 103.89 122.387 103.613 122.335 103.311C122.282 103.009 122.309 102.696 122.412 102.412C122.514 102.127 122.687 101.884 122.909 101.713C123.132 101.542 123.393 101.451 123.661 101.451C124.019 101.451 124.363 101.615 124.617 101.907C124.87 102.199 125.013 102.594 125.013 103.007Z" fill="#455A64"/>
<path d="M132.698 143.533H125.979V145.05H132.698V143.533Z" fill="#EBEBEB"/>
<path d="M289.551 143.533H140.628V145.05H289.551V143.533Z" fill="#EBEBEB"/>
<path d="M306.444 143.533H293.681V145.05H306.444V143.533Z" fill="#FF4C60"/>
<path d="M357.178 179.29H314.103V180.799H357.178V179.29Z" fill="#EBEBEB"/>
<path d="M372.449 143.533H309.216V145.05H372.449V143.533Z" fill="#A6A6A6"/>
<path d="M132.698 150.683H125.979V152.2H132.698V150.683Z" fill="#EBEBEB"/>
<path d="M197.75 150.683H147.172V152.2H197.75V150.683Z" fill="#A6A6A6"/>
<path d="M311.068 179.29H291.937V180.799H311.068V179.29Z" fill="#A6A6A6"/>
<path d="M188.935 172.14H140.628V173.657H188.935V172.14Z" fill="#A6A6A6"/>
<path d="M181.06 157.84H147.172V159.357H181.06V157.84Z" fill="#FF4C60"/>
<path d="M366.412 164.99H302.212V166.5H366.412V164.99Z" fill="#A6A6A6"/>
<path d="M289.551 200.086H225.351V201.595H289.551V200.086Z" fill="#A6A6A6"/>
<path d="M310.805 157.84H184.825V159.357H310.805V157.84Z" fill="#A6A6A6"/>
<path d="M287.57 179.29H140.628V180.799H287.57V179.29Z" fill="#FF4C60"/>
<path d="M305.018 150.683H200.927V152.2H305.018V150.683Z" fill="#EBEBEB"/>
<path d="M337.98 157.84H316.186V159.357H337.98V157.84Z" fill="#EBEBEB"/>
<path d="M132.698 157.84H125.979V159.357H132.698V157.84Z" fill="#EBEBEB"/>
<path d="M132.698 164.99H125.979V166.5H132.698V164.99Z" fill="#A6A6A6"/>
<path d="M180.336 164.99H140.628V166.5H180.336V164.99Z" fill="#EBEBEB"/>
<path d="M186.88 186.44H147.172V187.957H186.88V186.44Z" fill="#EBEBEB"/>
<path d="M348.505 193.589H293.073V195.106H348.505V193.589Z" fill="#FF4C60"/>
<path d="M289.598 193.589H183.081V195.106H289.598V193.589Z" fill="#EBEBEB"/>
<path d="M177.017 193.589H147.172V195.106H177.017V193.589Z" fill="#A6A6A6"/>
<path d="M306.437 172.14H191.666V173.657H306.437V172.14Z" fill="#EBEBEB"/>
<path d="M377.695 172.14H309.216V173.657H377.695V172.14Z" fill="#FF4C60"/>
<path d="M299.089 164.99H184.365V166.5H299.089V164.99Z" fill="#FF4C60"/>
<path d="M132.698 172.14H125.979V173.657H132.698V172.14Z" fill="#EBEBEB"/>
<path d="M132.698 179.29H125.979V180.799H132.698V179.29Z" fill="#EBEBEB"/>
<path d="M132.698 186.44H125.979V187.957H132.698V186.44Z" fill="#A6A6A6"/>
<path d="M132.698 193.589H125.979V195.106H132.698V193.589Z" fill="#EBEBEB"/>
<path d="M132.698 200.086H125.979V201.595H132.698V200.086Z" fill="#EBEBEB"/>
<path d="M219.402 200.086H140.628V201.595H219.402V200.086Z" fill="#EBEBEB"/>
<path d="M132.698 207.236H125.979V208.753H132.698V207.236Z" fill="#EBEBEB"/>
<path d="M197.75 207.236H147.172V208.753H197.75V207.236Z" fill="#A6A6A6"/>
<path d="M188.935 228.685H140.628V230.194H188.935V228.685Z" fill="#A6A6A6"/>
<path d="M181.06 214.385H147.172V215.902H181.06V214.385Z" fill="#FF4C60"/>
<path d="M258.671 242.993H224.783V244.51H258.671V242.993Z" fill="#FF4C60"/>
<path d="M181.06 257.292H147.172V258.809H181.06V257.292Z" fill="#FF4C60"/>
<path d="M310.805 214.385H184.825V215.902H310.805V214.385Z" fill="#A6A6A6"/>
<path d="M287.57 235.835H140.628V237.352H287.57V235.835Z" fill="#FF4C60"/>
<path d="M305.018 207.236H200.927V208.753H305.018V207.236Z" fill="#EBEBEB"/>
<path d="M327.062 221.535H305.309V223.052H327.062V221.535Z" fill="#EBEBEB"/>
<path d="M132.698 214.385H125.979V215.902H132.698V214.385Z" fill="#EBEBEB"/>
<path d="M132.698 221.535H125.979V223.052H132.698V221.535Z" fill="#A6A6A6"/>
<path d="M180.336 221.535H140.628V223.052H180.336V221.535Z" fill="#EBEBEB"/>
<path d="M306.437 228.685H191.666V230.194H306.437V228.685Z" fill="#EBEBEB"/>
<path d="M299.089 221.535H184.365V223.052H299.089V221.535Z" fill="#FF4C60"/>
<path d="M132.698 228.685H125.979V230.194H132.698V228.685Z" fill="#EBEBEB"/>
<path d="M132.698 242.993H125.979V244.51H132.698V242.993Z" fill="#EBEBEB"/>
<path d="M219.402 242.993H140.628V244.51H219.402V242.993Z" fill="#EBEBEB"/>
<path d="M132.698 250.143H125.979V251.66H132.698V250.143Z" fill="#EBEBEB"/>
<path d="M197.75 250.143H147.172V251.66H197.75V250.143Z" fill="#A6A6A6"/>
<path d="M188.935 271.592H140.628V273.109H188.935V271.592Z" fill="#A6A6A6"/>
<path d="M310.805 257.292H184.825V258.809H310.805V257.292Z" fill="#A6A6A6"/>
<path d="M327.062 264.442H305.309V265.959H327.062V264.442Z" fill="#EBEBEB"/>
<path d="M132.698 257.292H125.979V258.809H132.698V257.292Z" fill="#EBEBEB"/>
<path d="M132.698 264.442H125.979V265.959H132.698V264.442Z" fill="#A6A6A6"/>
<path d="M180.336 264.442H140.628V265.959H180.336V264.442Z" fill="#EBEBEB"/>
<path d="M306.437 271.592H191.666V273.109H306.437V271.592Z" fill="#EBEBEB"/>
<path d="M299.089 264.442H184.365V265.959H299.089V264.442Z" fill="#FF4C60"/>
<path d="M132.698 271.592H125.979V273.109H132.698V271.592Z" fill="#EBEBEB"/>
<path d="M131.083 130.198L132.854 125.343C132.875 125.287 132.905 125.237 132.943 125.194C132.98 125.152 133.025 125.118 133.074 125.096C133.123 125.073 133.176 125.062 133.228 125.064C133.281 125.065 133.333 125.078 133.382 125.102C133.429 125.125 133.472 125.158 133.508 125.201C133.544 125.243 133.573 125.293 133.591 125.348C133.61 125.404 133.619 125.462 133.618 125.522C133.617 125.581 133.606 125.639 133.584 125.693L131.82 130.556C131.788 130.639 131.736 130.71 131.67 130.76C131.604 130.809 131.527 130.836 131.448 130.836C131.402 130.85 131.353 130.85 131.306 130.836C131.252 130.816 131.201 130.783 131.159 130.739C131.117 130.694 131.084 130.639 131.063 130.578C131.042 130.517 131.032 130.451 131.036 130.385C131.039 130.32 131.056 130.256 131.083 130.198Z" fill="#FF4C60"/>
<path d="M137.093 128.245L137.039 128.3L135.011 130.673C134.967 130.726 134.915 130.769 134.857 130.799C134.799 130.828 134.736 130.843 134.673 130.843C134.609 130.843 134.546 130.828 134.488 130.799C134.43 130.769 134.378 130.726 134.335 130.673C134.287 130.624 134.249 130.564 134.223 130.497C134.197 130.43 134.183 130.357 134.183 130.284C134.183 130.21 134.197 130.137 134.223 130.07C134.249 130.003 134.287 129.943 134.335 129.895L136.052 127.903L134.335 125.911C134.287 125.862 134.249 125.802 134.223 125.735C134.197 125.668 134.183 125.596 134.183 125.522C134.183 125.449 134.197 125.376 134.223 125.309C134.249 125.242 134.287 125.182 134.335 125.133C134.378 125.08 134.431 125.038 134.489 125.01C134.547 124.981 134.609 124.966 134.673 124.966C134.736 124.966 134.798 124.981 134.856 125.01C134.915 125.038 134.967 125.08 135.011 125.133L137.039 127.467L137.093 127.522C137.093 127.522 137.093 127.576 137.093 127.599C137.093 127.623 137.093 127.599 137.093 127.599C137.091 127.625 137.091 127.651 137.093 127.677V127.739C137.093 127.739 137.093 127.739 137.093 127.778V127.848C137.091 127.874 137.091 127.9 137.093 127.926C137.071 128.031 137.071 128.14 137.093 128.245Z" fill="#FF4C60"/>
<path d="M433.154 91.2676H363.458V142.437H433.154V91.2676Z" fill="white"/>
<path d="M433.593 142.942H363.012V90.7617H433.586L433.593 142.942ZM363.897 141.931H432.707V91.8042H363.897V141.931Z" fill="#EBEBEB"/>
<path d="M433.154 91.2676H363.458V100.946H433.154V91.2676Z" fill="#FF4C60"/>
<path d="M433.593 101.451H363.012V90.7617H433.586L433.593 101.451ZM363.897 100.44H432.707V91.8042H363.897V100.44Z" fill="#EBEBEB"/>
<path d="M375.484 120.077C375.53 117.487 376.456 115.02 378.063 113.207C379.671 111.393 381.832 110.377 384.083 110.375C386.038 110.363 387.941 111.103 389.491 112.476C389.741 112.739 389.897 113.1 389.927 113.489C389.957 113.878 389.859 114.266 389.652 114.575C389.446 114.885 389.145 115.093 388.811 115.16C388.477 115.226 388.133 115.146 387.848 114.934C386.784 113.945 385.45 113.419 384.083 113.448C382.515 113.459 381.008 114.151 379.864 115.385C378.783 116.622 378.168 118.299 378.154 120.053C378.156 120.923 378.308 121.784 378.602 122.585C378.895 123.387 379.325 124.113 379.864 124.721C381.008 125.956 382.515 126.648 384.083 126.659C385.448 126.682 386.779 126.159 387.848 125.18C388.137 124.957 388.488 124.863 388.833 124.918C389.178 124.972 389.494 125.171 389.72 125.476C389.934 125.799 390.029 126.205 389.986 126.607C389.943 127.01 389.765 127.377 389.491 127.631C387.941 129.004 386.038 129.744 384.083 129.732C381.836 129.741 379.676 128.734 378.068 126.928C376.46 125.122 375.532 122.662 375.484 120.077Z" fill="#EBEBEB"/>
<path d="M393.749 125.087C393.956 124.804 394.251 124.625 394.571 124.59C394.891 124.555 395.211 124.667 395.46 124.9C396.718 126.13 398.287 126.859 399.935 126.978C400.976 127 401.998 126.652 402.862 125.982C403.153 125.775 403.396 125.49 403.57 125.151C403.744 124.812 403.845 124.43 403.862 124.037C403.87 123.734 403.797 123.435 403.653 123.181C403.483 122.865 403.251 122.599 402.977 122.403C401.985 121.758 400.899 121.328 399.773 121.135H399.725C398.684 120.93 397.669 120.577 396.704 120.084C395.816 119.638 395.06 118.906 394.527 117.976C394.169 117.313 393.981 116.547 393.986 115.767C394.015 114.996 394.2 114.243 394.525 113.568C394.85 112.893 395.306 112.314 395.859 111.877C397.048 110.924 398.466 110.423 399.915 110.445C402.159 110.445 403.822 111.713 405.018 112.6C405.279 112.807 405.46 113.123 405.52 113.481C405.581 113.839 405.517 114.21 405.343 114.514C405.259 114.668 405.148 114.802 405.018 114.906C404.888 115.011 404.741 115.084 404.586 115.122C404.431 115.159 404.271 115.161 404.115 115.126C403.959 115.091 403.811 115.021 403.68 114.919C402.49 114 401.341 113.191 399.915 113.191C398.978 113.174 398.061 113.495 397.292 114.109C397.035 114.288 396.82 114.536 396.665 114.831C396.509 115.127 396.418 115.461 396.399 115.805C396.381 116.078 396.438 116.35 396.562 116.583C396.734 116.863 396.949 117.103 397.197 117.291C398.098 117.897 399.092 118.299 400.124 118.474H400.171C401.284 118.702 402.368 119.08 403.403 119.602C404.349 120.082 405.16 120.859 405.742 121.843C406.109 122.531 406.304 123.323 406.303 124.13C406.281 124.963 406.085 125.777 405.732 126.504C405.379 127.231 404.879 127.85 404.275 128.308C403.013 129.343 401.498 129.888 399.948 129.864C397.747 129.742 395.641 128.793 393.952 127.164C393.816 127.047 393.702 126.899 393.617 126.729C393.532 126.559 393.478 126.371 393.459 126.176C393.44 125.981 393.456 125.784 393.506 125.597C393.556 125.41 393.639 125.236 393.749 125.087Z" fill="#EBEBEB"/>
<path d="M409.135 125.087C409.342 124.804 409.637 124.625 409.957 124.59C410.277 124.555 410.596 124.667 410.845 124.9C412.101 126.131 413.668 126.859 415.314 126.978C416.355 127 417.377 126.652 418.241 125.982C418.533 125.776 418.778 125.492 418.954 125.153C419.129 124.814 419.23 124.431 419.248 124.037C419.255 123.734 419.182 123.435 419.039 123.181C418.867 122.867 418.636 122.601 418.363 122.403C417.371 121.758 416.285 121.328 415.158 121.135H415.064C414.022 120.931 413.007 120.578 412.042 120.085C411.155 119.638 410.399 118.906 409.865 117.976C409.507 117.313 409.32 116.547 409.324 115.767C409.354 114.996 409.538 114.243 409.863 113.568C410.188 112.893 410.645 112.314 411.197 111.877C412.385 110.922 413.804 110.421 415.253 110.445C417.504 110.445 419.167 111.713 420.364 112.6C420.623 112.808 420.802 113.124 420.863 113.481C420.923 113.839 420.861 114.209 420.688 114.514C420.604 114.669 420.493 114.802 420.363 114.906C420.233 115.011 420.086 115.084 419.931 115.122C419.776 115.16 419.616 115.161 419.46 115.126C419.304 115.091 419.157 115.021 419.025 114.919C417.829 114.001 416.686 113.191 415.253 113.191C414.317 113.176 413.4 113.497 412.63 114.11C412.375 114.29 412.162 114.538 412.007 114.833C411.853 115.128 411.763 115.462 411.745 115.806C411.727 116.078 411.783 116.35 411.907 116.584C412.077 116.865 412.293 117.105 412.542 117.292C413.443 117.899 414.437 118.3 415.469 118.474H415.51C416.624 118.701 417.711 119.079 418.748 119.602C419.694 120.082 420.505 120.859 421.087 121.843C421.454 122.531 421.649 123.323 421.648 124.13C421.624 124.962 421.428 125.776 421.075 126.503C420.722 127.23 420.223 127.849 419.62 128.308C418.355 129.342 416.838 129.887 415.287 129.864C413.086 129.738 410.981 128.79 409.291 127.164C409.158 127.043 409.047 126.892 408.967 126.72C408.887 126.548 408.838 126.359 408.823 126.164C408.808 125.97 408.829 125.774 408.882 125.589C408.936 125.403 409.022 125.233 409.135 125.087Z" fill="#EBEBEB"/>
<path d="M369.812 96.1766C369.812 96.4844 369.733 96.7852 369.585 97.0411C369.436 97.297 369.225 97.4964 368.978 97.6142C368.731 97.7319 368.459 97.7627 368.197 97.7027C367.934 97.6427 367.693 97.4945 367.504 97.2769C367.315 97.0592 367.187 96.782 367.134 96.4802C367.082 96.1783 367.109 95.8655 367.211 95.5811C367.314 95.2968 367.487 95.0538 367.709 94.8828C367.932 94.7119 368.193 94.6206 368.46 94.6206C368.819 94.6206 369.163 94.7845 369.416 95.0763C369.67 95.3682 369.812 95.7639 369.812 96.1766Z" fill="#C7C7C7"/>
<path d="M375.322 96.1766C375.322 96.4844 375.242 96.7852 375.094 97.0411C374.945 97.297 374.734 97.4964 374.487 97.6142C374.24 97.7319 373.968 97.7627 373.706 97.7027C373.444 97.6427 373.203 97.4945 373.014 97.2769C372.825 97.0592 372.696 96.782 372.644 96.4802C372.591 96.1783 372.618 95.8655 372.721 95.5811C372.823 95.2968 372.996 95.0538 373.219 94.8828C373.441 94.7119 373.702 94.6206 373.97 94.6206C374.328 94.6206 374.672 94.7845 374.926 95.0763C375.179 95.3682 375.322 95.7639 375.322 96.1766Z" fill="white"/>
<path d="M380.825 96.1766C380.825 96.4844 380.745 96.7852 380.597 97.0411C380.448 97.297 380.237 97.4964 379.99 97.6142C379.743 97.7319 379.471 97.7627 379.209 97.7027C378.947 97.6427 378.706 97.4945 378.517 97.2769C378.328 97.0592 378.199 96.782 378.147 96.4802C378.094 96.1783 378.121 95.8655 378.224 95.5811C378.326 95.2968 378.499 95.0538 378.721 94.8828C378.944 94.7119 379.205 94.6206 379.473 94.6206C379.831 94.6206 380.175 94.7845 380.429 95.0763C380.682 95.3682 380.825 95.7639 380.825 96.1766Z" fill="#455A64"/>
<path d="M374.024 55.5649H326.548V75.7929H374.024V55.5649Z" fill="#455A64"/>
<path d="M333.403 69.8725V60.9021C333.401 60.7922 333.419 60.683 333.454 60.5811C333.49 60.4791 333.543 60.3865 333.611 60.3088C333.678 60.2311 333.759 60.1698 333.847 60.1287C333.936 60.0876 334.031 60.0676 334.126 60.0697C334.223 60.0666 334.319 60.0858 334.409 60.1262C334.499 60.1667 334.582 60.2275 334.651 60.3051C334.72 60.3827 334.775 60.4755 334.813 60.5781C334.851 60.6806 334.87 60.7908 334.87 60.9021V64.5743H338.29V60.9021C338.289 60.7916 338.306 60.6817 338.342 60.5792C338.378 60.4767 338.432 60.3838 338.501 60.3059C338.569 60.2281 338.65 60.167 338.739 60.1264C338.829 60.0858 338.924 60.0665 339.021 60.0697C339.117 60.0676 339.212 60.0876 339.301 60.1285C339.391 60.1694 339.472 60.2304 339.541 60.3079C339.609 60.3854 339.664 60.4779 339.701 60.5799C339.738 60.682 339.757 60.7915 339.757 60.9021V69.8725C339.757 69.9835 339.738 70.0934 339.701 70.1958C339.664 70.2983 339.61 70.3913 339.541 70.4694C339.473 70.5475 339.391 70.6092 339.302 70.651C339.213 70.6928 339.117 70.7137 339.021 70.7127C338.924 70.7148 338.828 70.6945 338.739 70.6531C338.65 70.6116 338.568 70.5498 338.5 70.4713C338.432 70.3929 338.378 70.2994 338.342 70.1965C338.306 70.0936 338.289 69.9834 338.29 69.8725V66.2237H334.87V69.8725C334.87 69.9841 334.851 70.0947 334.813 70.1977C334.776 70.3006 334.721 70.394 334.651 70.4722C334.582 70.5504 334.5 70.612 334.41 70.6533C334.32 70.6946 334.223 70.7148 334.126 70.7127C334.03 70.7138 333.935 70.6927 333.847 70.6508C333.758 70.6088 333.678 70.5468 333.61 70.4685C333.543 70.3901 333.49 70.297 333.454 70.1947C333.419 70.0923 333.401 69.9827 333.403 69.8725Z" fill="white"/>
<path d="M348.424 61.7579H346.328V69.8725C346.338 69.9891 346.326 70.1068 346.294 70.2179C346.262 70.3291 346.21 70.4314 346.142 70.5181C346.073 70.6048 345.99 70.6741 345.897 70.7216C345.804 70.769 345.703 70.7935 345.601 70.7935C345.5 70.7935 345.399 70.769 345.306 70.7216C345.213 70.6741 345.129 70.6048 345.061 70.5181C344.993 70.4314 344.941 70.3291 344.909 70.2179C344.876 70.1068 344.865 69.9891 344.875 69.8725V61.7579H342.786C342.689 61.7569 342.593 61.734 342.504 61.6904C342.415 61.6469 342.335 61.5835 342.267 61.5041C342.199 61.4246 342.145 61.3305 342.109 61.2273C342.073 61.124 342.055 61.0135 342.056 60.9021C342.054 60.7916 342.072 60.6817 342.108 60.5792C342.144 60.4767 342.198 60.3838 342.266 60.3059C342.334 60.2281 342.415 60.167 342.505 60.1264C342.594 60.0858 342.69 60.0665 342.786 60.0697H348.424C348.519 60.0686 348.614 60.0894 348.703 60.1308C348.791 60.1722 348.872 60.2333 348.94 60.3107C349.007 60.3881 349.061 60.4802 349.098 60.5818C349.135 60.6833 349.154 60.7922 349.154 60.9021C349.152 61.1258 349.075 61.3401 348.939 61.4997C348.803 61.6593 348.618 61.7519 348.424 61.7579Z" fill="white"/>
<path d="M359.287 60.9019V69.8723C359.283 70.0952 359.204 70.3078 359.067 70.4647C358.929 70.6216 358.744 70.7105 358.55 70.7125C358.454 70.7125 358.359 70.6908 358.271 70.6486C358.182 70.6063 358.102 70.5444 358.034 70.4664C357.966 70.3884 357.912 70.2958 357.876 70.1938C357.839 70.0919 357.82 69.9826 357.82 69.8723V63.4693L355.92 66.5113C355.853 66.6209 355.764 66.7101 355.661 66.7711C355.557 66.8321 355.442 66.8631 355.326 66.8614C355.207 66.8636 355.09 66.8329 354.984 66.772C354.878 66.7111 354.787 66.6216 354.717 66.5113L352.824 63.4693V69.8723C352.807 70.0822 352.722 70.277 352.586 70.4188C352.451 70.5606 352.274 70.6392 352.091 70.6392C351.908 70.6392 351.731 70.5606 351.595 70.4188C351.46 70.277 351.375 70.0822 351.357 69.8723V60.9019C351.359 60.6804 351.437 60.4687 351.574 60.3128C351.71 60.1569 351.895 60.0695 352.088 60.0695H352.128C352.242 60.0701 352.353 60.1014 352.454 60.1608C352.555 60.2203 352.643 60.3063 352.709 60.4118L355.339 64.613L357.969 60.4118C358.036 60.3037 358.126 60.216 358.23 60.1564C358.333 60.0968 358.448 60.067 358.564 60.0695C358.753 60.0772 358.933 60.1674 359.068 60.3219C359.202 60.4764 359.28 60.6836 359.287 60.9019Z" fill="white"/>
<path d="M362.484 69.8722V60.9018C362.484 60.7919 362.503 60.683 362.54 60.5815C362.577 60.4799 362.631 60.3878 362.699 60.3104C362.767 60.233 362.847 60.1719 362.936 60.1305C363.024 60.0891 363.119 60.0683 363.214 60.0694C363.31 60.0683 363.405 60.0891 363.494 60.1303C363.583 60.1716 363.664 60.2327 363.733 60.31C363.801 60.3873 363.856 60.4793 363.893 60.5809C363.931 60.6824 363.95 60.7915 363.951 60.9018V69.0242H367.534C367.716 69.0443 367.886 69.142 368.009 69.298C368.132 69.4541 368.2 69.6574 368.2 69.8683C368.2 70.0791 368.132 70.2824 368.009 70.4385C367.886 70.5946 367.716 70.6922 367.534 70.7124H363.214C363.021 70.7124 362.835 70.6239 362.698 70.4663C362.561 70.3087 362.484 70.095 362.484 69.8722Z" fill="white"/>
<path d="M261.923 330.883C260.01 331.731 204.537 332.891 202.367 331.467C202.131 331.303 202.191 328.487 201.38 321.197C201.34 320.847 200.069 319.493 198.095 317.587C190.659 310.43 173.245 295.344 173.245 295.344L200.961 267.663L227.792 298.005L234.768 305.894C234.768 305.894 257.434 319.984 259.678 321.843C261.923 323.702 263.836 330.043 261.923 330.883Z" fill="#DD6A57"/>
<path d="M261.923 330.884C260.01 331.732 204.537 332.891 202.367 331.467C202.13 331.304 202.198 328.487 201.373 321.197C201.34 320.847 200.075 319.501 198.095 317.588C195.512 315.098 194.289 313.962 190.449 310.523L225.649 295.64L227.758 298.021L234.734 305.918C234.734 305.918 257.4 319.999 259.645 321.859C261.889 323.718 263.836 330.043 261.923 330.884Z" fill="#EBEBEB"/>
<path d="M265.742 331.763C263.816 332.541 204.713 333.28 202.584 331.763C202.083 331.405 201.624 327.453 201.232 322.038C201.184 321.361 195.195 315.853 194.377 314.834L230.597 300.83L235.174 305.778C235.174 305.778 261.828 320.054 264.005 321.999C266.182 323.944 267.696 330.993 265.742 331.763Z" fill="#FF4C60"/>
<path d="M264.924 329.226C255.636 329.086 214.447 329.545 205.26 330.222C205.186 330.222 205.186 330.284 205.26 330.284C214.461 330.658 255.649 329.849 264.924 329.405C265.12 329.39 265.12 329.234 264.924 329.226Z" fill="#263238"/>
<path d="M238.155 306.213C234.491 305.482 230.043 306.213 227.271 309.217C227.163 309.333 227.311 309.504 227.426 309.465C230.903 308.12 234.495 307.207 238.141 306.742C238.202 306.745 238.261 306.719 238.305 306.671C238.35 306.622 238.376 306.556 238.378 306.486C238.379 306.416 238.357 306.347 238.315 306.296C238.273 306.245 238.215 306.216 238.155 306.213Z" fill="#263238"/>
<path d="M240.811 308.011C237.147 307.271 232.699 308.011 229.928 311.014C229.819 311.13 229.961 311.302 230.083 311.255C233.56 309.912 237.152 309.002 240.798 308.54C240.859 308.542 240.918 308.516 240.962 308.468C241.007 308.42 241.032 308.353 241.034 308.283C241.036 308.213 241.014 308.145 240.972 308.094C240.93 308.043 240.872 308.013 240.811 308.011Z" fill="#263238"/>
<path d="M243.461 309.8C239.804 309.069 235.349 309.8 232.578 312.803C232.476 312.92 232.618 313.091 232.74 313.052C236.217 311.707 239.809 310.794 243.454 310.329C243.515 310.33 243.574 310.303 243.618 310.254C243.662 310.205 243.687 310.138 243.688 310.068C243.689 309.998 243.665 309.93 243.623 309.88C243.58 309.83 243.522 309.801 243.461 309.8Z" fill="#263238"/>
<path d="M246.118 311.597C242.461 310.858 238.006 311.597 235.234 314.6C235.126 314.717 235.275 314.888 235.396 314.841C238.873 313.497 242.465 312.587 246.111 312.126C246.172 312.127 246.231 312.1 246.275 312.051C246.318 312.002 246.343 311.936 246.344 311.865C246.345 311.795 246.322 311.728 246.279 311.677C246.237 311.627 246.179 311.598 246.118 311.597Z" fill="#263238"/>
<path d="M244.8 296.418C243.346 294.162 240.683 295.22 239.169 296.714C236.617 299.336 234.71 302.684 233.639 306.423C233.634 306.44 233.632 306.457 233.633 306.475C233.635 306.492 233.641 306.509 233.649 306.524C233.658 306.538 233.67 306.55 233.683 306.558C233.697 306.566 233.712 306.571 233.727 306.571C233.725 306.653 233.741 306.735 233.771 306.809C233.802 306.884 233.848 306.949 233.904 306.999C233.96 307.05 234.026 307.085 234.097 307.101C234.167 307.117 234.239 307.114 234.308 307.092C237.31 305.762 240.663 304.758 243.225 302.424C244.712 301.039 246.179 298.534 244.8 296.418ZM238.506 304.004C237.039 304.696 235.559 305.303 234.112 306.065C235.201 304.175 236.208 302.237 237.452 300.471C238.041 299.613 238.68 298.802 239.365 298.044C240.44 296.885 244.719 294.411 244.097 299.032C243.793 301.561 240.25 303.163 238.506 303.988V304.004Z" fill="#263238"/>
<path d="M224.344 305.435C227.373 306.867 230.834 306.75 234.038 307.061C234.109 307.06 234.179 307.04 234.243 307.002C234.306 306.964 234.361 306.91 234.403 306.844C234.445 306.777 234.473 306.7 234.485 306.619C234.496 306.538 234.492 306.455 234.471 306.377C234.484 306.37 234.497 306.36 234.507 306.348C234.517 306.335 234.525 306.32 234.529 306.304C234.534 306.288 234.535 306.27 234.533 306.253C234.531 306.236 234.526 306.22 234.518 306.206C232.589 302.957 229.949 300.351 226.866 298.651C225.054 297.694 222.235 297.531 221.383 300.16C220.572 302.642 222.58 304.595 224.344 305.435ZM222.668 302.456C220.978 298.208 225.683 299.219 226.994 299.989C227.837 300.499 228.648 301.076 229.421 301.716C231.001 303.059 232.522 304.493 233.977 306.011C232.409 305.747 230.834 305.638 229.245 305.443C227.386 305.202 223.594 304.797 222.668 302.456Z" fill="#263238"/>
<path d="M228.136 296.317L193.917 316.732C193.917 316.732 158.265 279.59 155 279.31C151.735 279.03 103.772 316.49 79.6257 316.646C54.6137 316.771 53.3496 286.615 53.3496 286.615L89.8536 276.968C116.15 262.054 143.542 235.267 161.462 237.765C180.897 240.441 228.136 296.317 228.136 296.317Z" fill="#455A64"/>
<path d="M219.781 291.12C214.001 294.411 215.623 293.376 209.877 296.737C207.065 298.379 192.917 306.594 190.51 308.625C190.463 308.672 190.51 308.78 190.571 308.757C193.397 307.668 207.39 299.102 210.175 297.398C215.867 293.921 214.231 294.854 219.862 291.307C219.873 291.3 219.882 291.292 219.89 291.282C219.898 291.271 219.904 291.259 219.907 291.246C219.911 291.233 219.913 291.22 219.912 291.206C219.911 291.192 219.908 291.179 219.902 291.167C219.897 291.154 219.89 291.143 219.881 291.134C219.872 291.125 219.861 291.119 219.85 291.114C219.839 291.11 219.827 291.108 219.815 291.109C219.803 291.11 219.791 291.114 219.781 291.12Z" fill="#263238"/>
<path d="M187.86 307.31C181.168 300.526 159.245 278.423 158.359 277.598C157.669 276.839 156.902 276.178 156.074 275.63C155.733 275.476 155.366 275.414 155 275.448C154.635 275.482 154.281 275.61 153.965 275.824C152.951 276.369 151.937 276.968 150.95 277.528L145.022 280.858C137.356 285.16 129.731 289.579 122.004 293.75C114.568 297.748 109.268 301.53 101.508 304.642C93.8057 307.765 85.8389 309.945 77.7395 311.146C76.7391 311.286 75.7386 311.41 74.7381 311.519C74.7262 311.524 74.7158 311.533 74.7085 311.545C74.7012 311.557 74.6973 311.571 74.6973 311.585C74.6973 311.6 74.7012 311.614 74.7085 311.626C74.7158 311.638 74.7262 311.647 74.7381 311.651C82.6989 311.104 90.5695 309.419 98.1683 306.633C105.854 303.918 111.066 300.409 118.374 296.519C125.938 292.513 133.395 288.226 140.851 283.955C144.792 281.706 148.72 279.427 152.667 277.201C153.566 276.704 154.837 275.607 155.865 276.143C156.291 276.421 156.686 276.758 157.041 277.147L158.393 278.407C160.083 280.026 186.954 306.664 187.833 307.427C187.833 307.489 187.928 307.388 187.86 307.31Z" fill="#263238"/>
<path d="M53.2823 286.577C53.2823 286.577 49.2263 313.807 61.0225 324.504C72.8187 335.202 159.536 333.91 172.671 329.016C185.805 324.123 186.238 299.701 171.859 294.045C158.184 288.638 100.048 286.048 98.5743 285.386C98.216 285.223 103.739 281.411 103.712 281.177L90.4758 276.509L53.2823 286.577Z" fill="#455A64"/>
<path d="M71.2366 285.884C71.2366 285.767 71.0676 285.806 71.0676 285.884C71.076 289.044 70.1188 292.106 68.3636 294.536C66.3356 297.212 63.3815 298.713 60.691 300.277C60.4341 300.425 60.6302 300.892 60.8938 300.798C62.5408 300.223 64.1277 299.44 65.6258 298.464C67.0081 297.616 68.225 296.451 69.2018 295.041C70.0735 293.76 70.7044 292.285 71.0547 290.709C71.4049 289.132 71.4669 287.489 71.2366 285.884Z" fill="#263238"/>
<path d="M97.6276 282.515C97.026 281.628 96.3703 280.788 95.7416 279.932C94.2612 277.902 92.774 275.864 91.2192 273.911C91.0772 273.724 90.7865 273.989 90.9217 274.191C91.9695 275.747 93.0714 277.303 94.1597 278.82L95.843 281.154C96.4332 281.871 96.9608 282.652 97.4181 283.488C97.8237 284.359 97.2896 285.106 96.4987 285.199C95.8067 285.228 95.1316 284.949 94.6127 284.421C93.4383 283.224 92.3633 281.904 91.4017 280.477C90.7798 279.699 90.1511 278.859 89.5224 278.065C88.8937 277.272 88.1298 276.408 87.4538 275.56C87.4133 275.506 87.3322 275.56 87.366 275.646C87.9541 276.571 88.4949 277.536 89.083 278.47C89.6711 279.403 90.2727 280.314 90.8744 281.224C91.476 282.134 92.0439 282.928 92.659 283.76C93.1689 284.489 93.7785 285.117 94.464 285.62C95.5861 286.398 97.5397 286.545 98.1414 284.842C98.2468 284.437 98.2547 284.006 98.1642 283.597C98.0737 283.187 97.8883 282.813 97.6276 282.515Z" fill="#263238"/>
<path d="M170.873 329.094C166.35 329.188 161.821 329.491 157.292 329.6C152.762 329.709 148.308 329.74 143.819 329.693C134.806 329.6 125.792 329.198 116.779 328.487C107.68 327.764 97.851 326.721 88.8399 325.274C84.5135 324.59 80.1331 324.014 75.8607 322.94C72.0177 322.099 68.4641 320.009 65.6193 316.919C59.7652 310.391 57.5073 300.783 56.5609 291.61C56.4325 290.381 56.3311 289.144 56.2432 287.907C56.2432 287.829 56.1283 287.829 56.1351 287.907C56.6623 297.313 57.9332 307.124 63.0776 314.686C65.2465 317.988 68.1363 320.57 71.4532 322.17C75.5092 324.037 79.9911 324.504 84.2972 325.142C93.3691 326.558 103.225 327.655 112.338 328.464C121.45 329.273 130.725 329.795 139.932 329.95C149.139 330.106 158.36 329.95 167.553 329.437C168.676 329.374 169.798 329.297 170.933 329.188C170.939 329.177 170.942 329.164 170.942 329.152C170.942 329.139 170.938 329.127 170.931 329.117C170.925 329.106 170.915 329.099 170.905 329.095C170.894 329.091 170.883 329.091 170.873 329.094Z" fill="#263238"/>
<path d="M142.325 289.082C139.479 288.599 136.633 288.132 133.767 287.782C130.9 287.432 127.973 287.137 125.073 286.856C119.341 286.296 113.581 285.798 107.842 285.487C104.577 285.308 101.312 285.293 98.0469 285.339C97.9387 285.339 97.9455 285.511 98.0469 285.526C103.793 286.125 109.539 286.537 115.305 286.981C121.071 287.424 126.797 288 132.523 288.63C135.774 288.988 139.026 289.26 142.278 289.564C142.333 289.571 142.389 289.553 142.433 289.513C142.476 289.472 142.504 289.414 142.511 289.35C142.517 289.286 142.501 289.222 142.466 289.171C142.431 289.121 142.38 289.089 142.325 289.082Z" fill="#263238"/>
<path d="M104.388 280.858C102.093 281.996 99.8864 283.355 97.7902 284.92C95.6638 286.391 93.6307 288.034 91.7062 289.836C91.6521 289.891 91.7062 289.969 91.7738 289.938C94.0113 288.747 96.1678 287.254 98.2972 285.83C100.459 284.432 102.547 282.889 104.55 281.208C104.665 281.076 104.577 280.757 104.388 280.858Z" fill="#263238"/>
<path d="M93.5244 253.628L87.8798 252.57C86.8087 248.569 86.8465 244.284 87.9879 240.309C88.2381 239.399 85.4597 244.354 85.0135 252.041C79.0512 250.944 70.946 249.45 63.8818 248.065C64.2536 244.868 64.4699 241.888 64.4699 241.888C63.915 243.921 63.2023 245.892 62.3405 247.778L59.5216 247.217C60.5153 242.339 61.1643 233.618 61.1643 233.618C59.8991 238.207 57.9877 242.525 55.5061 246.401C51.031 245.467 48.0701 244.767 48.327 244.557C56.5269 237.065 52.383 230.864 55.5805 223.403C59.4067 214.464 66.7075 214.464 67.6336 207.337C68.3975 201.541 69.452 190.953 76.1377 190.066C78.1577 188.502 80.5334 187.657 82.9679 187.638C85.4024 187.619 87.788 188.425 89.8267 189.957C99.1149 196.484 92.3143 213.413 92.4157 217.187C92.5577 222.555 94.4032 224.827 95.0521 231.051C95.7011 237.275 92.7335 240.815 91.8141 244.798C90.8947 248.781 94.6398 253.83 93.5244 253.628Z" fill="#263238"/>
<path d="M48.3267 243.242C49.5032 241.884 50.5069 240.341 51.3078 238.659C52.1055 237.01 52.1731 235.166 52.1596 233.213C52.1016 231.255 52.1309 229.294 52.2475 227.34C52.3873 225.306 52.8792 223.324 53.6941 221.512C54.5472 219.709 55.7501 218.157 57.2093 216.977C58.618 215.855 60.1059 214.871 61.6574 214.036C63.1532 213.235 64.5528 212.215 65.8215 211.002C67.0566 209.714 67.9615 208.062 68.4377 206.225C68.1948 208.209 67.4305 210.06 66.2474 211.531C65.038 212.943 63.65 214.136 62.1306 215.07C60.6793 215.986 59.2816 217.01 57.9461 218.136C56.6713 219.24 55.6196 220.65 54.8636 222.267C54.135 223.912 53.6766 225.697 53.5116 227.534C53.3088 229.401 53.3088 231.315 53.2209 233.276C53.1832 234.274 53.0793 235.268 52.9099 236.248C52.7126 237.247 52.3624 238.198 51.8757 239.056C50.9156 240.681 49.7142 242.098 48.3267 243.242Z" fill="#263238"/>
<path d="M94.4232 197.768C94.7623 200.135 94.8486 202.541 94.6801 204.933C94.5584 207.321 94.3353 209.702 94.092 212.067L93.754 215.599C93.6297 216.737 93.6025 217.886 93.6729 219.03C93.9187 221.314 94.521 223.528 95.4507 225.566C95.8959 226.677 96.2776 227.82 96.5932 228.989C96.8946 230.189 97.0827 231.422 97.1543 232.669C97.1852 233.9 97.1377 235.133 97.0123 236.356C96.8907 237.588 96.6387 238.797 96.2619 239.959C95.8834 241.126 95.4102 242.199 94.9843 243.257C94.5575 244.313 94.218 245.412 93.9703 246.54C93.7551 247.678 93.7797 248.859 94.042 249.984C94.3042 251.108 94.7965 252.145 95.4778 253.006C94.6749 252.194 94.0595 251.165 93.6867 250.013C93.3139 248.86 93.1954 247.619 93.3416 246.4C93.5142 245.195 93.7951 244.014 94.1799 242.876C94.5449 241.732 94.9775 240.666 95.2682 239.57C95.8305 237.362 96.039 235.055 95.8834 232.762C95.7967 231.631 95.611 230.513 95.3291 229.424C95.0225 228.321 94.6521 227.242 94.2204 226.196C93.7733 225.096 93.3784 223.968 93.0374 222.819C92.6938 221.628 92.4803 220.391 92.402 219.139C92.3577 217.904 92.4165 216.666 92.5777 215.444C92.7129 214.253 92.8819 213.071 93.0509 211.896C93.3822 209.562 93.7269 207.228 94.0176 204.855C94.3654 202.515 94.5013 200.14 94.4232 197.768Z" fill="#263238"/>
<path d="M78.0573 234.038C81.39 244.471 96.4783 271.67 103.468 275.661C108.64 278.602 124.079 282.212 126.067 281.644C128.933 280.866 135.348 258.428 132.725 258.211C120.111 257.16 112.08 255.277 109.106 253.924C106.598 252.78 96.1471 241.67 82.5865 228.102C77.8613 223.379 76.0564 227.799 78.0573 234.038Z" fill="#D3766A"/>
<path d="M85.8047 256.834L94.4642 237.843C94.4642 237.843 87.4541 230.693 83.0872 227.363C77.3074 222.967 74.529 224.406 76.7801 233.836C78.2808 240.138 85.8047 256.834 85.8047 256.834Z" fill="#FF4C60"/>
<path d="M86.5275 230.241H86.4532C86.1662 230.241 85.8879 230.128 85.6651 229.919C85.4424 229.711 85.2886 229.421 85.2296 229.098C85.6487 229.51 86.0814 229.845 86.5275 230.241ZM86.4532 252.523C86.1215 252.523 85.8034 252.675 85.5689 252.945C85.3344 253.215 85.2026 253.581 85.2026 253.963C85.2026 254.344 85.3344 254.71 85.5689 254.98C85.8034 255.25 86.1215 255.402 86.4532 255.402L87.4739 253.153C87.3603 252.96 87.2073 252.801 87.0282 252.691C86.8491 252.582 86.6494 252.524 86.4464 252.523H86.4532ZM79.5309 240.075C79.3059 240.073 79.0852 240.146 78.8955 240.285C79.22 241.133 79.5715 242.005 79.9027 242.884C80.1578 242.795 80.3812 242.614 80.5395 242.367C80.6979 242.12 80.7828 241.821 80.7815 241.515C80.7833 241.324 80.7521 241.134 80.6896 240.957C80.6272 240.78 80.5347 240.619 80.4177 240.484C80.3007 240.349 80.1614 240.241 80.008 240.168C79.8546 240.096 79.6901 240.059 79.5242 240.06L79.5309 240.075ZM93.3754 240.075C93.2112 240.075 93.0486 240.112 92.8968 240.185C92.7451 240.257 92.6073 240.363 92.4911 240.497C92.375 240.63 92.2829 240.789 92.22 240.964C92.1572 241.138 92.1248 241.326 92.1248 241.515C92.1246 241.837 92.22 242.15 92.3952 242.401L93.4565 240.067L93.3754 240.075Z" fill="white"/>
<path d="M85.1218 253.963C86.217 251.1 87.3391 248.26 88.583 245.475C89.1959 244.085 89.8313 242.705 90.4893 241.336C91.1653 239.967 91.9224 238.675 92.5578 237.298C92.5916 237.228 92.693 237.298 92.6525 237.368C91.9765 238.698 91.4154 240.161 90.78 241.53C90.1445 242.9 89.5158 244.3 88.8939 245.685C87.6501 248.455 86.4062 251.232 85.2165 254.033C85.1759 254.111 85.088 254.041 85.1218 253.963Z" fill="#263238"/>
<path opacity="0.1" d="M93.1053 240.83L85.8045 256.842C85.8045 256.842 78.2874 240.138 76.7731 233.836C76.0971 230.919 75.8673 228.771 76.0971 227.316L93.1053 240.83Z" fill="black"/>
<path d="M126.067 281.636C128.797 283.358 131.622 284.873 134.524 286.172C136.842 287.082 143.575 289.494 144.697 286.654C145.468 284.717 141.655 282.764 138.979 281.31C137.572 280.532 135.876 278.727 136.342 277.684C137.153 275.871 140.777 277.933 143.136 279.684C147.706 283.076 153.736 289.066 156.717 286.476C157.839 285.495 156.656 283.542 154.892 281.59C157.792 283.924 160.908 285.845 162.199 284.818C162.936 284.227 163.004 283.371 162.645 282.375C163.015 282.596 163.433 282.685 163.847 282.633C164.261 282.58 164.652 282.388 164.971 282.08C165.991 280.967 165.586 279.209 164.592 277.412C164.776 277.399 164.954 277.337 165.112 277.23C165.271 277.123 165.405 276.975 165.505 276.797C167.709 273.296 157.825 262.381 154.303 261.237C143.94 257.814 132.746 258.265 132.746 258.265C128.44 261.782 126.06 281.636 126.067 281.636Z" fill="#D3766A"/>
<path d="M141.96 271.226C144.443 271.781 146.789 272.963 148.828 274.688C151.194 276.758 153.032 279.496 155.202 281.807C155.263 281.869 155.202 281.971 155.115 281.908C154.101 280.718 152.972 279.644 151.91 278.508C150.849 277.373 149.882 276.237 148.774 275.21C146.79 273.317 144.457 271.971 141.953 271.273C141.953 271.273 141.899 271.219 141.96 271.226Z" fill="#263238"/>
<path d="M144.089 266.208C146.862 267.115 149.547 268.348 152.1 269.888C154.804 271.678 156.913 274.463 158.961 277.155C160.192 278.773 161.395 280.415 162.564 282.095C162.612 282.165 162.524 282.266 162.476 282.196C160.394 279.416 158.245 276.714 156.027 274.089C153.982 271.635 151.535 269.671 148.828 268.309C147.28 267.531 145.685 266.901 144.096 266.263C144.042 266.255 144.055 266.2 144.089 266.208Z" fill="#263238"/>
<path d="M147.212 261.891C149.862 262.669 152.174 263.33 154.472 265.112C157.521 267.446 160.401 271.336 161.415 272.666C162.53 274.167 163.598 275.716 164.653 277.279C164.693 277.342 164.599 277.427 164.551 277.365C162.139 273.932 159.538 270.681 156.764 267.632C155.46 266.158 153.967 264.925 152.336 263.976C150.681 263.12 148.964 262.433 147.205 261.922C147.205 261.922 147.199 261.891 147.212 261.891Z" fill="#263238"/>
<path d="M50.0713 292.443C51.6734 293.042 97.3913 277.816 97.3913 277.816L91.9833 259.557C91.9833 259.557 94.6873 253.683 93.4096 248.035C91.7602 240.488 79.6193 228.079 78.6661 227.348C74.8399 224.43 71.2301 224.477 68.0732 226.414C54.8574 234.497 50.0713 292.443 50.0713 292.443Z" fill="#FF4C60"/>
<path d="M73.853 228.81C73.853 229.095 73.7796 229.373 73.6422 229.61C73.5048 229.846 73.3095 230.031 73.0809 230.14C72.8524 230.249 72.601 230.277 72.3584 230.222C72.1158 230.166 71.893 230.029 71.7181 229.828C71.5432 229.626 71.4241 229.37 71.3758 229.091C71.3275 228.811 71.3523 228.522 71.447 228.259C71.5416 227.996 71.7019 227.771 71.9076 227.613C72.1132 227.455 72.355 227.371 72.6024 227.371C72.934 227.371 73.2521 227.522 73.4867 227.792C73.7212 228.062 73.853 228.428 73.853 228.81ZM58.7579 252.523C58.5105 252.523 58.2688 252.608 58.0631 252.766C57.8574 252.924 57.6971 253.149 57.6025 253.412C57.5078 253.675 57.4831 253.964 57.5313 254.243C57.5796 254.523 57.6987 254.779 57.8736 254.98C58.0485 255.182 58.2713 255.319 58.5139 255.374C58.7565 255.43 59.008 255.401 59.2365 255.292C59.465 255.183 59.6603 254.999 59.7977 254.762C59.9351 254.526 60.0085 254.247 60.0085 253.963C60.0085 253.774 59.9761 253.586 59.9133 253.412C59.8504 253.237 59.7583 253.079 59.6422 252.945C59.5261 252.811 59.3882 252.705 59.2365 252.633C59.0847 252.561 58.9221 252.523 58.7579 252.523ZM72.6024 252.523C72.355 252.523 72.1132 252.608 71.9076 252.766C71.7019 252.924 71.5416 253.149 71.447 253.412C71.3523 253.675 71.3275 253.964 71.3758 254.243C71.4241 254.523 71.5432 254.779 71.7181 254.98C71.893 255.182 72.1158 255.319 72.3584 255.374C72.601 255.43 72.8524 255.401 73.0809 255.292C73.3095 255.183 73.5048 254.999 73.6422 254.762C73.7796 254.526 73.853 254.247 73.853 253.963C73.853 253.774 73.8206 253.586 73.7578 253.412C73.6949 253.237 73.6028 253.079 73.4867 252.945C73.3705 252.811 73.2327 252.705 73.0809 252.633C72.9292 252.561 72.7666 252.523 72.6024 252.523ZM86.4468 252.523C86.1995 252.523 85.9577 252.608 85.7521 252.766C85.5464 252.924 85.3861 253.149 85.2914 253.412C85.1968 253.675 85.172 253.964 85.2203 254.243C85.2685 254.523 85.3876 254.779 85.5625 254.98C85.7374 255.182 85.9603 255.319 86.2029 255.374C86.4455 255.43 86.6969 255.401 86.9254 255.292C87.1539 255.183 87.3493 254.999 87.4867 254.762C87.6241 254.526 87.6974 254.247 87.6974 253.963C87.6974 253.774 87.6651 253.586 87.6022 253.412C87.5394 253.237 87.4473 253.079 87.3312 252.945C87.215 252.811 87.0772 252.705 86.9254 252.633C86.7737 252.561 86.6111 252.523 86.4468 252.523ZM65.6801 240.075C65.4319 240.074 65.1889 240.157 64.9821 240.315C64.7753 240.473 64.614 240.698 64.5187 240.962C64.4234 241.226 64.3984 241.516 64.447 241.796C64.4956 242.077 64.6156 242.334 64.7915 242.535C64.9675 242.737 65.1916 242.873 65.4353 242.928C65.6789 242.982 65.9312 242.952 66.1598 242.841C66.3885 242.73 66.5833 242.543 66.7193 242.304C66.8554 242.065 66.9266 241.785 66.924 241.499C66.924 241.119 66.7931 240.754 66.5601 240.484C66.327 240.214 66.0106 240.062 65.6801 240.06V240.075ZM79.5246 240.075C79.2773 240.075 79.0355 240.16 78.8298 240.318C78.6242 240.476 78.4639 240.701 78.3692 240.964C78.2745 241.227 78.2498 241.516 78.298 241.795C78.3463 242.075 78.4654 242.331 78.6403 242.532C78.8152 242.734 79.038 242.871 79.2806 242.926C79.5232 242.982 79.7747 242.953 80.0032 242.844C80.2317 242.735 80.427 242.551 80.5644 242.314C80.7019 242.078 80.7752 241.799 80.7752 241.515C80.777 241.324 80.746 241.135 80.6839 240.959C80.6219 240.783 80.53 240.622 80.4137 240.487C80.2974 240.352 80.159 240.244 80.0063 240.171C79.8537 240.098 79.69 240.06 79.5246 240.06V240.075ZM58.7579 277.676C58.5105 277.676 58.2688 277.76 58.0631 277.919C57.8574 278.077 57.6971 278.302 57.6025 278.565C57.5078 278.828 57.4831 279.117 57.5313 279.396C57.5796 279.675 57.6987 279.932 57.8736 280.133C58.0485 280.334 58.2713 280.472 58.5139 280.527C58.7565 280.583 59.008 280.554 59.2365 280.445C59.465 280.336 59.6603 280.152 59.7977 279.915C59.9351 279.678 60.0085 279.4 60.0085 279.115C60.0085 278.734 59.8767 278.368 59.6422 278.098C59.4077 277.828 59.0896 277.676 58.7579 277.676ZM72.6024 277.676C72.355 277.676 72.1132 277.76 71.9076 277.919C71.7019 278.077 71.5416 278.302 71.447 278.565C71.3523 278.828 71.3275 279.117 71.3758 279.396C71.4241 279.675 71.5432 279.932 71.7181 280.133C71.893 280.334 72.1158 280.472 72.3584 280.527C72.601 280.583 72.8524 280.554 73.0809 280.445C73.3095 280.336 73.5048 280.152 73.6422 279.915C73.7796 279.678 73.853 279.4 73.853 279.115C73.853 278.734 73.7212 278.368 73.4867 278.098C73.2521 277.828 72.934 277.676 72.6024 277.676ZM86.4468 277.676C86.1995 277.676 85.9577 277.76 85.7521 277.919C85.5464 278.077 85.3861 278.302 85.2914 278.565C85.1968 278.828 85.172 279.117 85.2203 279.396C85.2685 279.675 85.3876 279.932 85.5625 280.133C85.7374 280.334 85.9603 280.472 86.2029 280.527C86.4455 280.583 86.6969 280.554 86.9254 280.445C87.1539 280.336 87.3493 280.152 87.4867 279.915C87.6241 279.678 87.6974 279.4 87.6974 279.115C87.6974 278.734 87.5657 278.368 87.3312 278.098C87.0966 277.828 86.7785 277.676 86.4468 277.676ZM65.6801 265.228C65.4319 265.227 65.1889 265.31 64.9821 265.468C64.7753 265.626 64.614 265.851 64.5187 266.115C64.4234 266.379 64.3984 266.669 64.447 266.949C64.4956 267.229 64.6156 267.486 64.7915 267.688C64.9675 267.889 65.1916 268.026 65.4353 268.08C65.6789 268.135 65.9312 268.104 66.1598 267.993C66.3885 267.882 66.5833 267.695 66.7193 267.456C66.8554 267.218 66.9266 266.937 66.924 266.652C66.924 266.271 66.7931 265.907 66.5601 265.637C66.327 265.367 66.0106 265.215 65.6801 265.213V265.228ZM79.5246 265.228C79.2773 265.228 79.0355 265.312 78.8298 265.471C78.6242 265.629 78.4639 265.854 78.3692 266.117C78.2745 266.38 78.2498 266.669 78.298 266.948C78.3463 267.227 78.4654 267.484 78.6403 267.685C78.8152 267.886 79.038 268.024 79.2806 268.079C79.5232 268.135 79.7747 268.106 80.0032 267.997C80.2317 267.888 80.427 267.704 80.5644 267.467C80.7019 267.23 80.7752 266.952 80.7752 266.667C80.777 266.477 80.746 266.288 80.6839 266.112C80.6219 265.935 80.53 265.775 80.4137 265.64C80.2974 265.504 80.159 265.397 80.0063 265.324C79.8537 265.25 79.69 265.213 79.5246 265.213V265.228ZM93.6733 265.275C93.5743 265.243 93.4719 265.227 93.3691 265.228C93.0374 265.228 92.7193 265.38 92.4848 265.65C92.2503 265.92 92.1185 266.286 92.1185 266.667C92.1185 267.049 92.2503 267.415 92.4848 267.685C92.7193 267.955 93.0374 268.107 93.3691 268.107C93.5569 268.108 93.7424 268.06 93.9113 267.966C94.0802 267.871 94.2278 267.733 94.3425 267.562L93.6733 265.275ZM51.8356 290.365C51.504 290.365 51.1859 290.517 50.9513 290.787C50.7168 291.057 50.585 291.423 50.585 291.805C50.5828 292.013 50.6246 292.218 50.7067 292.404C51.2272 292.318 52.0587 292.124 53.0795 291.851C53.0826 291.836 53.0826 291.82 53.0795 291.805C53.0795 291.424 52.9487 291.059 52.7156 290.79C52.4825 290.52 52.1662 290.367 51.8356 290.365Z" fill="white"/>
<path d="M77.3206 258.242C79.2866 257.816 81.2771 257.556 83.2761 257.464C84.2698 257.464 85.2568 257.464 86.2505 257.518C86.744 257.518 87.2375 257.518 87.731 257.557C88.2505 257.575 88.7701 257.523 89.279 257.401C89.3196 257.401 89.3399 257.464 89.279 257.479C88.8144 257.657 88.3402 257.8 87.8594 257.907C87.3916 257.989 86.9196 258.036 86.4466 258.047C85.4393 258.086 84.4186 258.047 83.4181 258.094C81.3901 258.14 79.3621 258.195 77.3341 258.413C77.2462 258.436 77.2259 258.296 77.3206 258.242Z" fill="#263238"/>
<path d="M73.0616 261.719C74.595 261.022 76.1613 260.424 77.7531 259.93C78.5508 259.681 79.3552 259.494 80.1664 259.323L81.3291 259.105C81.7618 259.035 82.2012 259.028 82.627 258.95C82.636 258.95 82.6446 258.954 82.6509 258.961C82.6573 258.968 82.6608 258.978 82.6608 258.989C82.6608 258.999 82.6573 259.009 82.6509 259.016C82.6446 259.023 82.636 259.028 82.627 259.028C82.2282 259.113 81.8361 259.284 81.444 259.401L80.2475 259.743C79.4498 259.977 78.6522 260.218 77.8545 260.443C76.2524 260.895 74.6638 261.362 73.0819 261.875C73.064 261.878 73.0457 261.873 73.0311 261.86C73.0166 261.848 73.0069 261.83 73.0042 261.809C73.0015 261.788 73.006 261.767 73.0168 261.75C73.0276 261.734 73.0437 261.722 73.0616 261.719Z" fill="#263238"/>
<path d="M70.939 225.472C70.939 226.445 73.7444 233.408 77.4827 234.077C78.6995 234.295 80.0244 226.701 80.0244 226.701L80.234 226.165L83.1543 218.68L75.1843 209.819C75.1843 209.819 70.9322 225.052 70.939 225.472Z" fill="#D3766A"/>
<path d="M83.1476 218.68L80.2273 226.165C78.5268 224.937 77.0697 223.311 75.9505 221.393C74.8313 219.475 74.0751 217.308 73.731 215.031C74.461 212.386 75.083 210.192 75.1573 209.866C75.1608 209.85 75.1608 209.834 75.1573 209.819L76.1781 210.877L83.1476 218.68Z" fill="#263238"/>
<path d="M94.1803 208.232C93.0784 222.578 85.4802 223.434 82.7965 223.162C80.3561 222.905 72.0751 221.699 71.8791 207.29C71.683 192.882 77.8346 188.945 83.4454 189.179C89.0562 189.412 95.316 193.878 94.1803 208.232Z" fill="#D3766A"/>
<path d="M92.4766 205.704C92.2032 205.6 91.9347 205.481 91.6721 205.346C91.371 205.27 91.1015 205.078 90.9082 204.801C90.8604 204.703 90.8423 204.589 90.857 204.478C90.8717 204.366 90.9183 204.264 90.9894 204.186C91.1521 204.057 91.3421 203.98 91.5394 203.964C91.7367 203.947 91.9342 203.992 92.1115 204.093C92.4938 204.233 92.8184 204.529 93.0241 204.926C93.0673 205.02 93.0855 205.127 93.0765 205.233C93.0674 205.339 93.0315 205.44 92.9732 205.522C92.915 205.605 92.8368 205.667 92.7485 205.699C92.6602 205.731 92.5657 205.733 92.4766 205.704Z" fill="#263238"/>
<path d="M83.9318 205.392C84.2293 205.392 84.5064 205.392 84.7971 205.345C85.1036 205.374 85.41 205.287 85.6692 205.096C85.7413 205.02 85.7892 204.918 85.8051 204.807C85.821 204.695 85.8041 204.581 85.757 204.482C85.6379 204.302 85.4793 204.162 85.2975 204.076C85.1158 203.989 84.9174 203.961 84.7228 203.992C84.3201 203.986 83.93 204.152 83.6276 204.458C83.5619 204.532 83.5162 204.627 83.4962 204.73C83.4762 204.833 83.4827 204.941 83.515 205.04C83.5472 205.138 83.6038 205.225 83.6779 205.287C83.7519 205.35 83.8401 205.386 83.9318 205.392Z" fill="#263238"/>
<path d="M85.4123 208.263C85.4123 208.224 85.3447 208.263 85.3379 208.333C85.25 209.313 85.0067 210.41 84.209 210.62V210.675C85.1757 210.667 85.4663 209.204 85.4123 208.263Z" fill="#263238"/>
<path d="M84.7771 207.127C83.4251 206.8 82.9587 209.912 84.2025 210.239C85.4464 210.566 85.906 207.407 84.7771 207.127Z" fill="#263238"/>
<path d="M84.2228 207.182C83.9592 207.314 83.682 207.578 83.3914 207.555C83.1007 207.532 82.8573 207.15 82.7154 206.777C82.7154 206.738 82.668 206.777 82.6613 206.777C82.5599 207.376 82.6613 208.03 83.2156 208.224C83.7699 208.419 84.1552 207.96 84.3716 207.384C84.3851 207.314 84.331 207.135 84.2228 207.182Z" fill="#263238"/>
<path d="M90.2999 208.504C90.2999 208.504 90.3607 208.567 90.354 208.606C90.1715 209.562 90.1039 210.698 90.8137 211.181C90.8137 211.181 90.8137 211.243 90.8137 211.227C89.9078 210.838 89.9957 209.352 90.2999 208.504Z" fill="#263238"/>
<path d="M91.2124 207.625C92.5644 207.796 92.1858 210.924 90.9217 210.776C89.6576 210.628 90.0632 207.485 91.2124 207.625Z" fill="#263238"/>
<path d="M91.7534 207.928C91.9494 208.131 92.1252 208.465 92.3753 208.528C92.6254 208.59 92.9364 208.294 93.1662 207.998C93.1662 207.998 93.2068 207.998 93.2068 208.045C93.1459 208.644 92.8958 209.243 92.3821 209.274C91.8683 209.306 91.6385 208.73 91.5911 208.115C91.5776 207.998 91.6723 207.843 91.7534 207.928Z" fill="#263238"/>
<path d="M88.1707 213.351C88.1707 213.351 88.1031 214.829 87.9949 215.506C87.9949 215.568 87.8327 215.568 87.6299 215.506C87.1058 215.502 86.5928 215.332 86.1477 215.013C85.7027 214.695 85.343 214.24 85.1084 213.701C85.1039 213.693 85.1009 213.685 85.0993 213.676C85.0977 213.667 85.0978 213.657 85.0993 213.648C85.1009 213.639 85.104 213.631 85.1085 213.623C85.1129 213.615 85.1186 213.609 85.1253 213.604C85.1319 213.599 85.1394 213.595 85.1473 213.593C85.1551 213.592 85.1632 213.592 85.171 213.593C85.1789 213.595 85.1863 213.599 85.193 213.604C85.1996 213.609 85.2053 213.616 85.2098 213.623C85.8633 214.382 86.7119 214.879 87.6299 215.039C87.7042 214.86 87.6704 212.503 87.7651 212.518C88.217 212.665 88.6492 212.882 89.0495 213.164C89.2658 210.091 89.0495 207.002 89.3131 203.945C89.3131 203.92 89.3216 203.896 89.3369 203.879C89.3521 203.861 89.3727 203.852 89.3942 203.852C89.4157 203.852 89.4364 203.861 89.4516 203.879C89.4668 203.896 89.4753 203.92 89.4753 203.945C89.7894 207.245 89.8166 210.573 89.5565 213.88C89.5159 214.292 88.387 213.514 88.1707 213.351Z" fill="#263238"/>
<path d="M87.6499 215.257C87.2426 215.765 86.7279 216.143 86.1559 216.354C85.8434 216.467 85.5085 216.467 85.196 216.354C84.52 216.066 84.5673 215.343 84.7431 214.736C84.8375 214.413 84.967 214.104 85.1284 213.818C85.8158 214.592 86.6985 215.096 87.6499 215.257Z" fill="#263238"/>
<path d="M86.1559 216.354C85.8434 216.466 85.5085 216.466 85.196 216.354C84.52 216.066 84.5673 215.343 84.7431 214.736C85.101 214.787 85.4339 214.974 85.6896 215.267C85.9453 215.56 86.1093 215.942 86.1559 216.354Z" fill="#FF9CBD"/>
<path d="M72.3994 208.613C73.7514 208.613 77.6316 204.614 78.24 197.013C78.24 197.013 77.2801 203.789 76.7663 204.793C76.2526 205.797 78.9228 202.529 79.4703 196.406C81.0575 197.939 82.8289 199.199 84.7296 200.148C87.1902 201.183 88.7315 201.292 88.9276 201.098C89.1236 200.903 85.507 199.238 84.5876 197.814C84.5876 197.814 91.0502 201.984 94.126 202.529C94.4775 202.591 95.3225 194.99 90.746 190.984C86.1695 186.977 78.5374 189.373 76.354 191.458C76.354 191.458 73.9406 191.637 71.0744 195.48C68.2082 199.324 70.9189 208.582 72.3994 208.613Z" fill="#263238"/>
<path d="M82.3839 213.328C81.6373 213.162 80.9463 212.758 80.3897 212.162C79.8331 211.565 79.4334 210.801 79.2361 209.956C79.0388 209.111 79.0519 208.219 79.2739 207.382C79.4959 206.545 79.9179 205.796 80.4917 205.222C81.0655 204.648 81.768 204.271 82.519 204.134C83.2701 203.997 84.0394 204.106 84.7393 204.448C85.4391 204.791 86.0413 205.352 86.477 206.069C86.9128 206.787 87.1646 207.63 87.2038 208.504C87.2339 209.118 87.1586 209.732 86.9821 210.311C86.8056 210.891 86.5315 211.425 86.1755 211.882C85.8194 212.34 85.3884 212.712 84.9071 212.977C84.4258 213.243 83.9038 213.396 83.3709 213.429C83.0395 213.445 82.7077 213.411 82.3839 213.328ZM83.8441 204.77C83.5572 204.703 83.2641 204.68 82.972 204.7C82.0772 204.756 81.2347 205.203 80.6162 205.95C79.9977 206.696 79.6496 207.686 79.643 208.717C79.6363 209.748 79.9715 210.744 80.5803 211.501C81.1891 212.258 82.0257 212.719 82.9197 212.791C83.8137 212.863 84.6979 212.539 85.3921 211.887C86.0863 211.235 86.5384 210.303 86.6562 209.28C86.774 208.258 86.5488 207.222 86.0263 206.384C85.5038 205.546 84.7234 204.969 83.8441 204.77Z" fill="#FF4C60"/>
<path d="M91.6856 214.098C90.1578 213.756 89.083 211.647 89.2452 209.212C89.3061 208.046 89.6819 206.931 90.32 206.022C90.5753 205.616 90.917 205.292 91.3124 205.081C91.7078 204.87 92.1437 204.78 92.5781 204.819C93.0125 204.858 93.4309 205.025 93.7931 205.304C94.1553 205.583 94.4491 205.964 94.6464 206.411C95.1551 207.421 95.3772 208.587 95.2819 209.749C95.1061 212.316 93.6121 214.292 91.9492 214.145C91.8604 214.137 91.7723 214.121 91.6856 214.098ZM92.7401 205.47H92.5373C92.1898 205.457 91.8445 205.54 91.5305 205.711C91.2165 205.883 90.9428 206.139 90.7324 206.458C90.1706 207.267 89.84 208.256 89.786 209.29C89.6373 211.515 90.6242 213.429 91.9897 213.553C93.3553 213.678 94.5923 211.958 94.7411 209.733C94.8269 208.702 94.6308 207.666 94.18 206.769C94.0338 206.448 93.8298 206.165 93.5815 205.941C93.3333 205.717 93.0464 205.557 92.7401 205.47Z" fill="#FF4C60"/>
<path d="M87.055 209.01L86.7373 208.496C87.4133 207.959 88.8667 207.29 89.7725 208.597L89.3467 208.986C88.5557 207.812 87.1091 208.955 87.055 209.01Z" fill="#FF4C60"/>
<path d="M68.9113 208.598L68.4517 208.271C68.5869 208.022 69.8037 205.844 71.0137 205.727C72.2237 205.61 79.3691 207.05 79.6733 207.112L79.5854 207.726C77.5168 207.314 71.9466 206.264 71.061 206.349C70.1755 206.435 69.2358 207.999 68.9113 208.598Z" fill="#FF4C60"/>
<path d="M73.7782 208.597C73.7782 208.597 71.7502 203.618 69.8506 204.373C67.9511 205.127 68.9786 211.951 70.8917 213.242C71.127 213.428 71.3926 213.557 71.6726 213.622C71.9525 213.686 72.2409 213.684 72.5203 213.617C72.7996 213.549 73.0642 213.417 73.2978 213.228C73.5315 213.039 73.7294 212.798 73.8796 212.518L73.7782 208.597Z" fill="#D3766A"/>
<path d="M70.1958 206.318V206.38C71.5478 207.345 72.048 209.033 72.332 210.729C72.274 210.547 72.1824 210.381 72.0636 210.243C71.9447 210.106 71.8014 209.999 71.6435 209.931C71.4855 209.863 71.3166 209.835 71.1484 209.85C70.9802 209.864 70.8167 209.92 70.669 210.013C70.6284 210.013 70.669 210.115 70.669 210.115C70.9367 210.065 71.2111 210.114 71.4536 210.254C71.696 210.393 71.8945 210.617 72.021 210.893C72.2234 211.354 72.3821 211.839 72.4942 212.34C72.5348 212.503 72.7781 212.472 72.7578 212.293C72.7578 212.293 72.7578 212.293 72.7578 212.246C73.0958 210.169 72.1292 206.948 70.1958 206.318Z" fill="#263238"/>
<path d="M61.2454 236.061C51.6733 257.79 50.5376 276.19 53.3633 279.489C60.9683 288.413 85.9397 284.437 92.7267 284.289C95.4713 284.227 89.8943 258.265 86.9875 258.732C80.1329 259.821 70.2903 262.303 69.9591 262.147C69.2831 261.828 70.0605 255.698 71.0812 237.399C71.906 222.594 65.1595 227.176 61.2454 236.061Z" fill="#D3766A"/>
<path d="M96.1475 255.542C102.962 254.445 104.854 255.371 110.174 250.937C113.669 248.027 116.786 249.342 114.792 253.971C111.54 261.533 103.002 265.065 99.737 265.298L96.1475 255.542Z" fill="#D3766A"/>
<path d="M78.0576 263.088C78.0576 263.088 85.7099 258.195 92.8688 256.203C97.8171 254.826 108.241 253.97 119.456 265.773C122.424 268.885 123.018 275.163 117.719 271.693C113.852 269.157 112.121 266.846 109.607 266.029C109.607 266.029 110.999 274.338 108.309 277.116C105.954 279.544 103.454 281.777 100.825 283.799C100.396 283.326 99.9924 282.825 99.6153 282.297C99.6153 282.297 96.9113 284.631 91.7534 284.056L78.0576 263.088Z" fill="#D3766A"/>
<path d="M97.7765 255.76C100.142 257.184 105.111 260.288 108.41 264.458C112.074 269.087 118.05 279.146 115.055 282.227C112.851 284.484 110.282 280.874 110.282 280.874C110.282 280.874 111.986 285.627 109.606 287.168C107.443 288.568 105.598 285.612 105.598 285.612C105.598 285.612 106.206 288.724 103.894 289.587C101.116 290.661 100.305 284.009 96.6746 282.29C95.8702 281.939 97.7765 255.76 97.7765 255.76Z" fill="#D3766A"/>
<path d="M103.516 268.099C105.544 269.849 109.282 275.202 110.316 280.749C110.316 280.874 110.269 280.959 110.228 280.85C108.431 276.313 106.161 272.044 103.468 268.138C103.468 268.138 103.489 268.076 103.516 268.099Z" fill="#263238"/>
<path d="M99.561 272.487C101.183 274.214 104.814 279.924 105.692 285.588C105.692 285.713 105.638 285.798 105.598 285.682C104.007 281.046 101.966 276.633 99.5137 272.526C99.5137 272.526 99.5407 272.471 99.561 272.487Z" fill="#263238"/>
<path d="M85.6963 258.942C88.749 257.408 91.9384 256.263 95.2076 255.527C96.8426 255.147 98.4945 254.872 100.156 254.702C100.994 254.624 101.832 254.601 102.63 254.476C103.438 254.336 104.234 254.117 105.01 253.823C106.568 253.233 108.038 252.373 109.37 251.271C110.036 250.659 110.779 250.166 111.574 249.808C112.382 249.408 113.268 249.26 114.142 249.381C114.619 249.447 115.053 249.727 115.352 250.159C115.618 250.617 115.74 251.166 115.697 251.715C115.632 252.712 115.391 253.684 114.987 254.57C114.183 256.299 113.076 257.817 111.736 259.028V258.569C113.823 260.13 115.834 261.824 117.759 263.641C118.732 264.553 119.636 265.558 120.463 266.644C120.868 267.207 121.218 267.82 121.504 268.473C121.813 269.135 121.999 269.863 122.052 270.612C122.067 271.009 122.005 271.406 121.869 271.771C121.718 272.147 121.457 272.45 121.132 272.627C120.501 272.903 119.803 272.903 119.172 272.627C118.004 272.092 116.893 271.406 115.859 270.581C114.818 269.803 113.831 268.971 112.777 268.177C112.27 267.78 111.749 267.399 111.222 267.026C110.71 266.649 110.155 266.356 109.573 266.154L109.701 265.913C111.045 267.827 112.267 269.85 113.358 271.966C113.903 273.023 114.393 274.117 114.825 275.241C115.259 276.365 115.587 277.539 115.805 278.742C115.568 277.546 115.219 276.382 114.764 275.272C114.318 274.16 113.809 273.082 113.243 272.044C112.122 269.962 110.873 267.976 109.505 266.1L109.248 265.75L109.633 265.866C110.24 266.07 110.82 266.369 111.357 266.753C111.898 267.119 112.425 267.531 112.946 267.889C113.98 268.667 114.974 269.484 116.042 270.223C117.055 271.017 118.144 271.675 119.287 272.184C119.825 272.417 120.418 272.417 120.956 272.184C121.191 272.031 121.381 271.802 121.501 271.525C121.621 271.247 121.667 270.935 121.632 270.628C121.458 269.26 120.936 267.982 120.132 266.956C119.319 265.899 118.43 264.923 117.475 264.038C115.562 262.239 113.56 260.569 111.479 259.036L111.202 258.825L111.465 258.576C112.74 257.41 113.793 255.957 114.561 254.305C114.933 253.493 115.162 252.605 115.237 251.691C115.245 251.27 115.133 250.858 114.92 250.516C114.702 250.192 114.381 249.979 114.027 249.925C113.242 249.831 112.449 249.967 111.722 250.322C110.965 250.656 110.256 251.121 109.62 251.699C108.248 252.834 106.732 253.716 105.125 254.313C104.322 254.614 103.499 254.838 102.664 254.982C101.812 255.107 100.987 255.122 100.163 255.192C98.52 255.34 96.8706 255.558 95.2414 255.892C91.9816 256.552 88.785 257.573 85.6963 258.942Z" fill="#263238"/>
<path d="M52.5859 254.842L70.9799 251.201C70.9799 251.201 71.6559 240.441 71.2773 234.427C70.7771 226.476 68.1001 224.842 62.9625 232.622C59.5285 237.819 52.5859 254.842 52.5859 254.842Z" fill="#FF4C60"/>
<path d="M59.9 253.395L57.5137 253.862C57.5317 253.54 57.6435 253.235 57.8309 252.996C58.0184 252.756 58.2705 252.597 58.5465 252.543C58.8225 252.489 59.1063 252.544 59.3519 252.698C59.5975 252.853 59.7906 253.098 59.9 253.395ZM65.6798 240.06C65.4321 240.059 65.1897 240.142 64.9831 240.299C64.7766 240.456 64.6152 240.68 64.5195 240.943C64.4238 241.206 64.3981 241.496 64.4456 241.775C64.4931 242.055 64.6117 242.312 64.7863 242.514C64.9609 242.716 65.1837 242.854 65.4265 242.91C65.6693 242.967 65.9211 242.939 66.15 242.83C66.3789 242.721 66.5746 242.537 66.7123 242.3C66.8501 242.063 66.9236 241.784 66.9236 241.499C66.9236 241.119 66.7928 240.754 66.5597 240.484C66.3266 240.215 66.0103 240.062 65.6798 240.06Z" fill="white"/>
<path d="M54.1543 252.469C56.7974 251.73 59.4406 251.03 62.1176 250.462C63.4696 250.182 64.8058 249.922 66.1262 249.684C67.4782 249.45 68.8302 249.372 70.1822 249.116C70.2498 249.116 70.2701 249.24 70.1822 249.248C68.8302 249.427 67.4782 249.808 66.1668 250.073C64.8554 250.337 63.4966 250.594 62.1581 250.851C59.4947 251.403 56.8245 251.948 54.1678 252.57C54.0799 252.617 54.0799 252.492 54.1543 252.469Z" fill="#263238"/>
<path d="M68.7221 251.652C69.4509 251.438 70.1887 251.266 70.9327 251.139C70.98 249.87 71.0138 248.602 71.0814 247.334C71.0814 246.704 71.149 246.066 71.1963 245.436C71.2436 244.806 71.2842 243.942 71.3315 243.327C71.3283 243.317 71.3273 243.306 71.3287 243.295C71.3301 243.283 71.3337 243.273 71.3394 243.264C71.345 243.255 71.3524 243.247 71.3611 243.242C71.3697 243.237 71.3792 243.234 71.389 243.234C71.3987 243.234 71.4082 243.237 71.4169 243.242C71.4255 243.247 71.4329 243.255 71.4385 243.264C71.4442 243.273 71.4478 243.283 71.4492 243.295C71.4506 243.306 71.4496 243.317 71.4464 243.327C71.4464 244.105 71.4464 244.743 71.4464 245.444C71.4464 246.144 71.4464 246.688 71.4126 247.311C71.3721 248.633 71.372 250.042 71.2639 251.356C70.4292 251.545 69.5846 251.67 68.7357 251.73C68.7357 251.73 68.6883 251.66 68.7221 251.652Z" fill="#263238"/>
<path d="M72.0071 244.471C71.9212 245.235 71.7247 245.976 71.4258 246.665C71.4651 246.282 71.5353 245.905 71.6353 245.537C71.7334 245.171 71.8578 244.814 72.0071 244.471Z" fill="#263238"/>
<path d="M141.845 288.296H93.3486V290.801H141.845V288.296Z" fill="#C7C7C7"/>
<path d="M114.224 288.296L112.567 290.793H152.343V288.296H114.224Z" fill="#A6A6A6"/>
<path d="M116.319 290.793H163.578L173.178 253.854H125.912L116.319 290.793Z" fill="#A6A6A6"/>
<path d="M117.955 290.793H165.214L174.807 253.854H127.548L117.955 290.793Z" fill="#C7C7C7"/>
<path d="M144.414 272.3C144.324 272.7 144.316 273.118 144.392 273.522C144.468 273.926 144.625 274.303 144.85 274.625C145.076 274.946 145.363 275.202 145.69 275.373C146.017 275.543 146.374 275.623 146.732 275.607C147.542 275.571 148.319 275.227 148.941 274.629C149.562 274.03 149.993 273.211 150.167 272.3C150.256 271.9 150.264 271.481 150.188 271.077C150.112 270.673 149.955 270.295 149.73 269.973C149.505 269.651 149.217 269.394 148.891 269.223C148.564 269.051 148.207 268.97 147.848 268.986C147.037 269.023 146.261 269.368 145.639 269.968C145.018 270.568 144.587 271.388 144.414 272.3Z" fill="white"/>
<path d="M132.651 206.715V240.457H136.768V248.649L143.88 240.457H182.912V206.715H132.651Z" fill="white"/>
<path d="M132.652 206.715L132.76 223.636C132.809 229.264 132.836 234.87 132.841 240.456L132.652 240.239H136.964V240.464V248.649L136.593 248.478L143.684 240.27L143.758 240.184H143.86L163.376 240.122C169.879 240.122 176.389 240.052 182.892 240.122L182.567 240.495L182.649 206.754L182.892 207.034L157.833 206.94L132.652 206.715ZM132.652 206.715L157.711 206.52L182.912 206.427H183.156V206.715L183.23 240.456V240.83H182.905C176.402 240.869 169.892 240.83 163.389 240.83L143.873 240.775L144.049 240.69L136.917 248.851L136.539 249.287V248.672V240.488L136.741 240.721H132.625H132.496V240.503C132.496 234.855 132.523 229.214 132.577 223.582L132.652 206.715Z" fill="#263238"/>
<path d="M151.032 228.989C151.201 229.182 151.317 229.429 151.365 229.698C151.412 229.967 151.39 230.246 151.301 230.5C151.211 230.754 151.058 230.973 150.861 231.127C150.664 231.282 150.432 231.366 150.194 231.37C149.867 231.373 149.552 231.231 149.315 230.973L143.907 224.694C143.853 224.694 143.832 224.632 143.812 224.562C143.796 224.546 143.778 224.533 143.758 224.523C143.73 224.467 143.71 224.407 143.697 224.344C143.683 224.336 143.671 224.324 143.661 224.309C143.652 224.294 143.646 224.277 143.643 224.259C143.643 224.212 143.643 224.142 143.603 224.126C143.562 224.111 143.562 224.033 143.562 224.018V223.862C143.562 223.815 143.562 223.792 143.562 223.73C143.562 223.667 143.562 223.636 143.562 223.621V223.465C143.562 223.418 143.603 223.395 143.603 223.372C143.603 223.348 143.603 223.263 143.643 223.201C143.684 223.138 143.643 223.201 143.643 223.154C143.643 223.107 143.704 222.998 143.745 222.959C143.785 222.921 143.745 222.913 143.778 222.913C143.806 222.852 143.845 222.799 143.893 222.757L149.301 216.486C149.533 216.233 149.84 216.091 150.16 216.091C150.48 216.091 150.787 216.233 151.018 216.486C151.132 216.615 151.223 216.769 151.285 216.939C151.347 217.108 151.378 217.291 151.378 217.475C151.378 217.659 151.347 217.841 151.285 218.01C151.223 218.18 151.132 218.334 151.018 218.463L146.489 223.73L151.032 228.989Z" fill="#FF4C60"/>
<path d="M155.906 229.697L160.591 216.86C160.704 216.562 160.914 216.328 161.176 216.209C161.438 216.089 161.731 216.094 161.99 216.222C162.239 216.348 162.435 216.582 162.535 216.874C162.635 217.165 162.631 217.49 162.524 217.778L157.84 230.63C157.756 230.849 157.619 231.035 157.445 231.165C157.27 231.295 157.067 231.364 156.859 231.362C156.729 231.363 156.6 231.334 156.481 231.276C156.352 231.217 156.235 231.129 156.136 231.018C156.037 230.906 155.959 230.773 155.905 230.625C155.851 230.478 155.824 230.32 155.824 230.161C155.824 230.002 155.852 229.844 155.906 229.697Z" fill="#FF4C60"/>
<path d="M171.785 224.523C171.745 224.581 171.7 224.633 171.65 224.679L166.242 230.957C166.13 231.092 165.995 231.199 165.847 231.273C165.698 231.346 165.538 231.385 165.376 231.387C165.214 231.388 165.053 231.353 164.903 231.282C164.754 231.211 164.617 231.107 164.503 230.975C164.389 230.843 164.299 230.686 164.238 230.513C164.177 230.34 164.146 230.155 164.149 229.969C164.151 229.782 164.185 229.598 164.25 229.427C164.314 229.256 164.408 229.102 164.525 228.973L169.054 223.714L164.525 218.447C164.411 218.318 164.32 218.164 164.259 217.995C164.197 217.825 164.165 217.643 164.165 217.459C164.165 217.275 164.197 217.093 164.259 216.923C164.32 216.754 164.411 216.6 164.525 216.471C164.756 216.217 165.064 216.075 165.384 216.075C165.703 216.075 166.011 216.217 166.242 216.471L171.65 222.742C171.699 222.789 171.744 222.841 171.785 222.897V222.944C171.785 222.944 171.86 223.076 171.88 223.138C171.9 223.201 171.88 223.138 171.88 223.185C171.894 223.252 171.915 223.317 171.941 223.38C171.941 223.38 171.941 223.38 171.941 223.45V223.605C171.941 223.605 171.941 223.691 171.941 223.714C171.941 223.737 171.941 223.8 171.941 223.823V224.002C171.941 224.002 171.941 224.002 171.941 224.041C171.917 224.107 171.896 224.174 171.88 224.243C171.88 224.243 171.88 224.243 171.88 224.305C171.845 224.376 171.813 224.448 171.785 224.523Z" fill="#FF4C60"/>
<path d="M471.598 272.463C462.634 286.467 453.285 302.658 451.007 320.186C451.007 320.451 451.352 320.536 451.399 320.272C452.433 315.502 453.759 310.822 455.367 306.268C461.262 304.4 467.048 302.868 470.144 296.154C473.301 289.229 472.902 280.205 472.301 272.666C472.254 272.215 471.78 272.191 471.598 272.463Z" fill="#FF4C60"/>
<path d="M455.455 306.104C459.511 295.702 464.655 285.261 471.226 276.703C471.273 276.649 471.341 276.703 471.3 276.789C466.994 282.881 463.729 289.517 460.532 296.239C463.499 292.769 466.758 289.657 469.57 285.985C469.624 285.907 469.712 285.985 469.658 286.086C466.866 289.976 463.817 294.131 460.194 296.978C459.213 299.048 458.233 301.125 457.233 303.202C457.476 303.047 457.733 302.907 457.983 302.766C457.989 302.771 457.993 302.777 457.996 302.783C458 302.79 458.001 302.798 458.001 302.805C458.001 302.813 458 302.821 457.996 302.827C457.993 302.834 457.989 302.84 457.983 302.844C457.706 303.008 457.436 303.171 457.145 303.311C456.678 304.299 456.205 305.279 455.725 306.26C455.624 306.532 455.374 306.33 455.455 306.104Z" fill="#263238"/>
<path d="M458.45 302.479C460.862 300.925 463.166 299.156 465.338 297.188C465.392 297.134 465.48 297.227 465.419 297.289C463.315 299.37 461.011 301.166 458.551 302.642C458.443 302.735 458.328 302.549 458.45 302.479Z" fill="#263238"/>
<path d="M449.973 317.579C449.973 317.79 450.304 317.79 450.297 317.579C450.344 311.807 450.297 306.003 450.378 300.207C451.663 297.227 454.434 295.539 456.334 293.205C457.716 291.458 458.918 289.534 459.917 287.471C462.226 282.534 463.636 277.107 464.061 271.522C464.595 265.345 462.56 244.977 460.295 245.685C459.126 246.05 455.327 256.141 454.319 259.478C452.688 264.981 451.494 270.642 450.75 276.392C448.918 289.96 449.074 303.91 449.973 317.579Z" fill="#FF4C60"/>
<path d="M449.932 292.684C450.203 285.378 451.636 278.003 452.974 270.9C454.414 263.267 456.097 256.079 459.511 249.279C459.572 249.147 459.734 249.279 459.68 249.388C457.404 254.68 455.642 260.245 454.428 265.983C454.657 265.578 454.935 265.205 455.171 264.792C455.266 264.645 455.482 264.792 455.394 264.948C455.086 265.561 454.728 266.139 454.326 266.675C454.319 266.679 454.311 266.681 454.302 266.681C454.294 266.681 454.286 266.679 454.279 266.675C453.109 272.121 452.251 277.707 451.575 283.278L451.737 283.06C451.737 283.013 451.838 283.06 451.811 283.122C451.724 283.309 451.622 283.495 451.521 283.674C451.156 286.499 450.845 289.323 450.486 292.116C454.853 287.813 458.598 282.78 460.687 276.509C460.687 276.509 460.741 276.509 460.728 276.509C458.7 282.99 455.421 288.747 450.412 292.676C450.324 293.454 450.23 294.177 450.135 294.924C450.135 295.08 449.905 295.041 449.905 294.924C449.905 294.255 449.905 293.586 449.959 292.925C449.941 292.914 449.925 292.898 449.913 292.878C449.901 292.859 449.893 292.836 449.891 292.812C449.888 292.789 449.89 292.765 449.898 292.742C449.905 292.72 449.917 292.7 449.932 292.684Z" fill="#263238"/>
<path d="M451.994 282.103C455.333 276.361 458.449 270.791 460.897 264.45C460.897 264.38 461.025 264.45 461.005 264.504C458.943 270.806 456.063 277.186 452.156 282.25C452.082 282.352 451.926 282.212 451.994 282.103Z" fill="#263238"/>
<path d="M456.429 263.034C457.781 260.217 459.274 257.479 460.572 254.608C460.574 254.597 460.578 254.587 460.583 254.578C460.589 254.568 460.597 254.561 460.605 254.556C460.614 254.551 460.624 254.549 460.633 254.549C460.643 254.549 460.653 254.552 460.661 254.557C460.67 254.562 460.677 254.57 460.683 254.579C460.688 254.588 460.692 254.599 460.693 254.61C460.694 254.621 460.693 254.632 460.69 254.643C460.686 254.653 460.681 254.663 460.674 254.67C459.601 257.672 458.241 260.527 456.618 263.182C456.55 263.322 456.347 263.197 456.429 263.034Z" fill="#263238"/>
<path d="M446.572 300.883C446.509 304.71 446.117 308.52 445.403 312.258C445.457 312.67 445.504 313.082 445.558 313.503C446.582 309.374 447.175 305.119 447.323 300.829C447.353 300.769 447.369 300.7 447.369 300.631C447.369 300.561 447.353 300.492 447.323 300.432C447.464 294.68 447.092 288.927 446.214 283.262C444.659 272.65 441.266 262.473 434.837 254.522C434.784 254.478 434.724 254.446 434.66 254.431C434.595 254.415 434.529 254.415 434.465 254.431C434.401 254.448 434.341 254.479 434.288 254.525C434.236 254.57 434.192 254.627 434.161 254.693C431.572 262.279 432.478 271.335 434.681 278.913C435.885 283.011 437.602 286.884 439.779 290.411C441.976 293.975 444.808 296.993 446.572 300.883Z" fill="#FF4C60"/>
<path d="M435.621 258.063C441.705 269.445 445.951 282.959 446.471 296.371C446.471 296.612 446.133 296.675 446.099 296.433C445.957 295.228 445.795 294.029 445.626 292.839C443.105 290.062 440.515 287.129 438.711 283.659C438.711 283.597 438.758 283.526 438.798 283.581C440.881 286.531 443.114 289.337 445.484 291.983C445.033 289.011 444.513 286.086 443.923 283.207L443.436 282.554C443.334 282.414 443.51 282.204 443.618 282.344L443.767 282.531C442.907 278.572 441.843 274.675 440.583 270.861C439.028 268.737 437.298 266.893 436.169 264.333C436.164 264.321 436.164 264.307 436.167 264.295C436.171 264.282 436.179 264.271 436.188 264.265C436.198 264.258 436.21 264.256 436.222 264.258C436.233 264.261 436.243 264.268 436.25 264.279C437.156 265.741 438.035 267.22 439.069 268.581C439.474 269.118 439.927 269.631 440.353 270.137C438.95 266.012 437.282 262.012 435.364 258.171C435.358 258.152 435.355 258.131 435.356 258.111C435.357 258.09 435.361 258.07 435.369 258.051C435.376 258.032 435.387 258.015 435.4 258.001C435.413 257.987 435.429 257.976 435.446 257.969C435.462 257.962 435.48 257.959 435.498 257.96C435.516 257.96 435.534 257.965 435.55 257.974C435.567 257.983 435.581 257.995 435.593 258.01C435.606 258.025 435.615 258.043 435.621 258.063Z" fill="#263238"/>
<path d="M436.852 272.105C438.819 275.155 441.063 278.065 442.895 281.216C442.949 281.301 442.834 281.395 442.767 281.325C440.414 278.788 438.427 275.319 436.683 272.191C436.673 272.165 436.672 272.136 436.681 272.11C436.69 272.083 436.708 272.062 436.73 272.051C436.752 272.04 436.778 272.039 436.801 272.049C436.823 272.059 436.842 272.08 436.852 272.105Z" fill="#263238"/>
<path d="M443.172 281.916L443.253 282.017C443.314 282.08 443.219 282.189 443.165 282.119L443.078 282.025C443.068 282.01 443.063 281.992 443.064 281.973C443.065 281.954 443.072 281.937 443.084 281.923C443.095 281.91 443.111 281.902 443.127 281.901C443.143 281.899 443.159 281.905 443.172 281.916Z" fill="#263238"/>
<path d="M426.076 279.94C426.563 285.79 429.24 292.784 432.505 297.297C433.943 299.25 435.718 300.84 437.717 301.965C439.975 303.249 442.34 304.727 444.673 305.785C445.784 309.043 446.611 312.421 447.14 315.868L447.363 314.973C445.862 300.152 437.527 287.486 426.874 279.356C426.79 279.294 426.693 279.261 426.593 279.261C426.494 279.26 426.397 279.293 426.313 279.354C426.229 279.416 426.162 279.503 426.12 279.607C426.078 279.711 426.063 279.826 426.076 279.94Z" fill="#FF4C60"/>
<path d="M429.76 284.32C429.686 284.242 429.76 284.087 429.868 284.157C435.726 289.169 440.398 295.792 443.456 303.42C443.537 303.622 443.294 303.801 443.192 303.599C442.696 302.603 442.192 301.628 441.678 300.674C439.244 300.145 436.946 298.176 435.134 296.309C435.128 296.297 435.125 296.283 435.127 296.269C435.128 296.255 435.133 296.243 435.142 296.233C435.151 296.223 435.162 296.217 435.174 296.215C435.186 296.213 435.198 296.216 435.209 296.224C436.139 297.199 437.172 298.035 438.284 298.713C439.278 299.289 440.312 299.655 441.374 300.121C440.475 298.472 439.535 296.893 438.555 295.36C435.927 294.209 433.462 292.615 431.24 290.63C431.173 290.575 431.24 290.443 431.308 290.498C433.509 292.028 435.779 293.423 438.109 294.675C436.622 292.422 435.019 290.274 433.309 288.241C432.484 287.736 431.639 287.23 430.842 286.685C430.828 286.675 430.819 286.66 430.814 286.642C430.81 286.625 430.811 286.606 430.818 286.589C430.824 286.572 430.835 286.559 430.85 286.551C430.864 286.543 430.88 286.541 430.896 286.545C431.56 286.815 432.196 287.172 432.788 287.611C431.808 286.499 430.821 285.394 429.76 284.32Z" fill="#263238"/>
<path d="M429.983 289.416C430.129 289.517 430.267 289.631 430.396 289.758C430.436 289.797 430.396 289.852 430.342 289.836C430.194 289.755 430.051 289.661 429.916 289.556C429.841 289.517 429.936 289.416 429.983 289.416Z" fill="#263238"/>
<path d="M464 347.961H434.79L437.149 317.354L437.663 310.601H461.12L461.64 317.354L464 347.961Z" fill="#455A64"/>
<path d="M461.64 317.354H437.149L437.663 310.601H461.12L461.64 317.354Z" fill="#263238"/>
<path d="M462.519 305.878H436.27V312.561H462.519V305.878Z" fill="#455A64"/>
</svg>
